<?xml version="1.0" encoding="UTF-8"?>
<!-- Generator: Adobe Illustrator 12.0.1, SVG Export Plug-In . SVG Version: 6.00 Build 51448)  -->
<!DOCTYPE svg PUBLIC "-//W3C//DTD SVG 1.1//EN" "http://www.w3.org/Graphics/SVG/1.1/DTD/svg11.dtd">
<svg version="1.1" id="Layer_1" xmlns="http://www.w3.org/2000/svg" xmlns:xlink="http://www.w3.org/1999/xlink" width="424.474" height="393.852" viewBox="0 0 424.474 393.852" overflow="visible" enable-background="new 0 0 424.474 393.852" xml:space="preserve">
<g>
	<path fill-rule="evenodd" clip-rule="evenodd" fill="#E4E5E6" d="M220.685,1.09c6.092,0.032,11.286,2.835,16.8,4.8   c28.895,10.295,58.001,19.905,87.36,30.24c28.99,10.205,57.657,20.632,87.359,30.48c3.714,1.231,10.081,3.22,11.04,5.76   c1.308,3.463-1.201,9.746-2.88,13.68c-21.963,51.458-43.995,102.536-66.24,154.081c-1.692,3.923-3.543,7.843-5.279,11.76   c-2.613,5.895-3.687,12.348-8.641,15.84c4.721-7.142,7.407-15.405,10.8-23.28c21.947-50.934,44.382-102.728,66.721-154.32   c2.088-4.822,5.725-9.534,5.04-15.84c-0.388-3.565-6.539-5.342-11.04-6.96c-29.435-10.578-59.238-20.751-88.8-30.96   c-25.705-8.876-50.154-17.506-76.32-26.4c-5.788-1.967-12.64-4.421-18.96-6.72C225.095,2.322,223.169,1.299,220.685,1.09z"/>
	<path fill-rule="evenodd" clip-rule="evenodd" fill="#E4E5E6" d="M337.084,267.49c-0.937-1.247-1.195-3.666-0.72-6   c0.307-1.501,2.336-3.526,0-4.8c-1.347-0.734-2.636,0.063-4.08,0.479c-12.278-7.241-25.194-13.845-37.68-20.88   c4.216-4.167-1.234-5.649-5.04-7.68c-32.573-17.38-66.797-35.912-98.88-52.8c-1.3,2.14-1.601,5.279-6,4.32   c-0.147-1.187-0.375-2.325,0-3.36c-8.246-3.915-15.574-8.746-24-12.48c-0.159-0.467,0.676-2.323,0-3.36   c-2.184-1.919-3.654,1.157-4.56,0.72c-0.153-1.661,0.648-3.297,1.2-4.8c4.094-11.161,8.911-22.667,13.2-34.32   c13.229-35.939,26.705-72.311,40.8-108.72c2.032-5.249,2.646-12.87,10.32-11.76c3.753,0.543,8.193,3.03,12.479,4.56   c21.11,7.534,42.14,13.979,62.88,21.6c24.342,8.944,49.677,16.953,75.12,26.16c11.789,4.266,24.979,8.791,37.44,13.2   c5.2,1.84,12.126,3.308,12.479,7.92c0.295,3.844-2.811,9.07-4.56,12.96c-5.486,12.202-10.442,24.06-15.6,36.24   c-6.808,16.078-14.41,32.641-21.12,48.24c-10.266,23.862-20.856,48.839-31.2,72.96c-1.646,3.838-3.66,8.03-5.28,12   c-0.736,1.806-1.533,4.131-2.64,6C340.797,265.321,339.502,267.978,337.084,267.49z M216.845,6.37   c0.186,1.481,1.38,2.269,4.079,1.68C224.506,4.259,216.235,1.518,216.845,6.37z M396.605,74.29   c-27.434-9.44-53.639-19.193-81.12-28.8c-26.712-9.337-54.441-18.719-81.36-28.56c-4.44-1.623-9.533-3.873-12.96-3.6   c-1.321,1.204-2.734,5.743-3.84,8.64c-3.552,9.313-7.013,18.535-10.32,27.12c-9.222,23.941-18.566,47.665-27.6,72   c-3.183,8.574-6.595,18.297-10.08,27.36c-0.908,2.363-3.637,7.206-3.12,9.36c0.459,1.915,7.486,4.895,9.84,6.24   c3.409,1.948,7.466,3.736,10.8,5.52c21.202,11.346,43.06,23.183,63.36,33.84c24.88,13.062,48.948,26.703,73.92,39.601   c1.638,0.845,9.139,5.593,11.28,5.04c1.88-0.486,3.853-7.081,5.04-9.841c21.313-49.542,42.231-99.201,63.36-148.08   c1.525-3.53,3.667-7.17,3.84-11.28C404.379,76.47,400.352,75.579,396.605,74.29z M304.925,32.53   c-0.146,0.575-0.346,1.095-0.24,1.92c3.602,1.198,7.037,2.563,10.56,3.84c0.238-0.723,0.85-1.071,0.721-2.16   C312.342,34.873,309.198,33.137,304.925,32.53z M415.325,74.77c-0.585,3.445,6.171,4.372,5.28-0.72   C419.059,72.426,415.684,72.655,415.325,74.77z"/>
	<path fill-rule="evenodd" clip-rule="evenodd" d="M220.924,8.05c-2.699,0.588-3.894-0.199-4.079-1.68   C216.235,1.518,224.506,4.259,220.924,8.05z M217.565,6.13c0.309,1.642,3.345,1.616,3.12-0.48c-0.3-0.82-1.121-1.119-2.4-0.96   C218.415,5.54,217.435,5.28,217.565,6.13z"/>
	<path fill-rule="evenodd" clip-rule="evenodd" fill="#E4E5E6" d="M218.285,4.69c1.279-0.159,2.101,0.14,2.4,0.96   c0.225,2.096-2.812,2.122-3.12,0.48C217.435,5.28,218.415,5.54,218.285,4.69z"/>
	<path fill-rule="evenodd" clip-rule="evenodd" d="M407.645,78.85c-0.173,4.11-2.314,7.75-3.84,11.28   c-21.129,48.879-42.047,98.538-63.36,148.08c-1.188,2.76-3.16,9.354-5.04,9.841c-2.142,0.553-9.643-4.195-11.28-5.04   c-24.972-12.897-49.04-26.539-73.92-39.601c-20.3-10.657-42.158-22.494-63.36-33.84c-3.333-1.784-7.391-3.572-10.8-5.52   c-2.354-1.345-9.381-4.325-9.84-6.24c-0.517-2.154,2.212-6.998,3.12-9.36c3.485-9.063,6.897-18.786,10.08-27.36   c9.034-24.335,18.378-48.059,27.6-72c3.307-8.585,6.768-17.807,10.32-27.12c1.105-2.897,2.519-7.437,3.84-8.64   c3.427-0.272,8.52,1.977,12.96,3.6c26.919,9.841,54.648,19.223,81.36,28.56c27.481,9.607,53.687,19.36,81.12,28.8   C400.352,75.579,404.379,76.47,407.645,78.85z M221.165,14.77c-18.102,47.498-36.689,94.51-54,142.8   c6.477,4.528,13.649,7.801,20.64,11.52c49.021,26.08,97.952,52.579,147.12,78.24c2.483-2.879,3.328-6.674,4.801-10.08   c10.547-24.399,21.237-48.797,31.439-73.439c11.65-28.14,24.697-55.793,35.761-84.24c-3.217-2.473-7.342-3.24-11.04-4.56   c-3.852-1.375-7.672-2.721-11.521-4.08c-46.321-16.362-92.021-33.059-138.72-48.96c-6.775-2.307-16.989-6.358-23.76-7.92   C221.54,14.184,221.299,14.424,221.165,14.77z"/>
	<path fill-rule="evenodd" clip-rule="evenodd" fill="#455560" d="M221.885,14.05c6.771,1.562,16.984,5.613,23.76,7.92   c46.699,15.901,92.398,32.598,138.72,48.96c3.849,1.359,7.669,2.706,11.521,4.08c3.698,1.32,7.823,2.087,11.04,4.56   c-11.063,28.447-24.11,56.1-35.761,84.24c-10.202,24.643-20.893,49.04-31.439,73.439c-1.473,3.406-2.317,7.201-4.801,10.08   c-49.168-25.661-98.099-52.16-147.12-78.24c-6.991-3.719-14.163-6.992-20.64-11.52c17.311-48.29,35.898-95.302,54-142.8   C221.299,14.424,221.54,14.184,221.885,14.05z M226.205,76.69c-2.911,0.533-5.922,0.325-8.64,1.68   c20.159-3.201,42.688-7.4,62.88-11.04c4.632-0.835,9.395-0.829,13.68-2.64C271.428,68.603,248.539,72.601,226.205,76.69z    M202.205,88.93c38.881-6.849,80.586-13.321,119.761-20.64c1.197-0.224,3.398-0.156,2.64-0.96   C284.424,74.631,242.497,81.144,202.205,88.93z M350.525,105.97c-19.742,3.707-40.88,7.019-60.72,10.8   c-1.637,0.312-3.67,0.32-5.04,1.44c22.018-3.996,45.306-7.989,66.72-12c3.143-0.589,6.445-0.508,9.36-1.92   C357.176,104.895,354.126,105.293,350.525,105.97z M240.365,129.01c-2.517,0.377-5.19,0.391-7.44,1.68   c20.355-3.742,41.035-6.612,61.44-10.56c20.482-3.962,41.222-6.46,61.2-11.04C317.253,115.034,278.282,123.327,240.365,129.01z    M243.245,175.09c25.645-4.276,51.303-8.538,76.32-13.44C293.894,165.899,268.214,170.139,243.245,175.09z M335.165,167.41   c-20.379,3.58-41.294,7.228-60.96,10.8c-1.305,0.237-3.283-0.063-4.319,1.2c23.071-4.059,46.764-8.256,69.6-12.48   c2.205-0.408,4.769-0.155,6.72-1.44C342.334,166.012,339.024,166.732,335.165,167.41z M289.325,172.45   c-16.841,2.728-33.523,5.585-49.68,8.4c-1.847,0.321-3.846-0.127-5.521,1.2c24.575-4.108,49.408-7.836,73.2-12.48   C300.917,170.272,295.414,171.464,289.325,172.45z"/>
	<path fill-rule="evenodd" clip-rule="evenodd" d="M315.965,36.13c0.129,1.089-0.482,1.438-0.721,2.16   c-3.522-1.277-6.958-2.642-10.56-3.84c-0.105-0.825,0.095-1.345,0.24-1.92C309.198,33.137,312.342,34.873,315.965,36.13z    M314.765,37.09c-2.127-1.874-6.346-2.934-9.12-3.36C308.645,34.89,311.689,36.006,314.765,37.09z"/>
	<path fill-rule="evenodd" clip-rule="evenodd" fill="#E4E5E6" d="M305.645,33.73c2.774,0.426,6.993,1.486,9.12,3.36   C311.689,36.006,308.645,34.89,305.645,33.73z"/>
	<path fill-rule="evenodd" clip-rule="evenodd" d="M294.125,64.69c-4.285,1.811-9.048,1.805-13.68,2.64   c-20.191,3.64-42.721,7.839-62.88,11.04c2.718-1.354,5.729-1.146,8.64-1.68C248.539,72.601,271.428,68.603,294.125,64.69z"/>
	<path fill-rule="evenodd" clip-rule="evenodd" d="M324.605,67.33c0.759,0.804-1.442,0.736-2.64,0.96   c-39.175,7.319-80.88,13.791-119.761,20.64C242.497,81.144,284.424,74.631,324.605,67.33z"/>
	<path fill-rule="evenodd" clip-rule="evenodd" d="M420.605,74.05c0.891,5.092-5.865,4.166-5.28,0.72   C415.684,72.655,419.059,72.426,420.605,74.05z M418.925,76.69c0.377-0.583,0.895-1.025,0.72-2.16   C417.218,72.021,414.375,77.173,418.925,76.69z"/>
	<path fill-rule="evenodd" clip-rule="evenodd" fill="#E4E5E6" d="M419.645,74.53c0.175,1.135-0.343,1.578-0.72,2.16   C414.375,77.173,417.218,72.021,419.645,74.53z"/>
	<path fill-rule="evenodd" clip-rule="evenodd" d="M360.845,104.29c-2.915,1.412-6.218,1.331-9.36,1.92   c-21.414,4.011-44.702,8.004-66.72,12c1.37-1.12,3.403-1.128,5.04-1.44c19.84-3.782,40.978-7.093,60.72-10.8   C354.126,105.293,357.176,104.895,360.845,104.29z"/>
	<path fill-rule="evenodd" clip-rule="evenodd" d="M355.565,109.09c-19.979,4.58-40.718,7.078-61.2,11.04   c-20.405,3.948-41.085,6.818-61.44,10.56c2.25-1.289,4.924-1.303,7.44-1.68C278.282,123.327,317.253,115.034,355.565,109.09z"/>
	<path fill-rule="evenodd" clip-rule="evenodd" fill="#E4E5E6" d="M159.965,161.65c0.149,0.929,0.199,0.988-0.24,1.68   c-0.955,0.155-0.965-0.635-1.92-0.479C157.349,161.195,159.055,161.243,159.965,161.65z"/>
	<path fill-rule="evenodd" clip-rule="evenodd" d="M319.565,161.65c-25.018,4.902-50.676,9.164-76.32,13.44   C268.214,170.139,293.894,165.899,319.565,161.65z"/>
	<path fill-rule="evenodd" clip-rule="evenodd" d="M151.085,162.61c-0.049,0.751,0.162,1.762-0.24,2.16   c-0.389,0.36-1.771,0.36-2.16,0C147.457,162.9,149.712,161.215,151.085,162.61z M149.165,163.81c0.315,0.308,0.885,0.308,1.2,0   c0.041-0.601-0.369-0.751-0.72-0.96C149.52,163.205,149.29,163.455,149.165,163.81z"/>
	<path fill-rule="evenodd" clip-rule="evenodd" fill="#E4E5E6" d="M149.645,162.85c0.351,0.208,0.761,0.359,0.72,0.96   c-0.315,0.308-0.885,0.308-1.2,0C149.29,163.455,149.52,163.205,149.645,162.85z"/>
	<path fill-rule="evenodd" clip-rule="evenodd" d="M346.205,165.49c-1.951,1.285-4.515,1.032-6.72,1.44   c-22.836,4.224-46.528,8.421-69.6,12.48c1.036-1.263,3.015-0.963,4.319-1.2c19.666-3.573,40.581-7.221,60.96-10.8   C339.024,166.732,342.334,166.012,346.205,165.49z"/>
	<path fill-rule="evenodd" clip-rule="evenodd" fill="#E4E5E6" d="M150.605,172.21c-1.283,1.677-3.496,2.424-5.04,3.84   c-4.355-2.205-8.607-4.513-12.72-6.96c1.421-1.459,3.75-2.01,5.28-3.36C142.365,167.81,146.426,170.069,150.605,172.21z"/>
	<path fill-rule="evenodd" clip-rule="evenodd" fill="#E4E5E6" d="M141.725,175.57c-1.923,0.609-3.27,1.812-5.04,2.88   c-1.366,0.824-3.624,2.825-5.04,2.88c-1.661,0.065-3.692-2.024-5.28-2.88c-1.96-1.057-3.738-1.723-5.28-2.88   c3.072-2.368,7.213-3.667,10.32-6C135.075,171.34,138.72,173.134,141.725,175.57z"/>
	<path fill-rule="evenodd" clip-rule="evenodd" d="M307.325,169.57c-23.792,4.644-48.625,8.372-73.2,12.48   c1.675-1.327,3.674-0.878,5.521-1.2c16.156-2.815,32.839-5.673,49.68-8.4C295.414,171.464,300.917,170.272,307.325,169.57z"/>
	<path fill-rule="evenodd" clip-rule="evenodd" d="M164.285,170.29c0.393,0.82,0.281,2.067-0.24,2.64   c-0.751-0.049-1.762,0.162-2.16-0.24C160.836,171.266,161.934,169.684,164.285,170.29z M163.325,172.21   c0.202-0.279,0.317-0.644,0.24-1.2c-0.32,0-0.64,0-0.96,0C162.558,171.697,162.575,172.32,163.325,172.21z"/>
	<path fill-rule="evenodd" clip-rule="evenodd" fill="#E4E5E6" d="M162.605,171.01c0.32,0,0.64,0,0.96,0   c0.077,0.557-0.039,0.921-0.24,1.2C162.575,172.32,162.558,171.697,162.605,171.01z"/>
	<path fill-rule="evenodd" clip-rule="evenodd" fill="#E4E5E6" d="M162.125,178.69c-1.356,1.523-3.301,2.459-4.8,3.84   c-3.922-1.598-6.804-4.236-10.8-5.76c1.245-1.635,3.527-2.233,4.8-3.84C155.202,174.573,158.205,177.09,162.125,178.69z"/>
	<path fill-rule="evenodd" clip-rule="evenodd" fill="#E4E5E6" d="M153.485,182.05c-3.685,1.835-7.2,3.84-10.8,5.76   c-3.572-1.629-6.583-3.817-10.08-5.52c2.834-2.686,6.847-4.193,10.08-6.48C146.386,177.789,150.603,179.251,153.485,182.05z"/>
	<path fill-rule="evenodd" clip-rule="evenodd" fill="#E4E5E6" d="M135.725,185.41c-3.752,1.848-7.057,4.143-10.8,6   c-5.502-2.818-10.521-6.119-15.84-9.12c3.163-2.357,7.123-3.917,10.32-6.24C125.178,178.837,130.699,181.876,135.725,185.41z"/>
	<path fill-rule="evenodd" clip-rule="evenodd" fill="#E4E5E6" d="M295.084,232.69c0.215,1.415-0.543,1.856-0.96,2.64   c-1.333,0.066-1.778-0.385-2.88,0c-33.918-18.323-68.029-36.448-102-54.72c0.544-1.216,1.45-2.07,1.68-3.6   C225.685,195.53,260.61,213.885,295.084,232.69z"/>
	<path fill-rule="evenodd" clip-rule="evenodd" fill="#E4E5E6" d="M183.245,178.21c0.545,0.255,0.092,1.508,0.24,2.16   c-0.966,0.074-1.435,0.646-1.68,1.44c-0.462-0.338-0.965-0.634-1.68-0.72C180.744,179.708,182.377,179.342,183.245,178.21z"/>
	<path fill-rule="evenodd" clip-rule="evenodd" fill="#E4E5E6" d="M173.405,184.93c-1.06,1.821-3.281,2.479-4.8,3.84   c-3.604-1.676-6.997-3.563-10.32-5.52c1.103-1.697,3.335-2.266,4.56-3.84C166.672,180.942,169.737,183.238,173.405,184.93z"/>
	<path fill-rule="evenodd" clip-rule="evenodd" fill="#E4E5E6" d="M290.765,236.05c-0.062,1.138-1.814,0.586-2.88,0.72   c-0.621,0.339-1.145,0.775-0.96,1.92c-32.884-17.163-65.208-35.639-98.161-53.04c-2.072-1.094-4.577-2.094-6-4.08   c1.981-0.686,2.845-0.166,5.28-0.72C222.028,199.506,256.557,217.618,290.765,236.05z"/>
	<path fill-rule="evenodd" clip-rule="evenodd" fill="#E4E5E6" d="M154.445,182.05c3.067,2.052,6.428,3.812,9.84,5.52   c-3.028,2.651-6.648,4.712-10.08,6.96c-3.123-2.477-7.382-3.817-10.32-6.48C147.607,186.252,151.416,184.541,154.445,182.05z"/>
	<path fill-rule="evenodd" clip-rule="evenodd" fill="#E4E5E6" d="M126.365,193.33c-3.52,2.56-7.496,4.665-11.28,6.959   c-5.698-4.062-12.239-7.281-18-11.28c3.44-2.32,7.252-4.267,11.04-6.24C114.281,186.213,119.998,190.097,126.365,193.33z"/>
	<path fill-rule="evenodd" clip-rule="evenodd" fill="#E4E5E6" d="M147.485,191.41c-3.117,2.723-7.595,4.086-11.04,6.48   c-3.927-1.354-6.549-4.011-10.32-5.521c2.97-2.789,7.273-4.246,10.56-6.72C140.263,187.592,143.652,189.723,147.485,191.41z"/>
	<path fill-rule="evenodd" clip-rule="evenodd" fill="#E4E5E6" d="M185.165,191.89c-1.776,1.024-3.202,2.398-4.8,3.6   c-3.86-1.74-7.134-4.066-10.8-6c1.78-0.99,3.096-3.541,5.04-3.6c1.304-0.039,3.807,1.969,5.52,2.88   C182.169,189.858,184.079,190.778,185.165,191.89z"/>
	<path fill-rule="evenodd" clip-rule="evenodd" fill="#E4E5E6" d="M176.045,194.29c-3.015,2.584-6.741,4.459-10.08,6.72   c-3.697-1.743-7.007-3.873-10.56-5.761c2.924-1.918,6.164-5.199,9.36-6.72c1.385-0.659,4.914,2.107,6.24,2.88   C172.822,192.468,174.399,193.346,176.045,194.29z"/>
	<path fill-rule="evenodd" clip-rule="evenodd" fill="#E4E5E6" d="M119.405,203.89c-2.57,1.853-5.12,3.489-8.16,5.52   c-0.846,0.565-2.206,1.663-2.88,1.68c-1.457,0.037-4.655-2.644-6.24-3.6c-5.989-3.613-13.163-7.887-18-11.52   c3.997-2.003,7.711-4.289,11.52-6.48C103.775,194.08,111.521,199.053,119.405,203.89z"/>
	<path fill-rule="evenodd" clip-rule="evenodd" fill="#E4E5E6" d="M197.405,198.37c-1.354,1.606-3.347,2.573-5.04,3.84   c-3.672-2.007-7.318-4.041-11.04-6c1.289-1.671,3.316-2.604,4.8-4.08C190.031,194.064,193.607,196.328,197.405,198.37z"/>
	<path fill-rule="evenodd" clip-rule="evenodd" fill="#E4E5E6" d="M159.485,198.61c-3.355,2.404-7.063,4.457-10.56,6.72   c-3.985-2.095-7.815-4.345-11.76-6.479c3.234-2.687,7.633-4.208,11.28-6.48C152.522,194.052,155.701,196.633,159.485,198.61z"/>
	<path fill-rule="evenodd" clip-rule="evenodd" fill="#E4E5E6" d="M137.645,200.05c-3.57,2.51-7.298,4.861-11.52,6.72   c-3.146-2.215-7.042-3.679-9.84-6.24c3.807-1.953,7.319-4.201,10.8-6.48C130.997,195.658,133.99,198.185,137.645,200.05z"/>
	<path fill-rule="evenodd" clip-rule="evenodd" fill="#E4E5E6" d="M188.765,201.25c-3.519,2.321-7.154,4.525-10.8,6.721   c-3.836-2.084-7.748-4.093-11.04-6.721c3.608-1.752,6.678-4.041,9.84-6.239C181.104,196.751,184.628,199.306,188.765,201.25z"/>
	<path fill-rule="evenodd" clip-rule="evenodd" fill="#E4E5E6" d="M92.525,202.45c-1.527,1.615-3.732,2.558-6,3.84   c-1.83,1.035-4.545,3.341-6.48,3.36c-3.323,0.033-6.646-5.048-9.84-5.76c3.984-2.656,8.579-4.701,12.72-7.2   C86.282,198.453,89.025,200.83,92.525,202.45z"/>
	<path fill-rule="evenodd" clip-rule="evenodd" fill="#E4E5E6" d="M170.525,204.85c-3.364,2.556-7.467,4.373-11.04,6.72   c-3.506-1.534-6.273-3.807-9.6-5.52c3.203-2.638,7.268-4.412,10.56-6.961C163.72,201.095,167.229,202.865,170.525,204.85z"/>
	<path fill-rule="evenodd" clip-rule="evenodd" fill="#E4E5E6" d="M210.365,205.57c-1.077,1.803-3.06,2.7-4.56,4.08   c-4.494-1.905-8.173-4.627-12.48-6.72c1.407-1.474,3.472-2.288,4.8-3.841C202.579,200.875,206.252,203.443,210.365,205.57z"/>
	<path fill-rule="evenodd" clip-rule="evenodd" fill="#E4E5E6" d="M150.365,207.25c-3.55,2.69-8.228,4.253-12,6.721   c-3.789-1.972-7.135-4.385-10.8-6.48c3.514-2.405,7.424-4.416,11.04-6.72C142.637,202.817,146.377,205.157,150.365,207.25z"/>
	<path fill-rule="evenodd" clip-rule="evenodd" fill="#E4E5E6" d="M201.485,208.45c-3.227,2.533-6.983,4.537-10.56,6.72   c-4.273-1.887-7.93-4.39-12-6.479c3.223-2.617,7.417-4.264,10.56-6.96C193.523,203.932,197.362,206.333,201.485,208.45z"/>
	<path fill-rule="evenodd" clip-rule="evenodd" fill="#E4E5E6" d="M93.245,203.169c3.642,2.118,7.092,4.428,10.8,6.48   c-3.936,2.784-8.67,4.771-12.72,7.439c-3.914-1.605-6.557-4.482-10.32-6.239C84.476,207.681,89.717,206.282,93.245,203.169z"/>
	<path fill-rule="evenodd" clip-rule="evenodd" fill="#E4E5E6" d="M68.045,203.89c4.003,1.916,7.666,4.174,10.8,6.96   c-0.746,0.448-1.738-0.562-2.16-1.2C73.521,208.014,70.304,206.431,68.045,203.89z"/>
	<path fill-rule="evenodd" clip-rule="evenodd" fill="#E4E5E6" d="M131.165,210.61c-3.353,3.047-7.867,4.933-11.52,7.68   c-3.632-1.808-6.796-4.084-10.08-6.239c2.896-3.104,7.16-4.841,10.56-7.44C124.278,206.136,127.274,208.821,131.165,210.61z"/>
	<path fill-rule="evenodd" clip-rule="evenodd" fill="#E4E5E6" d="M255.964,327.73c-21.841,17.119-42.752,35.168-64.08,52.8   c-5.544,1.791-9.93-2.616-13.44-5.28c-9.753-7.401-19.872-15.027-29.76-22.319c-19.763-14.576-40.377-30.12-59.521-44.4   c5.286-0.446,1.005-3.734-1.92-6c-2.334-1.808-7.242-5.622-6.24-0.72c-17.709-12.556-38.905-28.367-58.08-42.96   c-4.688-3.568-9.392-7.146-14.64-10.8c-2.305-1.605-5.501-3.112-5.28-5.761c0.175-2.094,2.482-2.466,3.36-4.319   c20.509-10.611,40.11-22.13,60.24-33.12c0.16,0,0.32,0,0.48,0C129.995,245.855,193.368,286.415,255.964,327.73z M53.645,236.29   c13.797,0.305,27.227,0.05,43.2-0.239C83.273,235.879,68.783,235.938,53.645,236.29z M79.565,236.77   c-16.434,0-37.061,0.438-50.16,0.479c-0.261,0.098-0.178,0.198,0.24,0.24c8.877,0.887,18.618,0,28.08,0c9.453,0,18.939,0,28.08,0   C84.037,236.796,81.754,236.77,79.565,236.77z M19.805,239.41c13.611,0.101,35.56-0.064,54,0   C52.336,238.407,42.493,239.298,19.805,239.41z M69.005,241.33c-0.27,0.051-0.374,0.267-0.48,0.48c8.777,0.248,18.427-0.12,29.76,0   C89.291,240.699,78.428,241.645,69.005,241.33z M166.685,279.73c-0.212-1.043-3.136-2.899-4.56-3.84   c-11.978-7.91-25.358-16.468-36-24c-2.824-0.241-5.804-0.27-7.92,0.72c-3.73,1.743-7.303,4.702-11.04,6.96   c-11.355,6.862-23.469,13.533-33.84,20.64c-0.521,1.318-0.939,2.741-1.2,4.32c0.51,0.609,0.711,1.529,1.2,2.16   c9.988,7.78,23.159,16.916,33.6,24.96c1.573,1.212,3.125,3.171,4.56,3.84c2.274,1.06,5.939,0.541,7.44-0.24   c4.581-2.384,9.266-6.451,14.16-8.88c0.517-0.202-0.09-1.529,0.48-1.68c10.328-6.712,20.064-14.017,30.72-20.4   C165.042,282.8,167.188,282.202,166.685,279.73z M187.085,312.13c10.398-0.397,18,0.354,28.8,0c0.818-0.027,1.625-0.418,2.16-0.24   c-1.096-0.363-1.596,0.02-2.879,0c-13.51-0.214-27.49-0.037-40.32,0.24C178.488,312.716,183.464,312.268,187.085,312.13z    M151.805,313.33c2.585,1.227,9.246,0.24,13.68,0.24c5.077,0,9.14-0.115,11.76-0.24c9.68,0,19.36,0,29.04,0   c0.422-0.138,1.41,0.29,1.44-0.239c-0.64,0-1.28,0-1.92,0c-1.2,0-2.4,0-3.6,0c-2.4,0-4.8,0-7.2,0c-4.88,0-9.76,0-14.64,0   c-9.527,0.098-21.291-0.226-28.32,0.239C151.977,313.305,151.87,313.361,151.805,313.33z M189.965,317.65   c0.307,0.014,0.333,0.308,0.72,0.24c7.188,0,15.288,0,22.32,0c2.534,0,5.593,0.585,6.96-0.721   C210.122,317.487,199.008,316.534,189.965,317.65z M141.245,321.97c-0.876-0.001-2.511-0.421-3.36,0.479   c19.94,0.172,35.6-0.308,54.72-0.24C175.368,321.086,156.958,321.987,141.245,321.97z"/>
	<path fill-rule="evenodd" clip-rule="evenodd" fill="#E4E5E6" d="M182.765,211.81c-2.899,2.941-6.897,4.782-10.08,7.439   c-4.145-2.415-8.826-4.294-12.24-7.439c3.986-1.773,7.36-4.159,11.04-6.24C175.466,207.428,178.757,209.977,182.765,211.81z"/>
	<path fill-rule="evenodd" clip-rule="evenodd" fill="#E4E5E6" d="M222.605,212.29c-1.622,1.095-2.729,3.866-4.561,4.08   c-1.433,0.168-4.031-1.902-5.76-2.88c-2.196-1.242-4.108-2.244-5.52-3.12c1.353-1.607,3.202-2.718,4.8-4.08   C215.313,208.221,218.842,210.373,222.605,212.29z"/>
	<path fill-rule="evenodd" clip-rule="evenodd" fill="#E4E5E6" d="M161.645,214.209c-3.068,2.853-7.122,4.719-10.56,7.2   c-3.945-2.215-7.845-4.475-11.76-6.72c3.471-2.689,8.276-4.044,11.76-6.72C154.836,209.819,158.089,212.166,161.645,214.209z"/>
	<path fill-rule="evenodd" clip-rule="evenodd" fill="#E4E5E6" d="M213.725,215.41c-1.324,1.492-3.105,2.344-5.04,3.601   c-1.413,0.917-3.677,3.25-5.28,3.359c-1.727,0.118-4.193-2.224-5.76-3.12c-2.164-1.238-3.906-2.065-5.76-3.119   c3.029-2.812,7.172-4.508,10.56-6.961C206.289,211.167,210.041,213.253,213.725,215.41z"/>
	<path fill-rule="evenodd" clip-rule="evenodd" fill="#E4E5E6" d="M114.845,216.61c-3.651,3.068-8.097,5.343-12,8.16   c-3.679-2.321-7.693-4.308-10.8-7.2c4.217-2.423,8.691-4.589,12.72-7.2C108.37,212.205,111.544,214.471,114.845,216.61z"/>
	<path fill-rule="evenodd" clip-rule="evenodd" fill="#E4E5E6" d="M142.685,217.57c-2.125,2.233-5.014,3.353-7.92,5.28   c-1.093,0.725-2.591,2.383-3.6,2.399c-1.542,0.026-3.937-2.326-5.28-3.119c-1.979-1.169-3.641-1.979-5.28-3.12   c3.332-2.908,7.701-4.779,11.28-7.44C135.942,213.113,138.722,215.933,142.685,217.57z"/>
	<path fill-rule="evenodd" clip-rule="evenodd" fill="#E4E5E6" d="M194.765,219.25c-3.06,2.62-6.608,4.752-9.6,7.44   c-4.09-2.069-7.859-4.461-11.76-6.72c3.252-2.293,6.774-5.22,10.08-7.2c0.784-0.47,5.109,2.225,6.24,2.88   C191.712,216.802,193.533,217.822,194.765,219.25z"/>
	<path fill-rule="evenodd" clip-rule="evenodd" fill="#E4E5E6" d="M237.485,220.69c-1.223,1.737-3.386,2.534-4.561,4.32   c-4.68-2.521-9.11-5.289-13.92-7.681c1.056-1.824,3.036-2.725,4.32-4.319C228.428,215.186,232.699,218.196,237.485,220.69z"/>
	<path fill-rule="evenodd" clip-rule="evenodd" fill="#E4E5E6" d="M174.125,221.65c-3.322,2.838-7.469,4.852-11.28,7.2   c-3.557-2.283-7.235-4.445-10.8-6.72c3.164-2.757,7.305-4.535,10.56-7.2C166.787,216.828,170.562,219.132,174.125,221.65z"/>
	<path fill-rule="evenodd" clip-rule="evenodd" fill="#E4E5E6" d="M226.924,222.61c-2.896,3.023-6.799,5.04-10.319,7.44   c-4.199-2.042-7.96-4.521-12-6.721c0.685-1.563,2.896-2.268,4.56-3.359c1.948-1.279,3.791-2.583,5.52-3.84   C219.06,217.995,222.702,220.593,226.924,222.61z"/>
	<path fill-rule="evenodd" clip-rule="evenodd" fill="#E4E5E6" d="M129.965,225.73c-3.772,3.348-8.612,5.628-12.96,8.4   c-4.754-2.606-8.715-6.006-13.44-8.641c3.809-2.911,8.185-5.255,12-8.16C120.65,219.844,125.114,222.981,129.965,225.73z"/>
	<path fill-rule="evenodd" clip-rule="evenodd" fill="#E4E5E6" d="M155.405,225.73c-3.607,2.713-7.582,5.059-11.52,7.439   c-4.069-2.33-8.301-4.499-11.76-7.439c4.019-2.381,7.768-5.032,11.76-7.44C147.604,220.89,152.17,222.645,155.405,225.73z"/>
	<path fill-rule="evenodd" clip-rule="evenodd" fill="#E4E5E6" d="M208.445,226.69c-1.322,1.603-3.086,2.469-5.04,3.84   c-1.379,0.968-3.669,3.49-5.28,3.601c-1.836,0.125-4.347-2.363-6-3.36c-2.196-1.325-4.079-2.276-6-3.36   c2.851-2.683,6.289-5.412,9.36-7.68c0.782-0.577,5.738,2.682,6.96,3.359C204.699,224.341,206.584,225.542,208.445,226.69z"/>
	<path fill-rule="evenodd" clip-rule="evenodd" fill="#E4E5E6" d="M250.685,227.89c-1.358,1.842-3.316,3.083-5.28,4.319   c-3.75-2.41-7.863-4.456-11.76-6.72c1.3-1.58,3.212-2.548,4.56-4.08C242.79,223.145,246.391,225.863,250.685,227.89z"/>
	<path fill-rule="evenodd" clip-rule="evenodd" fill="#E4E5E6" d="M186.125,228.37c-2.063,2.932-7.231,5.045-10.32,7.92   c-4.026-2.133-7.852-4.467-11.52-6.96c3.497-2.503,7.352-4.648,11.04-6.96C179.198,224.097,182.294,226.601,186.125,228.37z"/>
	<path fill-rule="evenodd" clip-rule="evenodd" fill="#E4E5E6" d="M240.845,230.53c-3.216,2.705-6.902,4.938-10.32,7.44   c-4.493-2.227-8.581-4.859-12.96-7.2c3.431-2.489,6.908-4.933,10.56-7.2C232.53,225.725,236.452,228.363,240.845,230.53z"/>
	<path fill-rule="evenodd" clip-rule="evenodd" fill="#E4E5E6" d="M168.605,233.169c-3.862,2.699-8.128,4.992-12,7.681   c-4.271-1.97-7.494-4.986-11.76-6.96c3.882-2.599,7.779-5.182,11.76-7.681C160.725,228.41,164.581,230.874,168.605,233.169z"/>
	<path fill-rule="evenodd" clip-rule="evenodd" fill="#E4E5E6" d="M195.485,266.29c-4.375,3.545-9.254,6.586-14.16,9.601   c-20.954-13.766-42.191-27.25-63.12-41.04c3.911-3.13,8.563-5.517,12.96-8.16C152.851,239.643,174.115,253.021,195.485,266.29z"/>
	<path fill-rule="evenodd" clip-rule="evenodd" fill="#E4E5E6" d="M222.365,234.37c-3.508,2.732-7.437,5.044-11.04,7.681   c-4.305-2.096-8.024-4.776-12.24-6.961c3.033-2.967,7.051-4.948,10.32-7.68C214.061,229.394,217.756,232.338,222.365,234.37z"/>
	<path fill-rule="evenodd" clip-rule="evenodd" fill="#E4E5E6" d="M265.565,236.05c-1.415,1.625-3.018,3.062-4.8,4.319   c-4.855-2.345-9.246-5.153-14.16-7.439c1.833-1.112,3.238-3.943,5.28-4.08c1.72-0.116,4.881,2.428,6.96,3.6   C261.45,233.919,263.795,235.11,265.565,236.05z"/>
	<path fill-rule="evenodd" clip-rule="evenodd" fill="#E4E5E6" d="M199.805,236.77c-3.403,2.677-7.204,4.956-11.04,7.2   c-4.364-2.037-8.111-4.689-12.24-6.96c3.265-2.896,7.237-5.083,10.8-7.681C191.754,231.541,195.782,234.153,199.805,236.77z"/>
	<path fill-rule="evenodd" clip-rule="evenodd" fill="#E4E5E6" d="M254.765,238.209c-3.085,2.995-7.133,5.028-10.561,7.681   c-4.408-2.232-8.562-4.718-12.72-7.2c2.961-2.88,6.971-4.709,10.08-7.44C246.295,233.24,250.188,236.067,254.765,238.209z"/>
	<path fill-rule="evenodd" clip-rule="evenodd" fill="#E4E5E6" d="M181.565,241.089c-3.938,2.782-8.008,5.433-12.24,7.921   c-3.813-2.667-8.134-4.826-12-7.44c3.77-2.791,8.096-5.023,12-7.68C173.759,235.935,177.39,238.785,181.565,241.089z"/>
	<path fill-rule="evenodd" clip-rule="evenodd" fill="#E4E5E6" d="M235.805,242.29c-3.194,2.966-6.986,5.334-10.32,8.16   c-4.403-2.557-8.827-5.093-13.2-7.68c3.168-2.912,7.344-4.817,10.561-7.681C227.635,237.019,231.349,240.025,235.805,242.29z"/>
	<path fill-rule="evenodd" clip-rule="evenodd" d="M96.845,236.05c-15.973,0.289-29.403,0.544-43.2,0.239   C68.783,235.938,83.273,235.879,96.845,236.05z"/>
	<path fill-rule="evenodd" clip-rule="evenodd" d="M85.805,237.49c-9.141,0-18.627,0-28.08,0c-9.461,0-19.202,0.887-28.08,0   c-0.418-0.042-0.501-0.143-0.24-0.24c13.099-0.041,33.726-0.479,50.16-0.479C81.754,236.77,84.037,236.796,85.805,237.49z"/>
	<path fill-rule="evenodd" clip-rule="evenodd" fill="#E4E5E6" d="M279.965,243.97c-0.643,0.883-1.674,1.468-2.641,2.159   c-0.91,0.651-2.005,1.869-2.88,1.921c-1.455,0.085-4.673-2.343-6.479-3.36c-2.459-1.385-4.513-2.727-6.24-3.601   c1.341-1.618,3.213-2.706,4.56-4.319C271.135,238.879,275.233,241.742,279.965,243.97z"/>
	<path fill-rule="evenodd" clip-rule="evenodd" fill="#E4E5E6" d="M214.205,244.93c-3.647,2.672-7.557,5.083-11.28,7.68   c-4.644-2.236-8.598-5.162-12.96-7.68c3.074-3.087,7.355-4.965,11.04-7.44C205.805,239.57,209.611,242.644,214.205,244.93z"/>
	<path fill-rule="evenodd" clip-rule="evenodd" fill="#E4E5E6" d="M289.565,237.49c-0.259,0.542-0.901,0.699-1.2,1.2   C287.275,238.277,288.42,237.131,289.565,237.49z"/>
	<path fill-rule="evenodd" clip-rule="evenodd" d="M73.805,239.41c-18.44-0.064-40.389,0.101-54,0   C42.493,239.298,52.336,238.407,73.805,239.41z"/>
	<path fill-rule="evenodd" clip-rule="evenodd" fill="#E4E5E6" d="M268.685,245.89c-3.018,3.062-6.982,5.178-10.32,7.92   c-4.669-2.131-8.777-4.822-13.2-7.2c3.141-2.94,7.273-4.887,10.561-7.68C260.32,240.975,264.08,243.855,268.685,245.89z"/>
	<path fill-rule="evenodd" clip-rule="evenodd" d="M98.285,241.81c-11.333-0.12-20.982,0.248-29.76,0   c0.106-0.214,0.21-0.43,0.48-0.48C78.428,241.645,89.291,240.699,98.285,241.81z"/>
	<path fill-rule="evenodd" clip-rule="evenodd" fill="#E4E5E6" d="M194.525,248.77c-3.136,3.504-7.748,5.532-11.28,8.64   c-4.566-2.233-8.401-5.198-12.72-7.68c3.571-3.149,8.258-5.182,12-8.16C186.56,243.935,190.518,246.376,194.525,248.77z"/>
	<path fill-rule="evenodd" clip-rule="evenodd" fill="#E4E5E6" d="M249.245,250.209c-3.255,2.905-6.892,5.429-10.56,7.921   c-4.335-2.226-8.572-4.549-12.24-7.44c3.549-2.451,6.84-5.16,10.32-7.68C241.037,245.298,245.337,247.557,249.245,250.209z"/>
	<path fill-rule="evenodd" clip-rule="evenodd" fill="#E4E5E6" d="M1.085,244.69c2.181,0.698,1.249,4.511,1.44,7.2   C1.219,250.316,1.226,247.429,1.085,244.69z"/>
	<path fill-rule="evenodd" clip-rule="evenodd" fill="#E4E5E6" d="M294.845,252.129c-1.293,1.748-3.37,2.711-4.801,4.32   c-5.272-2.087-9.651-5.068-14.399-7.68c1.267-1.773,3.631-2.449,5.04-4.08C285.755,246.82,289.875,249.899,294.845,252.129z"/>
	<path fill-rule="evenodd" clip-rule="evenodd" fill="#E4E5E6" d="M227.405,252.61c-3.412,2.908-7.151,5.488-10.8,8.16   c-4.522-2.198-8.505-4.935-12.72-7.44c3.21-3.029,7.778-4.701,10.8-7.92C219.143,247.591,222.992,250.382,227.405,252.61z"/>
	<path fill-rule="evenodd" clip-rule="evenodd" fill="#E4E5E6" d="M2.765,246.61c0.85-0.13,0.59,0.85,1.44,0.72   c0,2.641,0,5.28,0,7.92C1.798,254.296,3.093,249.641,2.765,246.61z"/>
	<path fill-rule="evenodd" clip-rule="evenodd" fill="#E4E5E6" d="M283.325,254.53c-3.645,2.436-6.747,5.413-10.56,7.68   c-4.502-2.698-9.601-4.8-13.44-8.159c3.525-2.315,6.911-4.77,10.08-7.44C274.13,249.165,279.142,251.433,283.325,254.53z"/>
	<path fill-rule="evenodd" clip-rule="evenodd" fill="#E4E5E6" d="M4.685,248.05c9.248,6.032,17.219,13.341,26.4,19.439   c0,0.96,0,1.92,0,2.88c0.994,0.034,0.25-1.67,0.48-2.399c1.34,0.18,0.906,2.133,0.96,3.6c0.701-0.259-0.221-2.142,0.48-2.4   c2.06,1.461,0.449,6.592,0.96,9.601c-10.03-7.25-20.123-14.438-29.28-22.561C4.685,253.49,4.685,250.77,4.685,248.05z    M5.405,252.85c1.205-0.306,0.983-3.692,0-3.601C5.405,250.45,5.405,251.65,5.405,252.85z"/>
	<path fill-rule="evenodd" clip-rule="evenodd" d="M306.845,248.29c2.967-0.886,6.21,0.045,6.479,2.4   c0.53,4.621-8.981,5.147-9.12,0.479C304.169,249.981,305.184,248.786,306.845,248.29z M311.405,250.93   c-0.176-1.963-4.849-2.116-5.28,0.239C306.848,253.392,311.604,253.147,311.405,250.93z"/>
	<path fill-rule="evenodd" clip-rule="evenodd" d="M5.405,249.25c0.983-0.092,1.205,3.295,0,3.601   C5.405,251.65,5.405,250.45,5.405,249.25z"/>
	<path fill-rule="evenodd" clip-rule="evenodd" fill="#E4E5E6" d="M208.685,257.41c-3.7,3.101-8.111,5.489-12,8.4   c-4.359-2.441-8.21-5.391-12.72-7.68c3.611-3.109,7.915-5.525,11.52-8.641C199.928,252.086,204.349,254.706,208.685,257.41z"/>
	<path fill-rule="evenodd" clip-rule="evenodd" fill="#E4E5E6" d="M306.125,251.169c0.432-2.355,5.104-2.202,5.28-0.239   C311.604,253.147,306.848,253.392,306.125,251.169z"/>
	<path fill-rule="evenodd" clip-rule="evenodd" fill="#E4E5E6" d="M264.365,259.09c-3.781,2.378-7.099,5.221-10.8,7.68   c-5.011-2.189-9.003-5.397-13.92-7.68c3.179-3.142,7.28-5.36,10.56-8.4C255.106,253.308,260.34,255.595,264.365,259.09z"/>
	<path fill-rule="evenodd" clip-rule="evenodd" fill="#E4E5E6" d="M295.565,252.85c4.588,2.771,9.876,4.844,13.92,8.16   c-1.791,1.169-3.104,2.816-4.8,4.08c-4.729-2.712-9.977-4.904-13.92-8.4C292.631,255.677,294.039,254.204,295.565,252.85z"/>
	<path fill-rule="evenodd" clip-rule="evenodd" fill="#E4E5E6" d="M241.325,261.01c-3.315,3.004-6.84,5.8-10.56,8.399   c-4.515-2.445-8.611-5.309-13.2-7.68c2.964-3.356,7.265-5.376,10.56-8.4C232.776,255.639,236.854,258.52,241.325,261.01z"/>
	<path fill-rule="evenodd" clip-rule="evenodd" fill="#E4E5E6" d="M133.085,303.97c-14.962-9.998-29.526-20.395-43.92-30.96   c8.11-5.256,17.541-10.901,26.16-16.08c2.362-1.42,5.704-4.297,9.84-3.12c1.477,0.42,3.419,2.141,5.28,3.359   c8.872,5.811,16.277,10.544,25.44,16.801c2.347,1.603,9.463,4.961,9.12,7.68c-0.261,2.072-6.015,4.386-7.92,5.76   C149.121,293.157,140.984,298.551,133.085,303.97z"/>
	<path fill-rule="evenodd" clip-rule="evenodd" fill="#E4E5E6" d="M298.445,262.69c-2.873,3.127-6.36,5.64-9.6,8.4   c-5.388-2.293-9.86-5.501-14.88-8.16c3.153-3.006,7.05-5.27,10.319-8.16C289.117,257.297,293.707,260.069,298.445,262.69z"/>
	<path fill-rule="evenodd" clip-rule="evenodd" fill="#E4E5E6" d="M336.365,257.89c-0.036,1.194,0.36,1.43-0.24,2.16   c-0.926-0.439-2.42-1.572-2.159-2.4C334.71,257.025,335.75,257.641,336.365,257.89z"/>
	<path fill-rule="evenodd" clip-rule="evenodd" fill="#E4E5E6" d="M222.365,265.57c-3.116,3.604-7.607,5.832-11.28,8.88   c-4.624-2.337-9.771-5.429-13.2-8.16c3.534-3.186,8.231-5.209,11.76-8.399C213.799,260.536,218.215,262.919,222.365,265.57z"/>
	<path fill-rule="evenodd" clip-rule="evenodd" fill="#E4E5E6" d="M265.565,259.09c4.44,2.839,9.115,5.444,13.92,7.92   c-3.427,3.133-7.504,5.615-11.04,8.64c-4.791-2.569-9.289-5.432-13.92-8.16C257.978,264.463,261.979,261.984,265.565,259.09z"/>
	<path fill-rule="evenodd" clip-rule="evenodd" d="M332.285,263.65c-0.874,1.245-3.383,1.129-4.56,0.24   c-0.118-0.842-0.358-1.562-0.24-2.641C329.042,259.038,333.806,260.085,332.285,263.65z M328.445,262.93   c0.611,0.429,0.894,1.187,2.16,0.96c0.811-0.767,1.455-1.489,0.72-2.641C330.019,260.719,328.042,261.014,328.445,262.93z"/>
	<path fill-rule="evenodd" clip-rule="evenodd" fill="#E4E5E6" d="M331.325,261.25c0.735,1.151,0.091,1.874-0.72,2.641   c-1.267,0.227-1.549-0.531-2.16-0.96C328.042,261.014,330.019,260.719,331.325,261.25z"/>
	<path fill-rule="evenodd" clip-rule="evenodd" fill="#E4E5E6" d="M325.325,269.169c-1.291,1.989-3.428,3.132-5.28,4.561   c-5.119-2.32-9.379-5.501-14.399-7.92c1.199-1.841,3.308-2.772,4.56-4.561C315.635,263.5,319.923,266.891,325.325,269.169z"/>
	<path fill-rule="evenodd" clip-rule="evenodd" fill="#E4E5E6" d="M256.685,269.89c-3.501,3.06-7.727,5.394-11.28,8.399   c-4.585-2.614-9.202-5.197-13.439-8.159c3.238-3.082,6.891-5.749,10.56-8.4C247.285,264.41,251.964,267.17,256.685,269.89z"/>
	<path fill-rule="evenodd" clip-rule="evenodd" fill="#E4E5E6" d="M319.084,274.45c-3.149,3.01-6.65,5.67-9.84,8.641   c-6.757-3.403-12.82-7.5-19.439-11.04c2.734-3.346,6.437-5.724,9.6-8.641C306.103,266.952,312.606,270.689,319.084,274.45z"/>
	<path fill-rule="evenodd" clip-rule="evenodd" fill="#E4E5E6" d="M334.924,265.09c0.279-0.039,0.428,0.053,0.48,0.239   c-0.255,10.037-9.55,15.396-16.56,21.12c-12.19,9.955-24.109,20.502-36.24,30.72c-16.503,13.902-32.836,27.531-48.48,40.561   c-0.284-2.366-0.657-6.896,0.24-8.88c1.075,0.605,0.193,3.167,0.48,4.56c1.465-1.095-0.785-5.904,1.68-6   c0.024,2.301-0.146,5.506,0,7.44c0.963-1.649-0.447-5.111,0.24-7.44c0.406-1.375,3.986-3.606,6-5.279   c22.795-18.945,44.802-36.877,67.439-55.921c5.802-4.88,12.306-10.193,18.48-15.359C331.038,268.881,333.483,267.16,334.924,265.09   z M322.925,278.29c-22.666,18.56-45.151,38.205-67.681,56.16c-1.515,1.208-4.39,2.364-3.84,5.04c2.462,0.281,4.095-1.819,5.76-3.12   c1.671-1.305,3.438-2.744,5.04-4.08c21.354-17.795,43.015-35.617,64.32-53.04c1.555-1.271,4.375-2.335,4.08-5.04   C327.695,273.701,325.072,276.532,322.925,278.29z"/>
	<path fill-rule="evenodd" clip-rule="evenodd" fill="#E4E5E6" d="M237.245,274.45c-2.399,2.166-6.156,4.684-8.64,6.48   c-0.59,0.427-2.594,2.597-3.36,2.64c-0.756,0.042-3.717-2.365-4.56-2.88c-3.134-1.913-5.812-3.48-8.88-5.521   c3.898-2.901,7.674-5.926,11.76-8.64C228.546,268.749,232.413,272.083,237.245,274.45z"/>
	<path fill-rule="evenodd" clip-rule="evenodd" fill="#E4E5E6" d="M212.765,277.09c-4.344,3.655-9.054,6.946-13.68,10.319   c-5.499-3.461-10.742-7.178-16.32-10.56c1.149-2.033,4.012-3.063,6.24-4.561c2.244-1.506,4.306-3.582,6.72-4.56   c0.085-0.315,0.423-0.378,0.48-0.72C202.023,270.072,207.43,273.545,212.765,277.09z"/>
	<path fill-rule="evenodd" clip-rule="evenodd" fill="#E4E5E6" d="M294.365,275.65c-2.922,3.479-6.99,5.81-10.08,9.12   c-5.343-2.497-9.77-5.911-15.12-8.4c3.386-3.175,7.559-5.562,11.04-8.64C285.14,270.155,289.629,273.026,294.365,275.65z"/>
	<path fill-rule="evenodd" clip-rule="evenodd" fill="#E4E5E6" d="M34.445,270.37c0.24,0,0.48,0,0.72,0   c0.995,1.405,0.25,4.551,0.48,6.721c1.087-0.913,0.184-3.816,0.48-5.521c2.565,1.536,0.148,6.5,1.2,9.36   c-1.016,0.444-1.767-1.207-2.88-1.44C34.445,276.45,34.445,273.41,34.445,270.37z"/>
	<path fill-rule="evenodd" clip-rule="evenodd" fill="#E4E5E6" d="M271.325,278.53c-3.32,3.08-6.816,5.983-10.32,8.88   c-5.237-2.521-9.693-5.826-14.88-8.399c3.45-3.11,7.738-5.383,11.28-8.4C262.514,272.78,266.568,276.006,271.325,278.53z"/>
	<path fill-rule="evenodd" clip-rule="evenodd" fill="#E4E5E6" d="M38.045,281.65c0.559-2.241,0.081-5.52,0.24-8.16   c3.826,2.09,7.073,5.102,10.56,7.68c24.243,17.929,48.668,36.474,72.48,55.2c1.742,0.339,2.435,1.726,3.84,2.4   c0,0.96,0,1.92,0,2.88c0.994,0.034,0.25-1.67,0.48-2.4c1.523-0.003,0.788,2.252,0.96,3.601c1.011-0.029,0.238-1.842,0.48-2.641   c2.359,1.481,0.708,6.972,1.2,10.32c-29.277-21.684-58.03-43.889-86.88-66c0-0.96,0-1.92,0-2.88c-0.87,0.17-0.331,1.749-0.48,2.64   c-0.999-0.601-0.246-2.954-0.48-4.319c-1.053,0.307-0.208,2.511-0.48,3.6c-0.599-0.681-1.57-0.99-2.16-1.68c0-2.96,0-5.92,0-8.88   C38.352,274.464,37.894,278.999,38.045,281.65z M90.845,315.73c-4.735-3.738-8.366-6.594-12.96-10.08   c-2.677-2.032-5.883-5.138-8.88-4.32c-1.332,1.161-0.285,2.813,0.24,4.08c7.088,4.431,13.504,9.697,19.92,14.641   c2.05,1.579,4.54,4.29,7.68,3.6C98.494,319.481,93.564,317.876,90.845,315.73z"/>
	<path fill-rule="evenodd" clip-rule="evenodd" fill="#E4E5E6" d="M131.885,304.45c-1.783,1.513-4.319,2.953-6.96,4.561   c-2.358,1.435-4.928,3.466-7.2,4.319c-4.389,1.65-7.628-1.326-10.56-3.6c-9.521-7.386-19.22-14.766-29.52-22.32   c-1.797-1.318-3.975-3.098-4.08-4.319c-0.532-6.182,13.702-1.604,18.72-3.36c-4.72-0.56-10.479-0.08-15.6-0.24   c2.929-2.591,6.511-4.528,9.84-6.72C101.933,283.042,116.595,294.06,131.885,304.45z M85.085,281.89   c1.921-0.158,4.478,0.317,6-0.24C88.356,281.335,87.054,281.274,85.085,281.89z M116.765,302.05   c2.251-0.869,6.786,0.545,8.64-0.721c-3.12,0-6.24,0-9.36,0C115.879,301.975,116.541,301.793,116.765,302.05z M106.205,303.25   c7.04,0,14.08,0,21.12,0C121.299,302.453,111.98,302.461,106.205,303.25z M111.245,304.93c2.414-0.307,6.062,0.622,7.68-0.48   C116.491,304.736,112.891,303.856,111.245,304.93z"/>
	<path fill-rule="evenodd" clip-rule="evenodd" d="M330.605,274.209c0.295,2.705-2.525,3.77-4.08,5.04   c-21.306,17.423-42.966,35.245-64.32,53.04c-1.603,1.336-3.369,2.775-5.04,4.08c-1.665,1.301-3.298,3.401-5.76,3.12   c-0.55-2.676,2.325-3.832,3.84-5.04c22.529-17.955,45.015-37.601,67.681-56.16C325.072,276.532,327.695,273.701,330.605,274.209z    M328.925,274.93c-0.37,0.469-1.383,0.698-1.681,0.96c-23.737,20.837-51.295,41.706-75.12,62.64   c3.856-1.733,6.868-4.812,10.08-7.439c20.998-17.172,42.164-34.808,62.88-51.841c1.58-1.299,3.771-2.274,4.561-4.319   C329.405,274.93,329.165,274.93,328.925,274.93z"/>
	<path fill-rule="evenodd" clip-rule="evenodd" fill="#E4E5E6" d="M329.645,274.93c-0.789,2.045-2.98,3.021-4.561,4.319   c-20.716,17.033-41.882,34.669-62.88,51.841c-3.212,2.627-6.224,5.706-10.08,7.439c23.825-20.934,51.383-41.803,75.12-62.64   c0.298-0.262,1.311-0.491,1.681-0.96C329.165,274.93,329.405,274.93,329.645,274.93z"/>
	<path fill-rule="evenodd" clip-rule="evenodd" fill="#E4E5E6" d="M251.405,283.09c-3.863,3.256-7.68,6.56-12,9.359   c-4.424-2.696-8.515-5.726-13.2-8.16c3.467-3.493,8.053-5.867,11.761-9.12C242.626,277.628,246.892,280.483,251.405,283.09z"/>
	<path fill-rule="evenodd" clip-rule="evenodd" fill="#E4E5E6" d="M308.044,283.81c-3.405,3.074-7.096,5.864-10.56,8.88   c-4.325-2.235-8.11-5.01-12.48-7.2c2.979-3.421,7.062-5.739,10.08-9.12C299.674,278.581,303.879,281.175,308.044,283.81z"/>
	<path fill-rule="evenodd" clip-rule="evenodd" fill="#E4E5E6" d="M227.405,285.97c-4.415,3.665-8.825,7.335-13.44,10.8   c-5.056-2.464-9.143-5.897-13.92-8.64c4.27-3.811,9.338-6.822,13.68-10.561C218.326,280.329,222.901,283.114,227.405,285.97z"/>
	<path fill-rule="evenodd" clip-rule="evenodd" fill="#E4E5E6" d="M296.285,293.169c-2.876,3.765-7.089,6.191-10.56,9.36   c-7.85-4.87-16.024-9.415-23.76-14.399c2.962-3.278,6.801-5.68,9.84-8.881C280.556,283.299,288.15,288.504,296.285,293.169z"/>
	<path fill-rule="evenodd" clip-rule="evenodd" d="M91.085,281.65c-1.522,0.558-4.079,0.082-6,0.24   C87.054,281.274,88.356,281.335,91.085,281.65z"/>
	<path fill-rule="evenodd" clip-rule="evenodd" fill="#E4E5E6" d="M285.004,303.01c-3.944,3.335-7.793,6.767-12,9.84   c-10.87-6.409-21.476-13.085-32.159-19.681c3.399-3.479,7.659-6.101,11.279-9.359C263.61,289.685,273.759,296.895,285.004,303.01z"/>
	<path fill-rule="evenodd" clip-rule="evenodd" fill="#E4E5E6" d="M242.525,295.33c-1.963,1.957-4.471,3.37-6.48,5.28   c-4.697-2.902-9.287-5.913-14.159-8.64c1.808-2.032,4.193-3.486,6.239-5.28C233.319,289.176,237.503,292.671,242.525,295.33z"/>
	<path fill-rule="evenodd" clip-rule="evenodd" fill="#E4E5E6" d="M234.845,300.85c-0.896,2.08-4.277,3.712-6.24,5.52   c-4.829-2.61-9.023-5.856-13.68-8.64c1.42-2.34,4.181-3.339,6-5.28C225.716,295.098,230.11,298.145,234.845,300.85z"/>
	<path fill-rule="evenodd" clip-rule="evenodd" fill="#E4E5E6" d="M257.165,304.209c-1.462,2.299-4.025,3.495-6,5.28   c-5.044-2.396-9.177-5.703-14.16-8.16c1.602-2.239,4.379-3.302,6.24-5.279C248.165,298.49,252.35,301.665,257.165,304.209z"/>
	<path fill-rule="evenodd" clip-rule="evenodd" fill="#E4E5E6" d="M81.965,300.13c0.279-0.039,0.427,0.053,0.48,0.239   c1.698,0.575,3.051,2.217,4.56,3.36c1.336,1.013,3.711,1.774,3.6,3.6c-3.226-0.863-6.123-4.11-8.88-6.239   C81.623,300.588,81.889,300.455,81.965,300.13z"/>
	<path fill-rule="evenodd" clip-rule="evenodd" d="M96.845,323.65c-3.14,0.69-5.63-2.021-7.68-3.6   c-6.416-4.943-12.832-10.21-19.92-14.641c-0.525-1.267-1.572-2.919-0.24-4.08c2.997-0.817,6.203,2.288,8.88,4.32   c4.594,3.486,8.225,6.342,12.96,10.08C93.564,317.876,98.494,319.481,96.845,323.65z M69.245,302.29   c0.635,3.686,4.27,4.37,6.72,6.24c3.145,3.016,6.852,5.468,10.56,7.92c1.46,1.38,3.6,3.339,5.52,4.8   c1.034,0.787,3.083,2.542,4.32,1.2c-1.336,0.245-0.433-0.784-0.72-1.2c-0.527-0.762-2.162-1.906-3.12-2.64   c-4.621-3.535-11.068-7.85-15.6-11.28c-1.78-1.347-5.785-4.444-5.52-5.279C70.654,302.099,69.643,301.888,69.245,302.29z"/>
	<path fill-rule="evenodd" clip-rule="evenodd" d="M116.045,301.33c3.12,0,6.24,0,9.36,0c-1.854,1.266-6.389-0.148-8.64,0.721   C116.541,301.793,115.879,301.975,116.045,301.33z"/>
	<path fill-rule="evenodd" clip-rule="evenodd" fill="#E4E5E6" d="M249.964,310.209c-1.877,2.283-4.508,3.812-6.72,5.761   c-4.879-2.642-9.278-5.762-13.68-8.88c1.808-2.033,4.343-3.338,6.24-5.28C240.84,304.294,245.371,307.284,249.964,310.209z"/>
	<path fill-rule="evenodd" clip-rule="evenodd" fill="#E4E5E6" d="M71.405,302.05c-0.265,0.835,3.74,3.933,5.52,5.279   c4.532,3.431,10.979,7.745,15.6,11.28c0.958,0.733,2.593,1.878,3.12,2.64c0.287,0.416-0.617,1.445,0.72,1.2   c-1.236,1.342-3.286-0.413-4.32-1.2c-1.92-1.461-4.06-3.42-5.52-4.8c-3.708-2.452-7.416-4.904-10.56-7.92   c-2.45-1.87-6.085-2.555-6.72-6.24C69.643,301.888,70.654,302.099,71.405,302.05z"/>
	<path fill-rule="evenodd" clip-rule="evenodd" d="M127.325,303.25c-7.04,0-14.08,0-21.12,0   C111.98,302.461,121.299,302.453,127.325,303.25z"/>
	<path fill-rule="evenodd" clip-rule="evenodd" d="M118.925,304.45c-1.618,1.103-5.267,0.174-7.68,0.48   C112.891,303.856,116.491,304.736,118.925,304.45z"/>
	<path fill-rule="evenodd" clip-rule="evenodd" fill="#E4E5E6" d="M272.044,313.33c-1.459,2.222-3.915,3.444-5.76,5.28   c-5.077-2.522-9.39-5.811-14.399-8.4c1.998-1.762,4.184-3.336,6.239-5.04C263.209,307.446,267.069,310.946,272.044,313.33z"/>
	<path fill-rule="evenodd" clip-rule="evenodd" fill="#E4E5E6" d="M265.084,319.33c-2.107,2.293-4.572,4.228-7.199,6   c-4.914-2.606-9.244-5.796-13.92-8.64c2.301-1.939,4.649-3.83,6.96-5.76C256.002,313.373,260.56,316.335,265.084,319.33z"/>
	<path fill-rule="evenodd" clip-rule="evenodd" d="M174.845,312.13c12.83-0.277,26.811-0.454,40.32-0.24   c1.284,0.02,1.784-0.363,2.879,0c-0.535-0.178-1.342,0.213-2.16,0.24c-10.8,0.354-18.401-0.397-28.8,0   C183.464,312.268,178.488,312.716,174.845,312.13z"/>
	<path fill-rule="evenodd" clip-rule="evenodd" d="M152.045,313.33c7.029-0.465,18.792-0.142,28.32-0.239c4.88,0,9.76,0,14.64,0   c2.4,0,4.8,0,7.2,0c1.2,0,2.4,0,3.6,0c0.64,0,1.28,0,1.92,0c-0.03,0.529-1.018,0.102-1.44,0.239c-9.68,0-19.36,0-29.04,0   c-2.62,0.125-6.683,0.24-11.76,0.24c-4.435,0-11.095,0.986-13.68-0.24C151.87,313.361,151.977,313.305,152.045,313.33z"/>
	<path fill-rule="evenodd" clip-rule="evenodd" d="M219.965,317.169c-1.367,1.306-4.427,0.721-6.96,0.721c-7.032,0-15.132,0-22.32,0   c-0.388,0.067-0.414-0.227-0.72-0.24C199.008,316.534,210.122,317.487,219.965,317.169z"/>
	<path fill-rule="evenodd" clip-rule="evenodd" d="M192.605,322.209c-19.12-0.067-34.78,0.412-54.72,0.24   c0.849-0.9,2.484-0.48,3.36-0.479C156.958,321.987,175.368,321.086,192.605,322.209z"/>
	<path fill-rule="evenodd" clip-rule="evenodd" fill="#E4E5E6" d="M128.765,341.65c0.739-0.179,0.461,0.659,1.2,0.48   c0,2.239,0,4.479,0,6.72c0.993-1.167,0.25-4.07,0.48-6c2.073,1.606,0.439,6.92,0.96,10.08c-0.993-0.527-1.915-1.126-2.64-1.92   C128.765,347.89,128.765,344.77,128.765,341.65z"/>
	<path fill-rule="evenodd" clip-rule="evenodd" fill="#E4E5E6" d="M131.885,344.05c1.084,2.035,0.186,6.054,0.48,8.88   c0.559-2.241,0.081-5.52,0.24-8.16c17.178,12.021,33.439,24.961,50.16,37.439c0.023,3.463-0.08,5.718,0,8.881   c-4.61-1.567-8.212-5.202-12-8.16c-11.376-8.885-23.405-17.599-35.04-26.4c0-1.04,0-2.08,0-3.12   c-1.294-0.095,0.335,2.735-0.96,2.641c-0.675-1.005,0.206-3.566-0.48-4.561c-0.554,0.727-0.084,2.476-0.24,3.601   C130.412,354.323,132.376,347.958,131.885,344.05z"/>
	<path fill-rule="evenodd" clip-rule="evenodd" fill="#E4E5E6" d="M233.165,350.05c-0.172,2.071,1.009,5.337,0.24,7.92   c-0.536,1.802-5.118,4.731-7.2,6.479c-2.726,2.29-5.045,4.485-7.2,6.24c-8.164,6.649-14.874,12.597-22.8,18.72   c0-2.96,0-5.92,0-8.88c12.371-9.709,23.998-20.162,36.48-29.76c0,2.16,0,4.32,0,6.479   C233.834,355.747,232.74,351.589,233.165,350.05z"/>
	<path fill-rule="evenodd" clip-rule="evenodd" fill="#E4E5E6" d="M195.245,381.25c0.593,3.474,2.314,9.867-2.4,10.32   c0.135-3.14-0.09-6.059,0.24-8.64c0.688,0.032-0.208,1.647,0.48,1.68c0.729-0.391-0.42-2.66,0.96-2.4   c0.157,1.523-0.316,3.677,0.24,4.801C195.43,385.595,194.6,382.685,195.245,381.25z"/>
	<path fill-rule="evenodd" clip-rule="evenodd" fill="#E4E5E6" d="M183.725,382.93c1.211,1.27-0.1,5.061,0.72,6.72   c0.558-1.603,0.082-4.238,0.24-6.24c0.756-0.115,0.543,0.737,1.44,0.48c-0.108,2.365,0.066,5.407,0,8.399   c-1.237,0.117-2.012-0.229-2.64-0.72C183.803,387.939,183.622,386.66,183.725,382.93z"/>
	<path fill-rule="evenodd" clip-rule="evenodd" fill="#E4E5E6" d="M191.645,383.65c0.792,2.693-0.013,6.24,0.48,8.16   c-1.217,1.381-4.034,1.259-5.76,0.479c0.308-2.571-0.624-6.384,0.48-8.159c1.024,0.095,0.229,2.011,0.48,2.88   c1.011-0.029,0.238-1.842,0.48-2.641c0.56,0,1.12,0,1.68,0c0.159,2.162-0.318,4.958,0.24,6.721c0.559-1.842,0.082-4.719,0.24-6.96   C190.394,383.838,191.361,384.086,191.645,383.65z"/>
	<path fill-rule="evenodd" clip-rule="evenodd" fill="#E4E5E6" d="M328.445,268.69c-1.229-2.104-3.811-2.549-5.76-3.6   c-13.484-7.27-27.345-15.537-41.04-23.04c-7.891-4.323-15.894-8.562-23.76-12.961c-39.057-21.838-78.768-43.167-118.081-64.799   c2.974-1.954,5.668-4.02,11.04-3.36c2.874,0.353,5.812,2.181,8.64,3.6c7.473,3.751,16.781,8.99,23.52,12.48   c-1.059,1.661-3.261,2.179-4.32,3.84c17.896,10.216,36.076,20.02,54.239,30c18.093,9.94,36.552,19.395,54.721,29.28   c2.01-0.871,3.193-2.566,4.56-4.08c11.091,6.05,21.799,11.961,33.601,18.239c3.794,2.019,12.293,5.663,8.399,10.801   c-0.906,1.195-3.017,2.477-4.56,3.84c-4.119,3.637-9.386,7.583-13.44,11.04c-35.447,30.224-71.341,58.646-107.04,88.8   c-2.655,2.242-5.609,4.743-8.88,7.439c-2.791,2.302-6.981,6.262-9.36,6.96c-4.46,1.311-6.995-1.446-10.08-3.6   c-4.964-3.465-10.565-8.238-15.12-11.52c-7.211-5.196-13.846-10.972-20.16-15.36c-14.277-9.926-27.539-20.167-40.56-30.24   c-27.146-20.999-53.936-40.694-80.64-60.96c25.84,18.182,52.323,39.158,80.16,59.521c13.432,9.825,26.289,20.279,40.08,30   c6.612,4.66,13.206,9.984,20.16,14.88c4.758,3.349,9.861,7.843,14.88,11.52c2.761,2.023,5.914,5.438,11.28,4.32   c2.588-0.539,6.052-4.446,8.4-6.48c7.99-6.923,16.713-13.42,24.48-19.92c11.045-9.242,21.389-18.053,32.159-26.88   c0.898-0.709,1.241-0.012,1.921-0.24c-1.155-1.963-3.473-2.927-5.28-4.079c-20.476-13.057-41.243-26.641-61.68-40.08   c-7.424-4.883-14.822-9.893-22.32-14.641c-28.29-17.912-56.386-36.005-84.48-54.479c-1.647-1.083-3.764-2.37-4.8-3.841   c7.933,4.23,15.047,9.623,22.56,14.4c7.439,4.73,14.901,9.522,22.08,14.641c45.259,28.182,88.884,57.993,133.92,86.399   c23.276-18.724,46.046-37.953,68.88-57.12c-45.211-26.07-91.704-50.854-137.28-76.56c12.416,6.278,24.699,13.334,36.96,20.16   c16.908,9.412,34.031,18.532,51.12,27.84C294.531,250.09,311.117,260.161,328.445,268.69z M148.685,164.77   c0.389,0.36,1.771,0.36,2.16,0c0.402-0.398,0.191-1.409,0.24-2.16C149.712,161.215,147.457,162.9,148.685,164.77z M161.885,172.69   c0.398,0.402,1.409,0.191,2.16,0.24c0.521-0.572,0.633-1.82,0.24-2.64C161.934,169.684,160.836,171.266,161.885,172.69z    M304.205,251.169c0.139,4.668,9.65,4.142,9.12-0.479c-0.27-2.355-3.513-3.286-6.479-2.4   C305.184,248.786,304.169,249.981,304.205,251.169z M327.485,261.25c-0.118,1.078,0.122,1.799,0.24,2.641   c1.177,0.889,3.686,1.005,4.56-0.24C333.806,260.085,329.042,259.038,327.485,261.25z"/>
	<path fill-rule="evenodd" clip-rule="evenodd" d="M336.125,268.209c-1.637,7.224-5.531,9.613-11.04,14.16   c-20.619,17.021-39.724,34.249-60.479,51.36c-17.529,14.451-34.412,29.095-52.32,43.68c-4.281,3.487-8.543,7.409-12.96,11.04   c-2.332,1.917-5.284,4.819-8.64,5.28c-4.808,0.66-7.729-1.517-11.28-2.64c-28.57-22.827-59.058-44.506-89.04-67.921   c-14.38-11.229-29.542-22.566-44.64-33.84c-7.114-5.312-14.438-11.282-22.32-17.04c-1.789-1.307-3.586-2.784-5.52-4.319   c-7.963-6.321-19.196-10.428-17.76-25.44c0.833-3.089,5.084-4.695,9.36-6.96c21.036-11.142,41.919-23.514,62.4-34.8   c21.714-11.966,41.414-22.688,62.64-34.8c1.463-0.834,3.052-1.528,4.56-2.4c3.707-2.143,9.892-5.639,15.6-2.4   c20.364-52.757,39.84-106.397,60.24-159.12c6.305-4.937,15.11,0.295,21.6,2.64c12.312,4.447,25.4,8.604,37.68,12.72   c15.962,5.349,32.537,12.016,49.44,17.52c25.2,8.207,49.339,17.392,74.88,25.92c3.633,1.213,8.004,2.998,12.24,4.56   c4.35,1.604,10.105,2.682,12,4.56c1.202,1.192,1.858,3.193,1.68,6.24c-0.234,4.004-2.538,8.732-4.32,12.96   c-18.558,44.038-38.39,88.249-56.88,132.48c-5.07,12.131-10.389,23.964-15.6,36c-1.668,3.853-3.175,7.88-6.24,10.8   C339.886,269.261,337.285,269.517,336.125,268.209z M227.645,3.25c6.32,2.298,13.172,4.752,18.96,6.72   c26.166,8.894,50.615,17.523,76.32,26.4c29.562,10.208,59.365,20.382,88.8,30.96c4.501,1.618,10.652,3.396,11.04,6.96   c0.685,6.306-2.952,11.018-5.04,15.84c-22.339,51.592-44.773,103.386-66.721,154.32c-3.393,7.875-6.079,16.139-10.8,23.28   c4.954-3.492,6.027-9.945,8.641-15.84c1.736-3.917,3.587-7.837,5.279-11.76c22.245-51.544,44.277-102.623,66.24-154.081   c1.679-3.934,4.188-10.217,2.88-13.68c-0.959-2.54-7.326-4.529-11.04-5.76c-29.702-9.848-58.369-20.275-87.359-30.48   c-29.359-10.335-58.466-19.945-87.36-30.24c-5.514-1.964-10.708-4.768-16.8-4.8C223.169,1.299,225.095,2.322,227.645,3.25z    M341.645,263.89c1.106-1.869,1.903-4.194,2.64-6c1.62-3.97,3.635-8.162,5.28-12c10.344-24.121,20.935-49.099,31.2-72.96   c6.71-15.599,14.312-32.162,21.12-48.24c5.157-12.181,10.113-24.039,15.6-36.24c1.749-3.89,4.854-9.116,4.56-12.96   c-0.354-4.612-7.279-6.08-12.479-7.92c-12.461-4.409-25.651-8.934-37.44-13.2c-25.443-9.207-50.778-17.215-75.12-26.16   c-20.74-7.622-41.77-14.066-62.88-21.6c-4.286-1.53-8.727-4.017-12.479-4.56c-7.674-1.11-8.288,6.511-10.32,11.76   c-14.095,36.409-27.571,72.781-40.8,108.72c-4.29,11.653-9.106,23.159-13.2,34.32c-0.551,1.502-1.353,3.139-1.2,4.8   c0.906,0.437,2.376-2.639,4.56-0.72c0.676,1.037-0.159,2.893,0,3.36c8.426,3.734,15.754,8.565,24,12.48   c-0.375,1.035-0.147,2.173,0,3.36c4.399,0.959,4.7-2.18,6-4.32c32.083,16.888,66.307,35.42,98.88,52.8   c3.806,2.03,9.256,3.513,5.04,7.68c12.485,7.035,25.401,13.639,37.68,20.88c1.444-0.416,2.733-1.214,4.08-0.479   c2.336,1.273,0.307,3.299,0,4.8c-0.476,2.334-0.217,4.753,0.72,6C339.502,267.978,340.797,265.321,341.645,263.89z M277.565,240.85   c-17.089-9.308-34.212-18.428-51.12-27.84c-12.261-6.826-24.544-13.882-36.96-20.16c45.576,25.705,92.069,50.489,137.28,76.56   c-22.834,19.167-45.604,38.396-68.88,57.12c-45.037-28.406-88.661-58.218-133.92-86.399c-7.179-5.118-14.641-9.91-22.08-14.641   c-7.513-4.777-14.627-10.17-22.56-14.4c1.037,1.471,3.153,2.758,4.8,3.841c28.094,18.475,56.19,36.567,84.48,54.479   c7.498,4.748,14.896,9.758,22.32,14.641c20.437,13.439,41.205,27.023,61.68,40.08c1.808,1.152,4.125,2.116,5.28,4.079   c-0.68,0.229-1.022-0.469-1.921,0.24c-10.771,8.827-21.114,17.638-32.159,26.88c-7.768,6.5-16.49,12.997-24.48,19.92   c-2.348,2.034-5.812,5.941-8.4,6.48c-5.366,1.118-8.519-2.297-11.28-4.32c-5.02-3.677-10.123-8.171-14.88-11.52   c-6.954-4.896-13.547-10.22-20.16-14.88c-13.792-9.721-26.648-20.175-40.08-30c-27.837-20.362-54.32-41.339-80.16-59.521   c26.704,20.266,53.494,39.961,80.64,60.96c13.021,10.073,26.283,20.314,40.56,30.24c6.313,4.389,12.948,10.164,20.16,15.36   c4.555,3.281,10.156,8.055,15.12,11.52c3.085,2.153,5.62,4.91,10.08,3.6c2.379-0.698,6.569-4.658,9.36-6.96   c3.271-2.696,6.226-5.197,8.88-7.439c35.699-30.154,71.592-58.576,107.04-88.8c4.055-3.457,9.321-7.403,13.44-11.04   c1.543-1.363,3.653-2.645,4.56-3.84c3.894-5.138-4.605-8.782-8.399-10.801c-11.802-6.278-22.51-12.189-33.601-18.239   c-1.366,1.514-2.55,3.209-4.56,4.08c-18.169-9.886-36.628-19.34-54.721-29.28c-18.163-9.98-36.344-19.784-54.239-30   c1.059-1.661,3.261-2.18,4.32-3.84c-6.739-3.49-16.047-8.729-23.52-12.48c-2.828-1.419-5.767-3.248-8.64-3.6   c-5.372-0.659-8.066,1.406-11.04,3.36c39.313,21.632,79.024,42.961,118.081,64.799c7.866,4.399,15.869,8.638,23.76,12.961   c13.695,7.503,27.556,15.771,41.04,23.04c1.949,1.051,4.53,1.495,5.76,3.6C311.117,260.161,294.531,250.09,277.565,240.85z    M157.805,162.85c0.955-0.155,0.965,0.635,1.92,0.479c0.439-0.691,0.39-0.75,0.24-1.68   C159.055,161.243,157.349,161.195,157.805,162.85z M138.125,165.73c-1.531,1.35-3.859,1.9-5.28,3.36   c4.113,2.447,8.365,4.755,12.72,6.96c1.544-1.416,3.757-2.163,5.04-3.84C146.426,170.069,142.365,167.81,138.125,165.73z    M131.405,169.57c-3.107,2.333-7.248,3.632-10.32,6c1.542,1.157,3.32,1.823,5.28,2.88c1.588,0.856,3.619,2.945,5.28,2.88   c1.417-0.055,3.674-2.056,5.04-2.88c1.77-1.068,3.117-2.271,5.04-2.88C138.72,173.134,135.075,171.34,131.405,169.57z    M151.325,172.93c-1.272,1.607-3.555,2.206-4.8,3.84c3.996,1.523,6.877,4.162,10.8,5.76c1.499-1.381,3.444-2.316,4.8-3.84   C158.205,177.09,155.202,174.573,151.325,172.93z M142.685,175.81c-3.233,2.287-7.246,3.794-10.08,6.48   c3.497,1.703,6.508,3.891,10.08,5.52c3.6-1.92,7.115-3.925,10.8-5.76C150.603,179.251,146.386,177.789,142.685,175.81z    M119.405,176.05c-3.197,2.323-7.157,3.883-10.32,6.24c5.319,3.001,10.338,6.302,15.84,9.12c3.743-1.857,7.047-4.152,10.8-6   C130.699,181.876,125.178,178.837,119.405,176.05z M190.925,177.01c-0.23,1.53-1.136,2.384-1.68,3.6   c33.971,18.271,68.082,36.396,102,54.72c1.102-0.385,1.547,0.066,2.88,0c0.417-0.783,1.175-1.225,0.96-2.64   C260.61,213.885,225.685,195.53,190.925,177.01z M180.125,181.09c0.714,0.086,1.217,0.382,1.68,0.72   c0.246-0.795,0.714-1.367,1.68-1.44c-0.148-0.651,0.305-1.904-0.24-2.16C182.377,179.342,180.744,179.708,180.125,181.09z    M162.845,179.41c-1.225,1.575-3.457,2.143-4.56,3.84c3.323,1.957,6.716,3.844,10.32,5.52c1.519-1.361,3.74-2.02,4.8-3.84   C169.737,183.238,166.672,180.942,162.845,179.41z M188.045,180.85c-2.436,0.554-3.299,0.034-5.28,0.72   c1.423,1.986,3.928,2.986,6,4.08c32.953,17.401,65.277,35.877,98.161,53.04c-0.185-1.145,0.339-1.581,0.96-1.92   c1.065-0.134,2.817,0.418,2.88-0.72C256.557,217.618,222.028,199.506,188.045,180.85z M143.885,188.05   c2.938,2.663,7.197,4.003,10.32,6.48c3.432-2.248,7.052-4.309,10.08-6.96c-3.412-1.708-6.772-3.468-9.84-5.52   C151.416,184.541,147.607,186.252,143.885,188.05z M108.125,182.77c-3.788,1.973-7.6,3.92-11.04,6.24   c5.761,3.999,12.302,7.218,18,11.28c3.784-2.295,7.76-4.399,11.28-6.959C119.998,190.097,114.281,186.213,108.125,182.77z    M176.045,185.17c-0.751-0.139-1.673-1.353-2.16-0.96C174.546,184.439,175.48,185.641,176.045,185.17z M136.685,185.65   c-3.287,2.474-7.59,3.931-10.56,6.72c3.771,1.51,6.393,4.167,10.32,5.521c3.445-2.395,7.923-3.757,11.04-6.48   C143.652,189.723,140.263,187.592,136.685,185.65z M180.125,188.77c-1.713-0.912-4.216-2.919-5.52-2.88   c-1.944,0.059-3.26,2.61-5.04,3.6c3.666,1.934,6.94,4.26,10.8,6c1.598-1.202,3.024-2.576,4.8-3.6   C184.079,190.778,182.169,189.858,180.125,188.77z M171.005,191.41c-1.327-0.772-4.855-3.539-6.24-2.88   c-3.196,1.521-6.436,4.801-9.36,6.72c3.553,1.888,6.863,4.018,10.56,5.761c3.339-2.261,7.065-4.136,10.08-6.72   C174.399,193.346,172.822,192.468,171.005,191.41z M95.645,189.49c-3.809,2.192-7.523,4.478-11.52,6.48   c4.837,3.633,12.011,7.906,18,11.52c1.585,0.956,4.783,3.637,6.24,3.6c0.674-0.017,2.034-1.114,2.88-1.68   c3.041-2.03,5.59-3.667,8.16-5.52C111.521,199.053,103.775,194.08,95.645,189.49z M189.245,192.37   c-1.435-0.647-3.237-2.199-4.56-2.16C186.218,190.759,187.961,192.37,189.245,192.37z M186.125,192.13   c-1.484,1.476-3.511,2.409-4.8,4.08c3.722,1.959,7.368,3.993,11.04,6c1.693-1.267,3.687-2.233,5.04-3.84   C193.607,196.328,190.031,194.064,186.125,192.13z M148.445,192.37c-3.647,2.272-8.046,3.794-11.28,6.48   c3.945,2.135,7.775,4.385,11.76,6.479c3.497-2.263,7.205-4.315,10.56-6.72C155.701,196.633,152.522,194.052,148.445,192.37z    M127.085,194.05c-3.481,2.279-6.993,4.527-10.8,6.48c2.798,2.562,6.694,4.025,9.84,6.24c4.222-1.858,7.95-4.21,11.52-6.72   C133.99,198.185,130.997,195.658,127.085,194.05z M176.765,195.01c-3.162,2.198-6.232,4.487-9.84,6.239   c3.292,2.628,7.204,4.637,11.04,6.721c3.646-2.195,7.281-4.399,10.8-6.721C184.628,199.306,181.104,196.751,176.765,195.01z    M82.925,196.69c-4.141,2.499-8.736,4.544-12.72,7.2c3.194,0.712,6.518,5.793,9.84,5.76c1.935-0.02,4.65-2.325,6.48-3.36   c2.268-1.282,4.473-2.225,6-3.84C89.025,200.83,86.282,198.453,82.925,196.69z M160.445,199.089   c-3.292,2.549-7.357,4.323-10.56,6.961c3.327,1.713,6.094,3.985,9.6,5.52c3.573-2.347,7.676-4.164,11.04-6.72   C167.229,202.865,163.72,201.095,160.445,199.089z M198.125,199.089c-1.329,1.553-3.393,2.367-4.8,3.841   c4.307,2.093,7.986,4.814,12.48,6.72c1.5-1.38,3.483-2.277,4.56-4.08C206.252,203.443,202.579,200.875,198.125,199.089z    M138.605,200.77c-3.616,2.304-7.526,4.314-11.04,6.72c3.665,2.096,7.011,4.509,10.8,6.48c3.772-2.468,8.45-4.03,12-6.721   C146.377,205.157,142.637,202.817,138.605,200.77z M189.485,201.73c-3.144,2.696-7.337,4.343-10.56,6.96   c4.07,2.09,7.727,4.593,12,6.479c3.577-2.183,7.333-4.187,10.56-6.72C197.362,206.333,193.523,203.932,189.485,201.73z    M81.005,210.85c3.763,1.757,6.406,4.634,10.32,6.239c4.05-2.669,8.784-4.655,12.72-7.439c-3.708-2.053-7.158-4.362-10.8-6.48   C89.717,206.282,84.476,207.681,81.005,210.85z M76.685,209.65c0.421,0.638,1.414,1.648,2.16,1.2   c-3.134-2.786-6.796-5.044-10.8-6.96C70.304,206.431,73.521,208.014,76.685,209.65z M120.125,204.61   c-3.4,2.6-7.665,4.336-10.56,7.44c3.284,2.155,6.448,4.432,10.08,6.239c3.652-2.747,8.167-4.633,11.52-7.68   C127.274,208.821,124.278,206.136,120.125,204.61z M67.085,204.85c-0.16,0-0.32,0-0.48,0c-20.13,10.99-39.731,22.509-60.24,33.12   c-0.878,1.854-3.185,2.226-3.36,4.319c-0.221,2.648,2.975,4.155,5.28,5.761c5.249,3.653,9.952,7.231,14.64,10.8   c19.175,14.593,40.371,30.404,58.08,42.96c-1.002-4.902,3.906-1.088,6.24,0.72c2.925,2.266,7.206,5.554,1.92,6   c19.144,14.28,39.757,29.824,59.521,44.4c9.888,7.292,20.007,14.918,29.76,22.319c3.51,2.664,7.896,7.071,13.44,5.28   c21.328-17.632,42.239-35.681,64.08-52.8C193.368,286.415,129.995,245.855,67.085,204.85z M171.485,205.57   c-3.68,2.081-7.054,4.467-11.04,6.24c3.414,3.146,8.095,5.024,12.24,7.439c3.183-2.657,7.181-4.498,10.08-7.439   C178.757,209.977,175.466,207.428,171.485,205.57z M211.565,206.29c-1.598,1.362-3.448,2.473-4.8,4.08   c1.412,0.876,3.324,1.878,5.52,3.12c1.729,0.978,4.327,3.048,5.76,2.88c1.832-0.214,2.938-2.985,4.561-4.08   C218.842,210.373,215.313,208.221,211.565,206.29z M151.085,207.97c-3.484,2.676-8.29,4.03-11.76,6.72   c3.915,2.245,7.815,4.505,11.76,6.72c3.438-2.481,7.492-4.348,10.56-7.2C158.089,212.166,154.836,209.819,151.085,207.97z    M202.445,209.169c-3.388,2.453-7.531,4.149-10.56,6.961c1.854,1.054,3.596,1.881,5.76,3.119c1.566,0.896,4.033,3.238,5.76,3.12   c1.603-0.109,3.867-2.442,5.28-3.359c1.934-1.257,3.716-2.108,5.04-3.601C210.041,213.253,206.289,211.167,202.445,209.169z    M104.765,210.37c-4.028,2.611-8.502,4.777-12.72,7.2c3.107,2.893,7.121,4.879,10.8,7.2c3.903-2.817,8.349-5.092,12-8.16   C111.544,214.471,108.37,212.205,104.765,210.37z M131.885,211.57c-3.579,2.661-7.948,4.532-11.28,7.44   c1.639,1.141,3.301,1.951,5.28,3.12c1.343,0.793,3.737,3.146,5.28,3.119c1.009-0.017,2.507-1.675,3.6-2.399   c2.907-1.928,5.795-3.047,7.92-5.28C138.722,215.933,135.942,213.113,131.885,211.57z M189.725,215.65   c-1.13-0.655-5.456-3.35-6.24-2.88c-3.306,1.98-6.828,4.907-10.08,7.2c3.901,2.259,7.67,4.65,11.76,6.72   c2.992-2.688,6.54-4.82,9.6-7.44C193.533,217.822,191.712,216.802,189.725,215.65z M223.325,213.01   c-1.284,1.595-3.265,2.495-4.32,4.319c4.81,2.392,9.24,5.16,13.92,7.681c1.175-1.786,3.338-2.583,4.561-4.32   C232.699,218.196,228.428,215.186,223.325,213.01z M162.605,214.93c-3.255,2.665-7.396,4.443-10.56,7.2   c3.565,2.274,7.243,4.437,10.8,6.72c3.812-2.349,7.958-4.362,11.28-7.2C170.562,219.132,166.787,216.828,162.605,214.93z    M214.685,216.13c-1.729,1.257-3.572,2.561-5.52,3.84c-1.664,1.092-3.875,1.796-4.56,3.359c4.04,2.2,7.801,4.679,12,6.721   c3.521-2.4,7.423-4.417,10.319-7.44C222.702,220.593,219.06,217.995,214.685,216.13z M115.565,217.33   c-3.815,2.905-8.191,5.249-12,8.16c4.725,2.635,8.686,6.034,13.44,8.641c4.348-2.772,9.188-5.053,12.96-8.4   C125.114,222.981,120.65,219.844,115.565,217.33z M143.885,218.29c-3.992,2.408-7.741,5.06-11.76,7.44   c3.459,2.94,7.69,5.109,11.76,7.439c3.938-2.381,7.913-4.727,11.52-7.439C152.17,222.645,147.604,220.89,143.885,218.29z    M202.445,223.089c-1.222-0.678-6.178-3.937-6.96-3.359c-3.071,2.268-6.509,4.997-9.36,7.68c1.921,1.084,3.804,2.035,6,3.36   c1.653,0.997,4.164,3.485,6,3.36c1.611-0.11,3.901-2.633,5.28-3.601c1.954-1.371,3.718-2.237,5.04-3.84   C206.584,225.542,204.699,224.341,202.445,223.089z M238.205,221.41c-1.348,1.532-3.26,2.5-4.56,4.08   c3.896,2.264,8.01,4.31,11.76,6.72c1.964-1.236,3.922-2.478,5.28-4.319C246.391,225.863,242.79,223.145,238.205,221.41z    M175.325,222.37c-3.688,2.312-7.543,4.457-11.04,6.96c3.668,2.493,7.494,4.827,11.52,6.96c3.089-2.875,8.257-4.988,10.32-7.92   C182.294,226.601,179.198,224.097,175.325,222.37z M228.125,223.57c-3.651,2.268-7.129,4.711-10.56,7.2   c4.379,2.341,8.467,4.974,12.96,7.2c3.418-2.502,7.104-4.735,10.32-7.44C236.452,228.363,232.53,225.725,228.125,223.57z    M156.605,226.209c-3.981,2.499-7.878,5.082-11.76,7.681c4.266,1.974,7.49,4.99,11.76,6.96c3.872-2.688,8.138-4.981,12-7.681   C164.581,230.874,160.725,228.41,156.605,226.209z M131.165,226.69c-4.396,2.644-9.049,5.03-12.96,8.16   c20.929,13.79,42.166,27.274,63.12,41.04c4.906-3.015,9.785-6.056,14.16-9.601C174.115,253.021,152.851,239.643,131.165,226.69z    M209.405,227.41c-3.269,2.731-7.287,4.713-10.32,7.68c4.215,2.185,7.935,4.865,12.24,6.961c3.604-2.637,7.532-4.948,11.04-7.681   C217.756,232.338,214.061,229.394,209.405,227.41z M258.845,232.45c-2.079-1.172-5.24-3.716-6.96-3.6   c-2.042,0.137-3.447,2.968-5.28,4.08c4.914,2.286,9.305,5.095,14.16,7.439c1.782-1.258,3.385-2.694,4.8-4.319   C263.795,235.11,261.45,233.919,258.845,232.45z M187.325,229.33c-3.562,2.598-7.535,4.785-10.8,7.681   c4.129,2.271,7.876,4.923,12.24,6.96c3.836-2.244,7.637-4.523,11.04-7.2C195.782,234.153,191.754,231.541,187.325,229.33z    M241.565,231.25c-3.109,2.731-7.119,4.561-10.08,7.44c4.157,2.482,8.312,4.968,12.72,7.2c3.428-2.652,7.476-4.686,10.561-7.681   C250.188,236.067,246.295,233.24,241.565,231.25z M169.325,233.89c-3.904,2.656-8.23,4.889-12,7.68   c3.866,2.614,8.187,4.773,12,7.44c4.232-2.488,8.302-5.139,12.24-7.921C177.39,238.785,173.759,235.935,169.325,233.89z    M222.845,235.089c-3.217,2.863-7.393,4.769-10.561,7.681c4.373,2.587,8.797,5.123,13.2,7.68c3.334-2.826,7.126-5.194,10.32-8.16   C231.349,240.025,227.635,237.019,222.845,235.089z M266.285,236.77c-1.347,1.613-3.219,2.701-4.56,4.319   c1.728,0.874,3.781,2.216,6.24,3.601c1.807,1.018,5.024,3.445,6.479,3.36c0.875-0.052,1.97-1.27,2.88-1.921   c0.967-0.691,1.998-1.276,2.641-2.159C275.233,241.742,271.135,238.879,266.285,236.77z M201.005,237.49   c-3.685,2.476-7.966,4.354-11.04,7.44c4.362,2.518,8.316,5.443,12.96,7.68c3.723-2.597,7.632-5.008,11.28-7.68   C209.611,242.644,205.805,239.57,201.005,237.49z M288.365,238.69c0.299-0.501,0.941-0.658,1.2-1.2   C288.42,237.131,287.275,238.277,288.365,238.69z M255.725,238.93c-3.287,2.793-7.42,4.739-10.561,7.68   c4.423,2.378,8.531,5.069,13.2,7.2c3.338-2.742,7.303-4.857,10.32-7.92C264.08,243.855,260.32,240.975,255.725,238.93z    M1.565,241.33c-0.486,1.364,1.065,3.723,0.72,2.641c0.054-0.454-0.271-0.53-0.24-0.96c0-0.561,0-1.12,0-1.681   c0.374,0.02,0.167-0.697,0-0.24C1.992,241.277,1.844,241.369,1.565,241.33z M182.525,241.57c-3.742,2.979-8.429,5.011-12,8.16   c4.318,2.481,8.153,5.446,12.72,7.68c3.532-3.107,8.145-5.136,11.28-8.64C190.518,246.376,186.56,243.935,182.525,241.57z    M236.765,243.01c-3.48,2.52-6.771,5.229-10.32,7.68c3.668,2.892,7.905,5.215,12.24,7.44c3.668-2.492,7.305-5.016,10.56-7.921   C245.337,247.557,241.037,245.298,236.765,243.01z M2.525,251.89c-0.191-2.689,0.741-6.502-1.44-7.2   C1.226,247.429,1.219,250.316,2.525,251.89z M280.685,244.69c-1.409,1.631-3.773,2.307-5.04,4.08   c4.748,2.611,9.127,5.593,14.399,7.68c1.431-1.609,3.508-2.572,4.801-4.32C289.875,249.899,285.755,246.82,280.685,244.69z    M214.685,245.41c-3.022,3.219-7.59,4.891-10.8,7.92c4.215,2.506,8.198,5.242,12.72,7.44c3.648-2.672,7.388-5.252,10.8-8.16   C222.992,250.382,219.143,247.591,214.685,245.41z M4.205,255.25c0-2.64,0-5.279,0-7.92c-0.85,0.13-0.59-0.85-1.44-0.72   C3.093,249.641,1.798,254.296,4.205,255.25z M269.405,246.61c-3.169,2.671-6.555,5.125-10.08,7.44   c3.84,3.359,8.938,5.461,13.44,8.159c3.812-2.267,6.915-5.244,10.56-7.68C279.142,251.433,274.13,249.165,269.405,246.61z    M4.685,256.209c9.158,8.123,19.25,15.311,29.28,22.561c-0.511-3.009,1.1-8.14-0.96-9.601c-0.701,0.259,0.221,2.142-0.48,2.4   c-0.054-1.467,0.38-3.42-0.96-3.6c-0.23,0.729,0.514,2.434-0.48,2.399c0-0.96,0-1.92,0-2.88   c-9.182-6.099-17.153-13.407-26.4-19.439C4.685,250.77,4.685,253.49,4.685,256.209z M195.485,249.49   c-3.605,3.115-7.909,5.531-11.52,8.641c4.51,2.289,8.361,5.238,12.72,7.68c3.889-2.911,8.3-5.3,12-8.4   C204.349,254.706,199.928,252.086,195.485,249.49z M250.205,250.69c-3.279,3.04-7.381,5.259-10.56,8.4   c4.917,2.282,8.909,5.49,13.92,7.68c3.701-2.459,7.019-5.302,10.8-7.68C260.34,255.595,255.106,253.308,250.205,250.69z    M15.245,254.05c-0.816-0.153-1.636-1.552-2.16-1.2C13.739,253.074,15.645,255.077,15.245,254.05z M290.765,256.69   c3.943,3.496,9.19,5.688,13.92,8.4c1.696-1.264,3.009-2.911,4.8-4.08c-4.044-3.316-9.332-5.389-13.92-8.16   C294.039,254.204,292.631,255.677,290.765,256.69z M228.125,253.33c-3.295,3.024-7.596,5.044-10.56,8.4   c4.589,2.371,8.686,5.234,13.2,7.68c3.72-2.6,7.244-5.396,10.56-8.399C236.854,258.52,232.776,255.639,228.125,253.33z    M284.285,254.77c-3.27,2.891-7.166,5.154-10.319,8.16c5.02,2.659,9.492,5.867,14.88,8.16c3.239-2.761,6.727-5.273,9.6-8.4   C293.707,260.069,289.117,257.297,284.285,254.77z M21.245,259.09c-0.356-0.771-1.744-1.767-2.16-1.681   C19.841,257.934,20.381,258.673,21.245,259.09z M333.965,257.65c-0.261,0.828,1.233,1.961,2.159,2.4   c0.601-0.73,0.204-0.966,0.24-2.16C335.75,257.641,334.71,257.025,333.965,257.65z M209.645,257.89   c-3.529,3.19-8.227,5.214-11.76,8.399c3.43,2.731,8.577,5.823,13.2,8.16c3.672-3.048,8.164-5.275,11.28-8.88   C218.215,262.919,213.799,260.536,209.645,257.89z M254.525,267.49c4.631,2.729,9.129,5.591,13.92,8.16   c3.536-3.024,7.613-5.507,11.04-8.64c-4.805-2.476-9.479-5.081-13.92-7.92C261.979,261.984,257.978,264.463,254.525,267.49z    M24.125,261.01c-0.513-0.448-1.054-0.867-1.68-1.2C22.634,260.432,23.772,261.347,24.125,261.01z M310.205,261.25   c-1.252,1.788-3.36,2.72-4.56,4.561c5.021,2.419,9.28,5.6,14.399,7.92c1.853-1.429,3.989-2.571,5.28-4.561   C319.923,266.891,315.635,263.5,310.205,261.25z M242.525,261.73c-3.669,2.651-7.321,5.318-10.56,8.4   c4.237,2.962,8.854,5.545,13.439,8.159c3.554-3.006,7.779-5.34,11.28-8.399C251.964,267.17,247.285,264.41,242.525,261.73z    M299.405,263.41c-3.163,2.917-6.865,5.295-9.6,8.641c6.619,3.54,12.683,7.637,19.439,11.04c3.189-2.971,6.69-5.631,9.84-8.641   C312.606,270.689,306.103,266.952,299.405,263.41z M328.685,270.85c-6.175,5.166-12.679,10.479-18.48,15.359   c-22.638,19.044-44.645,36.976-67.439,55.921c-2.014,1.673-5.594,3.904-6,5.279c-0.688,2.329,0.723,5.791-0.24,7.44   c-0.146-1.935,0.024-5.14,0-7.44c-2.465,0.096-0.215,4.905-1.68,6c-0.287-1.393,0.595-3.954-0.48-4.56   c-0.897,1.983-0.524,6.514-0.24,8.88c15.645-13.029,31.978-26.658,48.48-40.561c12.131-10.218,24.05-20.765,36.24-30.72   c7.01-5.725,16.305-11.083,16.56-21.12c-0.053-0.187-0.201-0.278-0.48-0.239C333.483,267.16,331.038,268.881,328.685,270.85z    M223.565,266.53c-4.086,2.714-7.862,5.738-11.76,8.64c3.069,2.04,5.747,3.607,8.88,5.521c0.843,0.515,3.804,2.922,4.56,2.88   c0.767-0.043,2.771-2.213,3.36-2.64c2.483-1.797,6.24-4.314,8.64-6.48C232.413,272.083,228.546,268.749,223.565,266.53z    M196.205,267.01c-0.057,0.342-0.395,0.404-0.48,0.72c-2.414,0.978-4.476,3.054-6.72,4.56c-2.229,1.497-5.091,2.527-6.24,4.561   c5.579,3.382,10.822,7.099,16.32,10.56c4.626-3.373,9.335-6.664,13.68-10.319C207.43,273.545,202.023,270.072,196.205,267.01z    M280.205,267.73c-3.481,3.078-7.654,5.465-11.04,8.64c5.351,2.489,9.777,5.903,15.12,8.4c3.09-3.311,7.158-5.642,10.08-9.12   C289.629,273.026,285.14,270.155,280.205,267.73z M34.445,279.49c1.113,0.233,1.864,1.885,2.88,1.44   c-1.052-2.86,1.365-7.824-1.2-9.36c-0.296,1.704,0.607,4.607-0.48,5.521c-0.23-2.17,0.515-5.315-0.48-6.721c-0.24,0-0.48,0-0.72,0   C34.445,273.41,34.445,276.45,34.445,279.49z M257.405,270.61c-3.542,3.018-7.83,5.29-11.28,8.4   c5.187,2.573,9.643,5.878,14.88,8.399c3.504-2.896,7-5.8,10.32-8.88C266.568,276.006,262.514,272.78,257.405,270.61z    M37.805,273.01c0,2.96,0,5.92,0,8.88c0.59,0.689,1.561,0.999,2.16,1.68c0.271-1.089-0.573-3.293,0.48-3.6   c0.234,1.365-0.519,3.719,0.48,4.319c0.149-0.891-0.39-2.47,0.48-2.64c0,0.96,0,1.92,0,2.88c28.85,22.111,57.603,44.316,86.88,66   c-0.491-3.349,1.159-8.839-1.2-10.32c-0.242,0.799,0.531,2.611-0.48,2.641c-0.172-1.349,0.563-3.604-0.96-3.601   c-0.23,0.73,0.514,2.435-0.48,2.4c0-0.96,0-1.92,0-2.88c-1.405-0.675-2.098-2.062-3.84-2.4   c-23.812-18.727-48.237-37.271-72.48-55.2c-3.487-2.578-6.734-5.59-10.56-7.68c-0.159,2.641,0.319,5.919-0.24,8.16   C37.894,278.999,38.352,274.464,37.805,273.01z M237.965,275.169c-3.708,3.253-8.294,5.627-11.761,9.12   c4.686,2.435,8.776,5.464,13.2,8.16c4.32-2.8,8.137-6.104,12-9.359C246.892,280.483,242.626,277.628,237.965,275.169z    M295.084,276.37c-3.019,3.381-7.101,5.699-10.08,9.12c4.37,2.19,8.155,4.965,12.48,7.2c3.464-3.016,7.154-5.806,10.56-8.88   C303.879,281.175,299.674,278.581,295.084,276.37z M213.725,277.57c-4.341,3.738-9.41,6.75-13.68,10.561   c4.777,2.742,8.864,6.176,13.92,8.64c4.615-3.465,9.025-7.135,13.44-10.8C222.901,283.114,218.326,280.329,213.725,277.57z    M271.805,279.25c-3.039,3.201-6.878,5.603-9.84,8.881c7.735,4.984,15.91,9.529,23.76,14.399c3.471-3.169,7.684-5.596,10.56-9.36   C288.15,288.504,280.556,283.299,271.805,279.25z M252.125,283.81c-3.62,3.259-7.88,5.88-11.279,9.359   c10.684,6.596,21.289,13.271,32.159,19.681c4.207-3.073,8.056-6.505,12-9.84C273.759,296.895,263.61,289.685,252.125,283.81z    M228.125,286.69c-2.046,1.794-4.432,3.248-6.239,5.28c4.872,2.727,9.462,5.737,14.159,8.64c2.01-1.91,4.518-3.323,6.48-5.28   C237.503,292.671,233.319,289.176,228.125,286.69z M220.924,292.45c-1.818,1.941-4.58,2.94-6,5.28   c4.657,2.783,8.851,6.029,13.68,8.64c1.963-1.808,5.345-3.439,6.24-5.52C230.11,298.145,225.716,295.098,220.924,292.45z    M243.245,296.05c-1.861,1.978-4.639,3.04-6.24,5.279c4.983,2.457,9.116,5.765,14.16,8.16c1.975-1.785,4.538-2.981,6-5.28   C252.35,301.665,248.165,298.49,243.245,296.05z M81.725,301.09c2.758,2.129,5.654,5.376,8.88,6.239   c0.111-1.825-2.264-2.587-3.6-3.6c-1.509-1.144-2.862-2.785-4.56-3.36c-0.053-0.187-0.201-0.278-0.48-0.239   C81.889,300.455,81.623,300.588,81.725,301.09z M235.805,301.81c-1.897,1.942-4.433,3.247-6.24,5.28   c4.401,3.118,8.801,6.238,13.68,8.88c2.212-1.948,4.843-3.478,6.72-5.761C245.371,307.284,240.84,304.294,235.805,301.81z    M258.125,305.169c-2.056,1.704-4.241,3.278-6.239,5.04c5.01,2.59,9.322,5.878,14.399,8.4c1.845-1.836,4.301-3.059,5.76-5.28   C267.069,310.946,263.209,307.446,258.125,305.169z M250.925,310.93c-2.311,1.93-4.659,3.82-6.96,5.76   c4.676,2.844,9.006,6.033,13.92,8.64c2.627-1.772,5.092-3.707,7.199-6C260.56,316.335,256.002,313.373,250.925,310.93z    M128.765,351.01c0.726,0.794,1.647,1.393,2.64,1.92c-0.521-3.16,1.113-8.474-0.96-10.08c-0.23,1.93,0.513,4.833-0.48,6   c0-2.24,0-4.48,0-6.72c-0.739,0.179-0.461-0.659-1.2-0.48C128.765,344.77,128.765,347.89,128.765,351.01z M134.045,355.09   c0.155-1.125-0.314-2.874,0.24-3.601c0.686,0.994-0.195,3.556,0.48,4.561c1.295,0.095-0.334-2.735,0.96-2.641c0,1.04,0,2.08,0,3.12   c11.635,8.802,23.664,17.516,35.04,26.4c3.788,2.958,7.39,6.593,12,8.16c-0.08-3.163,0.023-5.418,0-8.881   c-16.721-12.479-32.981-25.418-50.16-37.439c-0.159,2.641,0.318,5.919-0.24,8.16c-0.294-2.826,0.604-6.845-0.48-8.88   C132.376,347.958,130.412,354.323,134.045,355.09z M232.685,357.25c0-2.159,0-4.319,0-6.479   c-12.482,9.598-24.109,20.051-36.48,29.76c0,2.96,0,5.92,0,8.88c7.926-6.123,14.636-12.07,22.8-18.72   c2.155-1.755,4.475-3.95,7.2-6.24c2.082-1.748,6.664-4.678,7.2-6.479c0.769-2.583-0.412-5.849-0.24-7.92   C232.74,351.589,233.834,355.747,232.685,357.25z M194.765,387.01c-0.556-1.124-0.083-3.277-0.24-4.801   c-1.38-0.26-0.23,2.01-0.96,2.4c-0.688-0.032,0.208-1.647-0.48-1.68c-0.331,2.581-0.105,5.5-0.24,8.64   c4.714-0.453,2.993-6.847,2.4-10.32C194.6,382.685,195.43,385.595,194.765,387.01z M183.485,391.57   c0.628,0.491,1.403,0.837,2.64,0.72c0.066-2.992-0.108-6.034,0-8.399c-0.897,0.257-0.684-0.596-1.44-0.48   c-0.159,2.002,0.317,4.638-0.24,6.24c-0.82-1.659,0.491-5.45-0.72-6.72C183.622,386.66,183.803,387.939,183.485,391.57z    M189.965,384.13c-0.159,2.241,0.318,5.118-0.24,6.96c-0.558-1.763-0.081-4.559-0.24-6.721c-0.56,0-1.12,0-1.68,0   c-0.242,0.799,0.531,2.611-0.48,2.641c-0.251-0.869,0.544-2.785-0.48-2.88c-1.104,1.775-0.172,5.588-0.48,8.159   c1.726,0.779,4.543,0.901,5.76-0.479c-0.493-1.92,0.312-5.467-0.48-8.16C191.361,384.086,190.394,383.838,189.965,384.13z"/>
	<path fill-rule="evenodd" clip-rule="evenodd" fill="#E4E5E6" d="M173.885,184.21c0.487-0.393,1.409,0.821,2.16,0.96   C175.48,185.641,174.546,184.439,173.885,184.21z"/>
	<path fill-rule="evenodd" clip-rule="evenodd" fill="#E4E5E6" d="M184.685,190.21c1.322-0.039,3.125,1.513,4.56,2.16   C187.961,192.37,186.218,190.759,184.685,190.21z"/>
	<path fill-rule="evenodd" clip-rule="evenodd" fill="#E4E5E6" d="M2.045,241.089c0.167-0.457,0.374,0.26,0,0.24   c0,0.561,0,1.12,0,1.681c-0.031,0.43,0.293,0.506,0.24,0.96c0.345,1.082-1.206-1.276-0.72-2.641   C1.844,241.369,1.992,241.277,2.045,241.089z"/>
	<path fill-rule="evenodd" clip-rule="evenodd" fill="#E4E5E6" d="M13.085,252.85c0.524-0.352,1.344,1.047,2.16,1.2   C15.645,255.077,13.739,253.074,13.085,252.85z"/>
	<path fill-rule="evenodd" clip-rule="evenodd" d="M164.285,284.29c-10.656,6.384-20.392,13.688-30.72,20.4   c-0.57,0.15,0.037,1.478-0.48,1.68c-4.895,2.429-9.579,6.496-14.16,8.88c-1.501,0.781-5.166,1.3-7.44,0.24   c-1.436-0.669-2.987-2.628-4.56-3.84c-10.441-8.044-23.612-17.18-33.6-24.96c-0.489-0.631-0.689-1.551-1.2-2.16   c0.26-1.579,0.678-3.002,1.2-4.32c10.371-7.106,22.484-13.777,33.84-20.64c3.737-2.258,7.31-5.217,11.04-6.96   c2.117-0.989,5.097-0.961,7.92-0.72c10.642,7.532,24.022,16.09,36,24c1.424,0.94,4.348,2.797,4.56,3.84   C167.188,282.202,165.042,282.8,164.285,284.29z M157.085,287.41c1.905-1.374,7.659-3.688,7.92-5.76   c0.343-2.719-6.773-6.077-9.12-7.68c-9.163-6.257-16.568-10.99-25.44-16.801c-1.861-1.219-3.803-2.939-5.28-3.359   c-4.136-1.177-7.478,1.7-9.84,3.12c-8.619,5.179-18.05,10.824-26.16,16.08c14.394,10.565,28.958,20.962,43.92,30.96   C140.984,298.551,149.121,293.157,157.085,287.41z M102.125,263.89c5.558-3.242,11.132-6.469,16.32-10.08   C112.87,257.035,107.3,260.265,102.125,263.89z M97.565,266.53c0.826-0.374,1.581-0.818,2.16-1.439   C98.888,265.453,98.004,265.769,97.565,266.53z M92.285,269.65c0.824-0.542,2.851-1.142,2.64-1.92   C94.225,268.549,92.89,268.735,92.285,269.65z M89.165,271.81c0.583-0.862,2.819-1.335,2.64-2.16   C91.222,270.512,88.986,270.984,89.165,271.81z M86.525,272.77c-3.329,2.191-6.911,4.129-9.84,6.72   c5.12,0.16,10.879-0.319,15.6,0.24c-5.018,1.757-19.252-2.821-18.72,3.36c0.105,1.222,2.283,3.001,4.08,4.319   c10.3,7.555,19.999,14.935,29.52,22.32c2.932,2.273,6.171,5.25,10.56,3.6c2.272-0.854,4.842-2.885,7.2-4.319   c2.641-1.607,5.177-3.048,6.96-4.561C116.595,294.06,101.933,283.042,86.525,272.77z M84.125,293.169   c-3.265-2.176-6.722-5.437-9.84-6.96C77.439,288.497,81.091,291.563,84.125,293.169z M86.525,294.85   c-0.923-0.046-1.635-1.553-2.16-1.2C84.927,294.057,85.897,295.305,86.525,294.85z M88.445,296.77c0.064-0.746-1.84-1.671-1.44-1.2   C87.456,296,87.908,296.427,88.445,296.77z M92.525,299.41c-0.904,0.087-1.87-1.996-2.16-0.96   C91.273,298.432,91.813,300.028,92.525,299.41z M111.005,313.81c1.719,2.321,7.739,1.426,8.4-0.48   C117.792,315.132,112.517,314.551,111.005,313.81z"/>
	<path fill-rule="evenodd" clip-rule="evenodd" fill="#E4E5E6" d="M118.445,253.81c-5.188,3.611-10.762,6.838-16.32,10.08   C107.3,260.265,112.87,257.035,118.445,253.81z"/>
	<path fill-rule="evenodd" clip-rule="evenodd" fill="#E4E5E6" d="M19.085,257.41c0.416-0.086,1.804,0.909,2.16,1.681   C20.381,258.673,19.841,257.934,19.085,257.41z"/>
	<path fill-rule="evenodd" clip-rule="evenodd" fill="#E4E5E6" d="M22.445,259.81c0.626,0.333,1.167,0.752,1.68,1.2   C23.772,261.347,22.634,260.432,22.445,259.81z"/>
	<path fill-rule="evenodd" clip-rule="evenodd" fill="#E4E5E6" d="M99.725,265.09c-0.579,0.621-1.333,1.065-2.16,1.439   C98.004,265.769,98.888,265.453,99.725,265.09z"/>
	<path fill-rule="evenodd" clip-rule="evenodd" fill="#E4E5E6" d="M94.925,267.73c0.211,0.778-1.816,1.378-2.64,1.92   C92.89,268.735,94.225,268.549,94.925,267.73z"/>
	<path fill-rule="evenodd" clip-rule="evenodd" fill="#E4E5E6" d="M91.805,269.65c0.179,0.825-2.057,1.298-2.64,2.16   C88.986,270.984,91.222,270.512,91.805,269.65z"/>
	<path fill-rule="evenodd" clip-rule="evenodd" fill="#E4E5E6" d="M74.285,286.209c3.118,1.523,6.576,4.784,9.84,6.96   C81.091,291.563,77.439,288.497,74.285,286.209z"/>
	<path fill-rule="evenodd" clip-rule="evenodd" fill="#E4E5E6" d="M84.365,293.65c0.525-0.353,1.237,1.154,2.16,1.2   C85.897,295.305,84.927,294.057,84.365,293.65z"/>
	<path fill-rule="evenodd" clip-rule="evenodd" fill="#E4E5E6" d="M87.005,295.57c-0.4-0.471,1.504,0.454,1.44,1.2   C87.908,296.427,87.456,296,87.005,295.57z"/>
	<path fill-rule="evenodd" clip-rule="evenodd" fill="#E4E5E6" d="M90.365,298.45c0.29-1.036,1.256,1.047,2.16,0.96   C91.813,300.028,91.273,298.432,90.365,298.45z"/>
	<path fill-rule="evenodd" clip-rule="evenodd" fill="#E4E5E6" d="M119.405,313.33c-0.661,1.906-6.681,2.802-8.4,0.48   C112.517,314.551,117.792,315.132,119.405,313.33z"/>
</g>
</svg>