
<svg xmlns="http://www.w3.org/2000/svg"
     xmlns:xlink="http://www.w3.org/1999/xlink" version="1.1" width="288"
     height="163">
    <defs/>
    <g transform=" scale(0.8) translate(-138.1999969482422,-439.20001220703125)">
        <rect x="418.8" y="550.8" width="2.4" height="2.4" fill="#000000"
              stroke="none" pointer-events="none"/>
        <rect x="418.8" y="622.8" width="2.4" height="2.4" fill="#000000"
              stroke="none" pointer-events="none"/>
        <path d="M 420 566.4 L 428.4 570 L 420 573.6" fill="none"
              stroke="#000000" stroke-width="2.4" stroke-linejoin="round"
              stroke-linecap="round" stroke-miterlimit="10"
              pointer-events="none"/>
        <path d="M 420 573.6 L 411.6 577.2 L 420 580.8" fill="none"
              stroke="#000000" stroke-width="2.4" stroke-linejoin="round"
              stroke-linecap="round" stroke-miterlimit="10"
              pointer-events="none"/>
        <path d="M 420 580.8 L 428.4 584.4 L 420 588" fill="none"
              stroke="#000000" stroke-width="2.4" stroke-linejoin="round"
              stroke-linecap="round" stroke-miterlimit="10"
              pointer-events="none"/>
        <path d="M 420 588 L 411.6 591.6 L 420 595.2" fill="none"
              stroke="#000000" stroke-width="2.4" stroke-linejoin="round"
              stroke-linecap="round" stroke-miterlimit="10"
              pointer-events="none"/>
        <path d="M 420 595.2 L 428.4 598.8 L 420 602.4" fill="none"
              stroke="#000000" stroke-width="2.4" stroke-linejoin="round"
              stroke-linecap="round" stroke-miterlimit="10"
              pointer-events="none"/>
        <path d="M 420 602.4 L 411.6 606 L 420 609.6" fill="none"
              stroke="#000000" stroke-width="2.4" stroke-linejoin="round"
              stroke-linecap="round" stroke-miterlimit="10"
              pointer-events="none"/>
        <path d="M 420 553.2 L 420 565.2" fill="#000000" stroke="#000000"
              stroke-width="2.4" stroke-linecap="square" stroke-miterlimit="10"
              pointer-events="none"/>
        <path d="M 420 610.8 L 420 622.8" fill="#000000" stroke="#000000"
              stroke-width="2.4" stroke-linecap="square" stroke-miterlimit="10"
              pointer-events="none"/>
        <rect x="432" y="576" width="28.8" height="16.8" fill-opacity="0"
              fill="#dae2f2" stroke="none" pointer-events="none"/>
        <g fill="#000000" font-family="Arial,Helvetica" font-weight="bold"
           text-anchor="middle" font-size="14.399999999999999px">
            <text x="446.4" y="589.2">
                BBB
            </text>
        </g>
        <rect x="202.8" y="550.8" width="2.4" height="2.4" fill="#000000"
              stroke="none" pointer-events="none"/>
        <rect x="202.8" y="622.8" width="2.4" height="2.4" fill="#000000"
              stroke="none" pointer-events="none"/>
        <path d="M 183.04 563.47 C 195.04 563.47 195.04 563.47 195.04 563.47"
              fill="none" stroke="#000000" stroke-width="1.8"
              stroke-linecap="round" stroke-miterlimit="10"
              pointer-events="none"/>
        <path d="M 189.04 557.47 C 189.04 569.47 189.04 569.47 189.04 569.47"
              fill="none" stroke="#000000" stroke-width="1.8"
              stroke-linecap="round" stroke-miterlimit="10"
              pointer-events="none"/>
        <path d="M 182.4 574.24 C 225.6 574.24 225.6 574.24 225.6 574.24"
              fill="none" stroke="#000000" stroke-width="2.4"
              stroke-linecap="round" stroke-miterlimit="10"
              pointer-events="none"/>
        <path d="M 193.2 583.2 C 214.8 583.2 214.8 583.2 214.8 583.2"
              fill="none" stroke="#000000" stroke-width="2.4"
              stroke-linecap="round" stroke-miterlimit="10"
              pointer-events="none"/>
        <path d="M 182.4 593.44 C 225.6 593.44 225.6 593.44 225.6 593.44"
              fill="none" stroke="#000000" stroke-width="2.4"
              stroke-linecap="round" stroke-miterlimit="10"
              pointer-events="none"/>
        <path d="M 193.2 602.4 C 214.8 602.4 214.8 602.4 214.8 602.4"
              fill="none" stroke="#000000" stroke-width="2.4"
              stroke-linecap="round" stroke-miterlimit="10"
              pointer-events="none"/>
        <path d="M 204 553.2 L 204 573.6" fill="none" stroke="#000000"
              stroke-width="2.4" stroke-linejoin="round" stroke-linecap="square"
              stroke-miterlimit="10" pointer-events="none"/>
        <path d="M 204 602.4 L 204 622.8" fill="none" stroke="#000000"
              stroke-width="2.4" stroke-linejoin="round" stroke-linecap="square"
              stroke-miterlimit="10" pointer-events="none"/>
        <rect x="156" y="588" width="15.6" height="15.6" fill-opacity="0"
              fill="#dae2f2" stroke="none" pointer-events="none"/>
        <g fill="#000000" font-family="Arial,Helvetica" font-weight="bold"
           text-anchor="middle" font-size="14.399999999999999px">
            <text x="163.8" y="600.6">
                5V
            </text>
        </g>
        <rect x="144" y="564" width="26.4" height="15.6" fill-opacity="0"
              fill="#dae2f2" stroke="none" pointer-events="none"/>
        <g fill="#000000" font-family="Arial,Helvetica" font-weight="bold"
           text-anchor="middle" font-size="14.399999999999999px">
            <text x="157.2" y="576.6">
                USB
            </text>
        </g>
        <rect x="346.8" y="490.8" width="2.4" height="2.4" fill="#000000"
              stroke="none" pointer-events="none"/>
        <rect x="274.8" y="490.8" width="2.4" height="2.4" fill="#000000"
              stroke="none" pointer-events="none"/>
        <rect x="346.8" y="490.8" width="2.4" height="2.4" fill="#000000"
              stroke="none" pointer-events="none"/>
        <ellipse cx="312" cy="492" rx="22.799815548" ry="22.799815548"
                 fill="#ffffff" stroke="#000000" stroke-width="2.4"
                 pointer-events="none"/>
        <path d="M 336 492 L 346.8 492" fill="none" stroke="#000000"
              stroke-width="2.4" stroke-linecap="square" stroke-miterlimit="10"
              pointer-events="none"/>
        <path d="M 277.2 492 L 288 492" fill="none" stroke="#000000"
              stroke-width="2.4" stroke-linecap="square" stroke-miterlimit="10"
              pointer-events="none"/>
        <path d="M 336 492 L 346.8 492" fill="none" stroke="#000000"
              stroke-width="2.4" stroke-linecap="square" stroke-miterlimit="10"
              pointer-events="none"/>
        <g fill="#000000" font-family="Arial,Helvetica" text-anchor="middle"
           font-size="28.799999999999997px">
            <text x="313.55" y="496.96">
                A
            </text>
        </g>
        <rect x="276" y="444" width="68.4" height="16.8" fill-opacity="0"
              fill="#dae2f2" stroke="none" pointer-events="none"/>
        <g fill="#000000" font-family="Arial,Helvetica" font-weight="bold"
           text-anchor="middle" font-size="14.399999999999999px">
            <text x="310.2" y="457.2">
                Multimeter
            </text>
        </g>
        <path d="M 204 624 L 204 636 L 420 636 L 420 624" fill="none"
              stroke="#000000" stroke-width="2.4" stroke-miterlimit="10"
              pointer-events="none"/>
        <rect x="268.8" y="508.8" width="2.4" height="2.4" fill="#000000"
              stroke="none" transform="rotate(270,252,510)"
              pointer-events="none"/>
        <path d="M 248.4 510 L 268.8 510" fill="#000000" stroke="#000000"
              stroke-width="2.4" stroke-linecap="square" stroke-miterlimit="10"
              transform="rotate(270,252,510)" pointer-events="none"/>
        <path d="M 242.47 503.21 L 249.26 510 L 242.47 516.79" fill="none"
              stroke="#000000" stroke-width="2.4" stroke-linecap="square"
              stroke-miterlimit="10" transform="rotate(270,252,510)"
              pointer-events="none"/>
        <rect x="262.8" y="526.8" width="2.4" height="2.4" fill="#000000"
              stroke="none" transform="rotate(90,252,528)" pointer-events="none"/>
        <path d="M 242.4 528 L 262.8 528" fill="#000000" stroke="#000000"
              stroke-width="2.4" stroke-linecap="square" stroke-miterlimit="10"
              transform="rotate(90,252,528)" pointer-events="none"/>
        <path d="M 248.29 521.21 L 241.51 528 L 248.29 534.79" fill="none"
              stroke="#000000" stroke-width="2.4" stroke-linecap="square"
              stroke-miterlimit="10" transform="rotate(90,252,528)"
              pointer-events="none"/>
        <rect x="388.8" y="508.8" width="2.4" height="2.4" fill="#000000"
              stroke="none" transform="rotate(270,372,510)"
              pointer-events="none"/>
        <path d="M 368.4 510 L 388.8 510" fill="#000000" stroke="#000000"
              stroke-width="2.4" stroke-linecap="square" stroke-miterlimit="10"
              transform="rotate(270,372,510)" pointer-events="none"/>
        <path d="M 362.47 503.21 L 369.26 510 L 362.47 516.79" fill="none"
              stroke="#000000" stroke-width="2.4" stroke-linecap="square"
              stroke-miterlimit="10" transform="rotate(270,372,510)"
              pointer-events="none"/>
        <rect x="382.8" y="526.8" width="2.4" height="2.4" fill="#000000"
              stroke="none" transform="rotate(90,372,528)" pointer-events="none"/>
        <path d="M 362.4 528 L 382.8 528" fill="#000000" stroke="#000000"
              stroke-width="2.4" stroke-linecap="square" stroke-miterlimit="10"
              transform="rotate(90,372,528)" pointer-events="none"/>
        <path d="M 368.29 521.21 L 361.51 528 L 368.29 534.79" fill="none"
              stroke="#000000" stroke-width="2.4" stroke-linecap="square"
              stroke-miterlimit="10" transform="rotate(90,372,528)"
              pointer-events="none"/>
        <path d="M 204 552 L 204 540 L 252 540" fill="none" stroke="#000000"
              stroke-width="2.4" stroke-miterlimit="10" pointer-events="none"/>
        <path d="M 420 552 L 420 540 L 372 540" fill="none" stroke="#000000"
              stroke-width="2.4" stroke-miterlimit="10" pointer-events="none"/>
        <path d="M 252 492 L 276 492" fill="none" stroke="#000000"
              stroke-width="2.4" stroke-miterlimit="10" pointer-events="none"/>
        <path d="M 348 492 L 372 492" fill="none" stroke="#000000"
              stroke-width="2.4" stroke-miterlimit="10" pointer-events="none"/>
        <rect x="322.8" y="526.8" width="2.4" height="2.4" fill="#000000"
              stroke="none" transform="rotate(180,312,528)"
              pointer-events="none"/>
        <path d="M 302.4 528 L 322.8 528" fill="#000000" stroke="#000000"
              stroke-width="2.4" stroke-linecap="square" stroke-miterlimit="10"
              transform="rotate(180,312,528)" pointer-events="none"/>
        <path d="M 308.29 521.21 L 301.51 528 L 308.29 534.79" fill="none"
              stroke="#000000" stroke-width="2.4" stroke-linecap="square"
              stroke-miterlimit="10" transform="rotate(180,312,528)"
              pointer-events="none"/>
        <rect x="312" y="540" width="3.6" height="15.6" fill-opacity="0"
              fill="#dae2f2" stroke="none" pointer-events="none"/>
        <g fill="#000000" font-family="Arial,Helvetica" font-weight="bold"
           text-anchor="middle" font-size="14.399999999999999px">
            <text x="313.8" y="552.6">
                I
            </text>
        </g>
    </g>
</svg>