<?xml version="1.0" encoding="UTF-8" standalone="no"?>
<!-- Created with Inkscape (http://www.inkscape.org/) -->
<svg xmlns:dc="http://purl.org/dc/elements/1.1/" xmlns:cc="http://web.resource.org/cc/" xmlns:rdf="http://www.w3.org/1999/02/22-rdf-syntax-ns#" xmlns:svg="http://www.w3.org/2000/svg" xmlns="http://www.w3.org/2000/svg" xmlns:sodipodi="http://inkscape.sourceforge.net/DTD/sodipodi-0.dtd" xmlns:inkscape="http://www.inkscape.org/namespaces/inkscape" id="svg2" sodipodi:version="0.32" inkscape:version="0.43" width="523.28003pt" height="199pt" sodipodi:docbase="C:\Moje dokumenty\Wikipedia\SVG" sodipodi:docname="jtag.svg" version="1.0">
  <metadata id="metadata7">
    <rdf:RDF>
      <cc:Work rdf:about="">
        <dc:format>image/svg+xml</dc:format>
        <dc:type rdf:resource="http://purl.org/dc/dcmitype/StillImage"/>
      </cc:Work>
    </rdf:RDF>
  </metadata>
  <defs id="defs5"/>
  <sodipodi:namedview inkscape:window-height="938" inkscape:window-width="1280" inkscape:pageshadow="2" inkscape:pageopacity="0.0" borderopacity="1.0" bordercolor="#666666" pagecolor="#ffffff" id="base" inkscape:zoom="1.0025097" inkscape:cx="281.87115" inkscape:cy="274.67226" inkscape:window-x="-4" inkscape:window-y="-4" inkscape:current-layer="svg2"/>
  <path style="fill:none;fill-opacity:0.75;fill-rule:evenodd;stroke:#000000;stroke-width:1px;stroke-linecap:butt;stroke-linejoin:miter;stroke-opacity:1" d="M 101.60415,137.45243 L 52.286801,137.45243 L 52.286801,62.181918" id="path2329"/>
  <path style="fill:none;fill-opacity:0.75;fill-rule:evenodd;stroke:#000000;stroke-width:1px;stroke-linecap:butt;stroke-linejoin:miter;stroke-opacity:1" d="M 301.60415,137.45243 L 252.2868,137.45243 L 252.2868,62.181918" id="path2325"/>
  <path style="fill:none;fill-opacity:0.75;fill-rule:evenodd;stroke:#000000;stroke-width:1px;stroke-linecap:butt;stroke-linejoin:miter;stroke-opacity:1" d="M 13.964952,61.948228 L 451.3672,61.948228 L 451.36719,137.00985 L 509.97012,137.25922" id="path2323"/>
  <path style="fill:none;fill-opacity:0.75;fill-rule:evenodd;stroke:#000000;stroke-width:1px;stroke-linecap:butt;stroke-linejoin:miter;stroke-opacity:1" d="M 100.6567,117.40236 L 66.800551,117.40236 L 66.800551,22.181918" id="path2319"/>
  <path transform="translate(-240.8974,-82.29347)" style="color:#000000;fill:#000000;fill-opacity:1;fill-rule:evenodd;stroke:#000000;stroke-width:1.5;stroke-linecap:butt;stroke-linejoin:miter;stroke-miterlimit:4;stroke-dashoffset:0;stroke-opacity:1;marker:none;marker-start:none;marker-mid:none;marker-end:none;visibility:visible;display:inline;overflow:visible" d="M 309.72267,103.99232 C 309.72267,105.23121 308.71719,106.23668 307.4783,106.23668 C 306.23941,106.23668 305.23393,105.23121 305.23393,103.99232 C 305.23393,102.75343 306.23941,101.74795 307.4783,101.74795 C 308.71719,101.74795 309.72267,102.75343 309.72267,103.99232 z " id="path2321"/>
  <path style="fill:none;fill-opacity:0.75;fill-rule:evenodd;stroke:#000000;stroke-width:1px;stroke-linecap:butt;stroke-linejoin:miter;stroke-opacity:1" d="M 300.6567,117.40236 L 266.80055,117.40236 L 266.80055,22.181918" id="path2311"/>
  <path style="fill:none;fill-opacity:0.75;fill-rule:evenodd;stroke:#000000;stroke-width:1px;stroke-linecap:butt;stroke-linejoin:miter;stroke-opacity:1" d="M 13.964952,21.948228 L 466.82839,21.948228 L 466.82839,117.7079 L 508.72325,117.7079" id="path2309"/>
  <path style="fill:none;fill-opacity:0.75;fill-rule:evenodd;stroke:#000000;stroke-width:1px;stroke-linecap:butt;stroke-linejoin:miter;stroke-opacity:1" d="M 27.979976,182.79552 L 650.93838,182.79552 L 650.93838,240.67847 L 24.59166,240.67847" id="path2290"/>
  <path style="color:#000000;fill:#ffffff;fill-opacity:1;fill-rule:evenodd;stroke:#000000;stroke-width:1.5;stroke-linecap:butt;stroke-linejoin:miter;stroke-miterlimit:4;stroke-dashoffset:0;stroke-opacity:1;marker:none;marker-start:none;marker-mid:none;marker-end:none;visibility:visible;display:inline;overflow:visible" d="M 83.839783,98.008308 L 213.51434,98.008308 L 213.51434,201.74795 L 83.839783,201.74795 L 83.839783,98.008308 z " id="rect1324"/>
  <path style="font-size:12px;font-style:normal;font-weight:normal;fill:#000000;fill-opacity:1;stroke:none;stroke-width:1px;stroke-linecap:butt;stroke-linejoin:miter;stroke-opacity:1;font-family:Bitstream Vera Sans" d="M 88.213135,113.0812 L 95.613525,113.0812 L 95.613525,114.07729 L 92.508057,114.07729 L 92.508057,121.82925 L 91.318604,121.82925 L 91.318604,114.07729 L 88.213135,114.07729 L 88.213135,113.0812 M 96.761963,113.0812 L 98.525635,113.0812 L 100.75806,119.03432 L 103.0022,113.0812 L 104.76587,113.0812 L 104.76587,121.82925 L 103.61157,121.82925 L 103.61157,114.14761 L 101.35571,120.14761 L 100.16626,120.14761 L 97.9104,114.14761 L 97.9104,121.82925 L 96.761963,121.82925 L 96.761963,113.0812 M 112.36548,113.36831 L 112.36548,114.52261 C 111.91625,114.30777 111.49243,114.14761 111.09399,114.04214 C 110.69555,113.93668 110.31079,113.88394 109.9397,113.88393 C 109.29516,113.88394 108.79712,114.00894 108.44556,114.25893 C 108.0979,114.50894 107.92407,114.86441 107.92407,115.32534 C 107.92407,115.71207 108.0393,116.00503 108.26978,116.20425 C 108.50415,116.39956 108.94555,116.55777 109.59399,116.67886 L 110.30884,116.82534 C 111.19165,116.99331 111.84204,117.29019 112.26001,117.71597 C 112.68188,118.13784 112.89282,118.70425 112.89282,119.41518 C 112.89282,120.26284 112.60766,120.90542 112.03735,121.34292 C 111.47094,121.78042 110.63891,121.99917 109.54126,121.99917 C 109.12719,121.99917 108.68579,121.95229 108.21704,121.85854 C 107.7522,121.76479 107.26977,121.62612 106.76978,121.44253 L 106.76978,120.22378 C 107.25024,120.49331 107.72095,120.69644 108.18188,120.83315 C 108.64282,120.96987 109.09594,121.03823 109.54126,121.03823 C 110.21704,121.03823 110.73852,120.90542 111.10571,120.63979 C 111.47289,120.37417 111.65649,119.99526 111.65649,119.50307 C 111.65649,119.07339 111.52368,118.73745 111.25806,118.49526 C 110.99633,118.25308 110.56469,118.07144 109.96313,117.95034 L 109.24243,117.80972 C 108.35962,117.63394 107.72095,117.35855 107.32642,116.98354 C 106.93188,116.60855 106.73462,116.08706 106.73462,115.41909 C 106.73462,114.64566 107.0061,114.03629 107.54907,113.59097 C 108.09595,113.14566 108.8479,112.92301 109.80493,112.923 C 110.21508,112.92301 110.63305,112.96011 111.05884,113.03432 C 111.48461,113.10855 111.92016,113.21988 112.36548,113.36831" id="text2217"/>
  <path style="font-size:12px;font-style:normal;font-weight:normal;fill:#000000;fill-opacity:1;stroke:none;stroke-width:1px;stroke-linecap:butt;stroke-linejoin:miter;stroke-opacity:1;font-family:Bitstream Vera Sans" d="M 88.213135,133.08119 L 95.613525,133.08119 L 95.613525,134.07729 L 92.508057,134.07729 L 92.508057,141.82924 L 91.318604,141.82924 L 91.318604,134.07729 L 88.213135,134.07729 L 88.213135,133.08119 M 103.31274,133.75502 L 103.31274,135.00307 C 102.9143,134.63198 102.48852,134.35464 102.0354,134.17104 C 101.58618,133.98745 101.10766,133.89565 100.59985,133.89565 C 99.59985,133.89565 98.834225,134.20229 98.302979,134.81557 C 97.771726,135.42495 97.506102,136.30776 97.506104,137.464 C 97.506102,138.61635 97.771726,139.49916 98.302979,140.11244 C 98.834225,140.72182 99.59985,141.02651 100.59985,141.0265 C 101.10766,141.02651 101.58618,140.93471 102.0354,140.75111 C 102.48852,140.56752 102.9143,140.29018 103.31274,139.91908 L 103.31274,141.15541 C 102.89867,141.43666 102.45922,141.6476 101.99438,141.78822 C 101.53344,141.92885 101.04516,141.99916 100.52954,141.99916 C 99.205319,141.99916 98.162351,141.59486 97.400635,140.78627 C 96.638915,139.97377 96.258056,138.86635 96.258057,137.464 C 96.258056,136.05776 96.638915,134.95034 97.400635,134.14174 C 98.162351,133.32925 99.205319,132.923 100.52954,132.92299 C 101.05297,132.923 101.54516,132.99331 102.0061,133.13393 C 102.47094,133.27065 102.90649,133.47768 103.31274,133.75502 M 105.15259,133.08119 L 106.33618,133.08119 L 106.33618,136.77846 L 110.26196,133.08119 L 111.7854,133.08119 L 107.4436,137.15932 L 112.09595,141.82924 L 110.53735,141.82924 L 106.33618,137.61635 L 106.33618,141.82924 L 105.15259,141.82924 L 105.15259,133.08119" id="text2221"/>
  <path style="font-size:12px;font-style:normal;font-weight:normal;fill:#000000;fill-opacity:1;stroke:none;stroke-width:1px;stroke-linecap:butt;stroke-linejoin:miter;stroke-opacity:1;font-family:Bitstream Vera Sans" d="M 88.213135,179.08119 L 95.613525,179.08119 L 95.613525,180.07729 L 92.508057,180.07729 L 92.508057,187.82924 L 91.318604,187.82924 L 91.318604,180.07729 L 88.213135,180.07729 L 88.213135,179.08119 M 97.945557,180.05385 L 97.945557,186.85658 L 99.375244,186.85658 C 100.58227,186.85658 101.46508,186.58315 102.02368,186.03627 C 102.58617,185.4894 102.86742,184.62612 102.86743,183.44643 C 102.86742,182.27456 102.58617,181.41714 102.02368,180.87416 C 101.46508,180.32729 100.58227,180.05386 99.375244,180.05385 L 97.945557,180.05385 M 96.761963,179.08119 L 99.193604,179.08119 C 100.88891,179.0812 102.13305,179.43472 102.92603,180.14174 C 103.71899,180.84487 104.11547,181.94643 104.11548,183.44643 C 104.11547,184.95424 103.71703,186.06166 102.92017,186.76869 C 102.12328,187.47572 100.8811,187.82924 99.193604,187.82924 L 96.761963,187.82924 L 96.761963,179.08119 M 105.99634,179.08119 L 107.17993,179.08119 L 107.17993,187.82924 L 105.99634,187.82924 L 105.99634,179.08119" id="text2225"/>
  <path style="font-size:12px;font-style:normal;font-weight:normal;fill:#000000;fill-opacity:1;stroke:none;stroke-width:1px;stroke-linecap:butt;stroke-linejoin:miter;stroke-opacity:1;font-family:Bitstream Vera Sans" d="M 184.21313,179.08119 L 191.61353,179.08119 L 191.61353,180.07729 L 188.50806,180.07729 L 188.50806,187.82924 L 187.3186,187.82924 L 187.3186,180.07729 L 184.21313,180.07729 L 184.21313,179.08119 M 193.94556,180.05385 L 193.94556,186.85658 L 195.37524,186.85658 C 196.58227,186.85658 197.46508,186.58315 198.02368,186.03627 C 198.58617,185.4894 198.86742,184.62612 198.86743,183.44643 C 198.86742,182.27456 198.58617,181.41714 198.02368,180.87416 C 197.46508,180.32729 196.58227,180.05386 195.37524,180.05385 L 193.94556,180.05385 M 192.76196,179.08119 L 195.1936,179.08119 C 196.88891,179.0812 198.13305,179.43472 198.92603,180.14174 C 199.71899,180.84487 200.11547,181.94643 200.11548,183.44643 C 200.11547,184.95424 199.71703,186.06166 198.92017,186.76869 C 198.12328,187.47572 196.8811,187.82924 195.1936,187.82924 L 192.76196,187.82924 L 192.76196,179.08119 M 205.54712,179.88393 C 204.68774,179.88393 204.00415,180.20425 203.49634,180.84486 C 202.99243,181.4855 202.74048,182.35854 202.74048,183.464 C 202.74048,184.56557 202.99243,185.43666 203.49634,186.07729 C 204.00415,186.71791 204.68774,187.03822 205.54712,187.03822 C 206.40649,187.03822 207.08618,186.71791 207.58618,186.07729 C 208.09008,185.43666 208.34203,184.56557 208.34204,183.464 C 208.34203,182.35854 208.09008,181.4855 207.58618,180.84486 C 207.08618,180.20425 206.40649,179.88393 205.54712,179.88393 M 205.54712,178.92299 C 206.77368,178.923 207.75414,179.33511 208.48853,180.15932 C 209.22289,180.97964 209.59008,182.0812 209.59009,183.464 C 209.59008,184.84291 209.22289,185.94448 208.48853,186.76869 C 207.75414,187.589 206.77368,187.99916 205.54712,187.99916 C 204.31665,187.99916 203.33227,187.589 202.59399,186.76869 C 201.85962,185.94838 201.49243,184.84682 201.49243,183.464 C 201.49243,182.0812 201.85962,180.97964 202.59399,180.15932 C 203.33227,179.33511 204.31665,178.923 205.54712,178.92299" id="text2229"/>
  <path transform="scale(0.790762,1.264603)" style="font-size:18.35365677px;font-style:normal;font-variant:normal;font-weight:bold;font-stretch:normal;text-align:start;line-height:125%;writing-mode:lr-tb;text-anchor:start;fill:#000000;fill-opacity:1;stroke:none;stroke-width:1px;stroke-linecap:butt;stroke-linejoin:miter;stroke-opacity:1;font-family:Bitstream Vera Sans" d="M 168.26269,111.95874 L 168.26269,120.12289 L 169.49941,120.12289 C 170.90938,120.12289 171.98479,119.77339 172.72564,119.07437 C 173.47244,118.37535 173.84585,117.35969 173.84586,116.02737 C 173.84585,114.70104 173.47543,113.69135 172.7346,112.9983 C 171.99375,112.30527 170.91536,111.95875 169.49941,111.95874 L 168.26269,111.95874 M 164.81242,109.35087 L 168.45089,109.35087 C 170.48221,109.35088 171.99375,109.49726 172.98553,109.79 C 173.98326,110.07679 174.83761,110.56669 175.54859,111.25972 C 176.1759,111.86316 176.64191,112.55919 176.94662,113.34781 C 177.25131,114.13645 177.40366,115.02964 177.40367,116.02737 C 177.40366,117.03707 177.25131,117.93922 176.94662,118.73382 C 176.64191,119.52246 176.1759,120.21848 175.54859,120.82191 C 174.83164,121.51495 173.97131,122.00785 172.96761,122.30059 C 171.96388,122.58737 170.45831,122.73076 168.45089,122.73076 L 164.81242,122.73076 L 164.81242,109.35087 M 180.04739,109.35087 L 189.35864,109.35087 L 189.35864,111.95874 L 183.49766,111.95874 L 183.49766,114.4501 L 189.00913,114.4501 L 189.00913,117.05797 L 183.49766,117.05797 L 183.49766,120.12289 L 189.5558,120.12289 L 189.5558,122.73076 L 180.04739,122.73076 L 180.04739,109.35087 M 190.99864,109.35087 L 194.46684,109.35087 L 198.01569,119.22672 L 201.55558,109.35087 L 205.02377,109.35087 L 200.06793,122.73076 L 195.95449,122.73076 L 190.99864,109.35087 M 206.78924,109.35087 L 210.23951,109.35087 L 210.23951,122.73076 L 206.78924,122.73076 L 206.78924,109.35087 M 224.24672,121.9959 C 223.61341,122.32449 222.95323,122.57243 222.26617,122.73972 C 221.5791,122.90701 220.86216,122.99065 220.11535,122.99065 C 217.88686,122.99065 216.1214,122.3693 214.81896,121.12661 C 213.51652,119.87794 212.8653,118.18716 212.8653,116.05426 C 212.8653,113.9154 213.51652,112.22462 214.81896,110.98191 C 216.1214,109.73325 217.88686,109.10892 220.11535,109.1089 C 220.86216,109.10892 221.5791,109.19256 222.26617,109.35983 C 222.95323,109.52713 223.61341,109.77507 224.24672,110.10366 L 224.24672,112.87284 C 223.60744,112.43671 222.97713,112.11707 222.35579,111.91393 C 221.73443,111.71081 221.08023,111.60924 220.39317,111.60923 C 219.16241,111.60924 218.19455,112.00356 217.48956,112.79218 C 216.78457,113.58082 216.43207,114.66818 216.43208,116.05426 C 216.43207,117.43437 216.78457,118.51874 217.48956,119.30737 C 218.19455,120.09601 219.16241,120.49032 220.39317,120.49032 C 221.08023,120.49032 221.73443,120.38876 222.35579,120.18562 C 222.97713,119.98249 223.60744,119.66286 224.24672,119.22672 L 224.24672,121.9959 M 227.11448,109.35087 L 236.42574,109.35087 L 236.42574,111.95874 L 230.56475,111.95874 L 230.56475,114.4501 L 236.07623,114.4501 L 236.07623,117.05797 L 230.56475,117.05797 L 230.56475,120.12289 L 236.62289,120.12289 L 236.62289,122.73076 L 227.11448,122.73076 L 227.11448,109.35087 M 246.5077,120.34693 L 249.55469,120.34693 L 249.55469,111.69885 L 246.42704,112.34409 L 246.42704,109.99612 L 249.53677,109.35087 L 252.81677,109.35087 L 252.81677,120.34693 L 255.86376,120.34693 L 255.86376,122.73076 L 246.5077,122.73076 L 246.5077,120.34693" id="text2233"/>
  <path style="color:#000000;fill:#ffffff;fill-opacity:1;fill-rule:evenodd;stroke:#000000;stroke-width:1.5;stroke-linecap:butt;stroke-linejoin:miter;stroke-miterlimit:4;stroke-dashoffset:0;stroke-opacity:1;marker:none;marker-start:none;marker-mid:none;marker-end:none;visibility:visible;display:inline;overflow:visible" d="M 283.83978,98.008308 L 413.51434,98.008308 L 413.51434,201.74795 L 283.83978,201.74795 L 283.83978,98.008308 z " id="rect2246"/>
  <path style="font-size:12px;font-style:normal;font-weight:normal;fill:#000000;fill-opacity:1;stroke:none;stroke-width:1px;stroke-linecap:butt;stroke-linejoin:miter;stroke-opacity:1;font-family:Bitstream Vera Sans" d="M 288.21317,113.0812 L 295.61356,113.0812 L 295.61356,114.07729 L 292.50809,114.07729 L 292.50809,121.82925 L 291.31863,121.82925 L 291.31863,114.07729 L 288.21317,114.07729 L 288.21317,113.0812 M 296.76199,113.0812 L 298.52567,113.0812 L 300.75809,119.03432 L 303.00223,113.0812 L 304.7659,113.0812 L 304.7659,121.82925 L 303.6116,121.82925 L 303.6116,114.14761 L 301.35574,120.14761 L 300.16629,120.14761 L 297.91043,114.14761 L 297.91043,121.82925 L 296.76199,121.82925 L 296.76199,113.0812 M 312.36551,113.36831 L 312.36551,114.52261 C 311.91628,114.30777 311.49246,114.14761 311.09402,114.04214 C 310.69558,113.93668 310.31082,113.88394 309.93973,113.88393 C 309.29519,113.88394 308.79715,114.00894 308.44559,114.25893 C 308.09793,114.50894 307.9241,114.86441 307.9241,115.32534 C 307.9241,115.71207 308.03934,116.00503 308.26981,116.20425 C 308.50418,116.39956 308.94558,116.55777 309.59402,116.67886 L 310.30887,116.82534 C 311.19168,116.99331 311.84207,117.29019 312.26004,117.71597 C 312.68191,118.13784 312.89285,118.70425 312.89285,119.41518 C 312.89285,120.26284 312.60769,120.90542 312.03738,121.34292 C 311.47097,121.78042 310.63894,121.99917 309.54129,121.99917 C 309.12722,121.99917 308.68582,121.95229 308.21707,121.85854 C 307.75223,121.76479 307.2698,121.62612 306.76981,121.44253 L 306.76981,120.22378 C 307.25027,120.49331 307.72098,120.69644 308.18192,120.83315 C 308.64285,120.96987 309.09597,121.03823 309.54129,121.03823 C 310.21707,121.03823 310.73855,120.90542 311.10574,120.63979 C 311.47293,120.37417 311.65652,119.99526 311.65652,119.50307 C 311.65652,119.07339 311.52371,118.73745 311.25809,118.49526 C 310.99636,118.25308 310.56472,118.07144 309.96317,117.95034 L 309.24246,117.80972 C 308.35965,117.63394 307.72098,117.35855 307.32645,116.98354 C 306.93191,116.60855 306.73465,116.08706 306.73465,115.41909 C 306.73465,114.64566 307.00613,114.03629 307.5491,113.59097 C 308.09598,113.14566 308.84793,112.92301 309.80496,112.923 C 310.21511,112.92301 310.63308,112.96011 311.05887,113.03432 C 311.48464,113.10855 311.92019,113.21988 312.36551,113.36831" id="text2248"/>
  <path style="font-size:12px;font-style:normal;font-weight:normal;fill:#000000;fill-opacity:1;stroke:none;stroke-width:1px;stroke-linecap:butt;stroke-linejoin:miter;stroke-opacity:1;font-family:Bitstream Vera Sans" d="M 288.21317,133.08119 L 295.61356,133.08119 L 295.61356,134.07729 L 292.50809,134.07729 L 292.50809,141.82924 L 291.31863,141.82924 L 291.31863,134.07729 L 288.21317,134.07729 L 288.21317,133.08119 M 303.31277,133.75502 L 303.31277,135.00307 C 302.91433,134.63198 302.48855,134.35464 302.03543,134.17104 C 301.58621,133.98745 301.10769,133.89565 300.59988,133.89565 C 299.59988,133.89565 298.83426,134.20229 298.30301,134.81557 C 297.77176,135.42495 297.50613,136.30776 297.50613,137.464 C 297.50613,138.61635 297.77176,139.49916 298.30301,140.11244 C 298.83426,140.72182 299.59988,141.02651 300.59988,141.0265 C 301.10769,141.02651 301.58621,140.93471 302.03543,140.75111 C 302.48855,140.56752 302.91433,140.29018 303.31277,139.91908 L 303.31277,141.15541 C 302.8987,141.43666 302.45925,141.6476 301.99442,141.78822 C 301.53347,141.92885 301.04519,141.99916 300.52957,141.99916 C 299.20535,141.99916 298.16238,141.59486 297.40067,140.78627 C 296.63895,139.97377 296.25809,138.86635 296.25809,137.464 C 296.25809,136.05776 296.63895,134.95034 297.40067,134.14174 C 298.16238,133.32925 299.20535,132.923 300.52957,132.92299 C 301.053,132.923 301.54519,132.99331 302.00613,133.13393 C 302.47097,133.27065 302.90652,133.47768 303.31277,133.75502 M 305.15262,133.08119 L 306.33621,133.08119 L 306.33621,136.77846 L 310.26199,133.08119 L 311.78543,133.08119 L 307.44363,137.15932 L 312.09598,141.82924 L 310.53738,141.82924 L 306.33621,137.61635 L 306.33621,141.82924 L 305.15262,141.82924 L 305.15262,133.08119" id="text2252"/>
  <path style="font-size:12px;font-style:normal;font-weight:normal;fill:#000000;fill-opacity:1;stroke:none;stroke-width:1px;stroke-linecap:butt;stroke-linejoin:miter;stroke-opacity:1;font-family:Bitstream Vera Sans" d="M 288.21317,179.08119 L 295.61356,179.08119 L 295.61356,180.07729 L 292.50809,180.07729 L 292.50809,187.82924 L 291.31863,187.82924 L 291.31863,180.07729 L 288.21317,180.07729 L 288.21317,179.08119 M 297.94559,180.05385 L 297.94559,186.85658 L 299.37527,186.85658 C 300.5823,186.85658 301.46511,186.58315 302.02371,186.03627 C 302.58621,185.4894 302.86745,184.62612 302.86746,183.44643 C 302.86745,182.27456 302.58621,181.41714 302.02371,180.87416 C 301.46511,180.32729 300.5823,180.05386 299.37527,180.05385 L 297.94559,180.05385 M 296.76199,179.08119 L 299.19363,179.08119 C 300.88894,179.0812 302.13308,179.43472 302.92606,180.14174 C 303.71902,180.84487 304.1155,181.94643 304.11551,183.44643 C 304.1155,184.95424 303.71706,186.06166 302.9202,186.76869 C 302.12331,187.47572 300.88113,187.82924 299.19363,187.82924 L 296.76199,187.82924 L 296.76199,179.08119 M 305.99637,179.08119 L 307.17996,179.08119 L 307.17996,187.82924 L 305.99637,187.82924 L 305.99637,179.08119" id="text2256"/>
  <path style="font-size:12px;font-style:normal;font-weight:normal;fill:#000000;fill-opacity:1;stroke:none;stroke-width:1px;stroke-linecap:butt;stroke-linejoin:miter;stroke-opacity:1;font-family:Bitstream Vera Sans" d="M 384.21313,179.08119 L 391.61353,179.08119 L 391.61353,180.07729 L 388.50806,180.07729 L 388.50806,187.82924 L 387.3186,187.82924 L 387.3186,180.07729 L 384.21313,180.07729 L 384.21313,179.08119 M 393.94556,180.05385 L 393.94556,186.85658 L 395.37524,186.85658 C 396.58227,186.85658 397.46508,186.58315 398.02368,186.03627 C 398.58617,185.4894 398.86742,184.62612 398.86743,183.44643 C 398.86742,182.27456 398.58617,181.41714 398.02368,180.87416 C 397.46508,180.32729 396.58227,180.05386 395.37524,180.05385 L 393.94556,180.05385 M 392.76196,179.08119 L 395.1936,179.08119 C 396.88891,179.0812 398.13305,179.43472 398.92603,180.14174 C 399.71899,180.84487 400.11547,181.94643 400.11548,183.44643 C 400.11547,184.95424 399.71703,186.06166 398.92017,186.76869 C 398.12328,187.47572 396.8811,187.82924 395.1936,187.82924 L 392.76196,187.82924 L 392.76196,179.08119 M 405.54712,179.88393 C 404.68774,179.88393 404.00415,180.20425 403.49634,180.84486 C 402.99243,181.4855 402.74048,182.35854 402.74048,183.464 C 402.74048,184.56557 402.99243,185.43666 403.49634,186.07729 C 404.00415,186.71791 404.68774,187.03822 405.54712,187.03822 C 406.40649,187.03822 407.08618,186.71791 407.58618,186.07729 C 408.09008,185.43666 408.34203,184.56557 408.34204,183.464 C 408.34203,182.35854 408.09008,181.4855 407.58618,180.84486 C 407.08618,180.20425 406.40649,179.88393 405.54712,179.88393 M 405.54712,178.92299 C 406.77368,178.923 407.75414,179.33511 408.48853,180.15932 C 409.22289,180.97964 409.59008,182.0812 409.59009,183.464 C 409.59008,184.84291 409.22289,185.94448 408.48853,186.76869 C 407.75414,187.589 406.77368,187.99916 405.54712,187.99916 C 404.31665,187.99916 403.33227,187.589 402.59399,186.76869 C 401.85962,185.94838 401.49243,184.84682 401.49243,183.464 C 401.49243,182.0812 401.85962,180.97964 402.59399,180.15932 C 403.33227,179.33511 404.31665,178.923 405.54712,178.92299" id="text2260"/>
  <path transform="scale(0.790762,1.264603)" style="font-size:18.35365677px;font-style:normal;font-variant:normal;font-weight:bold;font-stretch:normal;text-align:start;line-height:125%;writing-mode:lr-tb;text-anchor:start;fill:#000000;fill-opacity:1;stroke:none;stroke-width:1px;stroke-linecap:butt;stroke-linejoin:miter;stroke-opacity:1;font-family:Bitstream Vera Sans" d="M 421.18324,111.95874 L 421.18324,120.12289 L 422.41996,120.12289 C 423.82993,120.12289 424.90534,119.77339 425.64619,119.07437 C 426.39299,118.37535 426.76639,117.35969 426.76641,116.02737 C 426.76639,114.70104 426.39598,113.69135 425.65515,112.9983 C 424.9143,112.30527 423.83591,111.95875 422.41996,111.95874 L 421.18324,111.95874 M 417.73297,109.35087 L 421.37143,109.35087 C 423.40276,109.35088 424.9143,109.49726 425.90608,109.79 C 426.90381,110.07679 427.75816,110.56669 428.46914,111.25972 C 429.09645,111.86316 429.56246,112.55919 429.86717,113.34781 C 430.17186,114.13645 430.3242,115.02964 430.32422,116.02737 C 430.3242,117.03707 430.17186,117.93922 429.86717,118.73382 C 429.56246,119.52246 429.09645,120.21848 428.46914,120.82191 C 427.75219,121.51495 426.89186,122.00785 425.88815,122.30059 C 424.88443,122.58737 423.37886,122.73076 421.37143,122.73076 L 417.73297,122.73076 L 417.73297,109.35087 M 432.96793,109.35087 L 442.27919,109.35087 L 442.27919,111.95874 L 436.41821,111.95874 L 436.41821,114.4501 L 441.92968,114.4501 L 441.92968,117.05797 L 436.41821,117.05797 L 436.41821,120.12289 L 442.47635,120.12289 L 442.47635,122.73076 L 432.96793,122.73076 L 432.96793,109.35087 M 443.91919,109.35087 L 447.38738,109.35087 L 450.93624,119.22672 L 454.47613,109.35087 L 457.94432,109.35087 L 452.98848,122.73076 L 448.87503,122.73076 L 443.91919,109.35087 M 459.70979,109.35087 L 463.16006,109.35087 L 463.16006,122.73076 L 459.70979,122.73076 L 459.70979,109.35087 M 477.16727,121.9959 C 476.53396,122.32449 475.87378,122.57243 475.18672,122.73972 C 474.49964,122.90701 473.7827,122.99065 473.0359,122.99065 C 470.80741,122.99065 469.04195,122.3693 467.73951,121.12661 C 466.43707,119.87794 465.78585,118.18716 465.78585,116.05426 C 465.78585,113.9154 466.43707,112.22462 467.73951,110.98191 C 469.04195,109.73325 470.80741,109.10892 473.0359,109.1089 C 473.7827,109.10892 474.49964,109.19256 475.18672,109.35983 C 475.87378,109.52713 476.53396,109.77507 477.16727,110.10366 L 477.16727,112.87284 C 476.52798,112.43671 475.89767,112.11707 475.27634,111.91393 C 474.65498,111.71081 474.00077,111.60924 473.31372,111.60923 C 472.08296,111.60924 471.11509,112.00356 470.41011,112.79218 C 469.70511,113.58082 469.35262,114.66818 469.35262,116.05426 C 469.35262,117.43437 469.70511,118.51874 470.41011,119.30737 C 471.11509,120.09601 472.08296,120.49032 473.31372,120.49032 C 474.00077,120.49032 474.65498,120.38876 475.27634,120.18562 C 475.89767,119.98249 476.52798,119.66286 477.16727,119.22672 L 477.16727,121.9959 M 480.03503,109.35087 L 489.34628,109.35087 L 489.34628,111.95874 L 483.4853,111.95874 L 483.4853,114.4501 L 488.99677,114.4501 L 488.99677,117.05797 L 483.4853,117.05797 L 483.4853,120.12289 L 489.54344,120.12289 L 489.54344,122.73076 L 480.03503,122.73076 L 480.03503,109.35087 M 502.56486,120.19458 L 508.45273,120.19458 L 508.45273,122.73076 L 498.72923,122.73076 L 498.72923,120.19458 L 503.61338,115.88398 C 504.04951,115.48967 504.37214,115.10432 504.58125,114.72792 C 504.79035,114.35153 504.8949,113.9602 504.89491,113.55393 C 504.8949,112.92662 504.68281,112.42177 504.25863,112.0394 C 503.84041,111.65704 503.28179,111.46585 502.58278,111.46584 C 502.04507,111.46585 501.45658,111.58236 500.81732,111.81535 C 500.17804,112.04239 499.49396,112.38294 498.76508,112.83699 L 498.76508,109.89754 C 499.54176,109.64065 500.30948,109.44648 501.06825,109.31502 C 501.827,109.17762 502.57083,109.10892 503.29972,109.1089 C 504.90088,109.10892 506.14357,109.46141 507.02781,110.16639 C 507.918,110.87139 508.3631,111.8542 508.36311,113.1148 C 508.3631,113.8437 508.1749,114.52479 507.79852,115.15808 C 507.42211,115.78541 506.63049,116.62782 505.42366,117.6853 L 502.56486,120.19458" id="text2264"/>
  <path style="color:#000000;fill:#ffffff;fill-opacity:1;fill-rule:evenodd;stroke:#000000;stroke-width:1.5;stroke-linecap:butt;stroke-linejoin:miter;stroke-miterlimit:4;stroke-dashoffset:0;stroke-opacity:1;marker:none;marker-start:none;marker-mid:none;marker-end:none;visibility:visible;display:inline;overflow:visible" d="M 483.83975,98.008308 L 613.51431,98.008308 L 613.51431,201.74795 L 483.83975,201.74795 L 483.83975,98.008308 z " id="rect2268"/>
  <path style="font-size:12px;font-style:normal;font-weight:normal;fill:#000000;fill-opacity:1;stroke:none;stroke-width:1px;stroke-linecap:butt;stroke-linejoin:miter;stroke-opacity:1;font-family:Bitstream Vera Sans" d="M 488.21317,113.0812 L 495.61356,113.0812 L 495.61356,114.07729 L 492.50809,114.07729 L 492.50809,121.82925 L 491.31863,121.82925 L 491.31863,114.07729 L 488.21317,114.07729 L 488.21317,113.0812 M 496.76199,113.0812 L 498.52567,113.0812 L 500.75809,119.03432 L 503.00223,113.0812 L 504.7659,113.0812 L 504.7659,121.82925 L 503.6116,121.82925 L 503.6116,114.14761 L 501.35574,120.14761 L 500.16629,120.14761 L 497.91043,114.14761 L 497.91043,121.82925 L 496.76199,121.82925 L 496.76199,113.0812 M 512.36551,113.36831 L 512.36551,114.52261 C 511.91628,114.30777 511.49246,114.14761 511.09402,114.04214 C 510.69558,113.93668 510.31082,113.88394 509.93973,113.88393 C 509.29519,113.88394 508.79715,114.00894 508.44559,114.25893 C 508.09793,114.50894 507.9241,114.86441 507.9241,115.32534 C 507.9241,115.71207 508.03934,116.00503 508.26981,116.20425 C 508.50418,116.39956 508.94558,116.55777 509.59402,116.67886 L 510.30887,116.82534 C 511.19168,116.99331 511.84207,117.29019 512.26004,117.71597 C 512.68191,118.13784 512.89285,118.70425 512.89285,119.41518 C 512.89285,120.26284 512.60769,120.90542 512.03738,121.34292 C 511.47097,121.78042 510.63894,121.99917 509.54129,121.99917 C 509.12722,121.99917 508.68582,121.95229 508.21707,121.85854 C 507.75223,121.76479 507.2698,121.62612 506.76981,121.44253 L 506.76981,120.22378 C 507.25027,120.49331 507.72098,120.69644 508.18192,120.83315 C 508.64285,120.96987 509.09597,121.03823 509.54129,121.03823 C 510.21707,121.03823 510.73855,120.90542 511.10574,120.63979 C 511.47293,120.37417 511.65652,119.99526 511.65652,119.50307 C 511.65652,119.07339 511.52371,118.73745 511.25809,118.49526 C 510.99636,118.25308 510.56472,118.07144 509.96317,117.95034 L 509.24246,117.80972 C 508.35965,117.63394 507.72098,117.35855 507.32645,116.98354 C 506.93191,116.60855 506.73465,116.08706 506.73465,115.41909 C 506.73465,114.64566 507.00613,114.03629 507.5491,113.59097 C 508.09598,113.14566 508.84793,112.92301 509.80496,112.923 C 510.21511,112.92301 510.63308,112.96011 511.05887,113.03432 C 511.48464,113.10855 511.92019,113.21988 512.36551,113.36831" id="text2270"/>
  <path style="font-size:12px;font-style:normal;font-weight:normal;fill:#000000;fill-opacity:1;stroke:none;stroke-width:1px;stroke-linecap:butt;stroke-linejoin:miter;stroke-opacity:1;font-family:Bitstream Vera Sans" d="M 488.21317,133.08119 L 495.61356,133.08119 L 495.61356,134.07729 L 492.50809,134.07729 L 492.50809,141.82924 L 491.31863,141.82924 L 491.31863,134.07729 L 488.21317,134.07729 L 488.21317,133.08119 M 503.31277,133.75502 L 503.31277,135.00307 C 502.91433,134.63198 502.48855,134.35464 502.03543,134.17104 C 501.58621,133.98745 501.10769,133.89565 500.59988,133.89565 C 499.59988,133.89565 498.83426,134.20229 498.30301,134.81557 C 497.77176,135.42495 497.50613,136.30776 497.50613,137.464 C 497.50613,138.61635 497.77176,139.49916 498.30301,140.11244 C 498.83426,140.72182 499.59988,141.02651 500.59988,141.0265 C 501.10769,141.02651 501.58621,140.93471 502.03543,140.75111 C 502.48855,140.56752 502.91433,140.29018 503.31277,139.91908 L 503.31277,141.15541 C 502.8987,141.43666 502.45925,141.6476 501.99442,141.78822 C 501.53347,141.92885 501.04519,141.99916 500.52957,141.99916 C 499.20535,141.99916 498.16238,141.59486 497.40067,140.78627 C 496.63895,139.97377 496.25809,138.86635 496.25809,137.464 C 496.25809,136.05776 496.63895,134.95034 497.40067,134.14174 C 498.16238,133.32925 499.20535,132.923 500.52957,132.92299 C 501.053,132.923 501.54519,132.99331 502.00613,133.13393 C 502.47097,133.27065 502.90652,133.47768 503.31277,133.75502 M 505.15262,133.08119 L 506.33621,133.08119 L 506.33621,136.77846 L 510.26199,133.08119 L 511.78543,133.08119 L 507.44363,137.15932 L 512.09598,141.82924 L 510.53738,141.82924 L 506.33621,137.61635 L 506.33621,141.82924 L 505.15262,141.82924 L 505.15262,133.08119" id="text2274"/>
  <path style="font-size:12px;font-style:normal;font-weight:normal;fill:#000000;fill-opacity:1;stroke:none;stroke-width:1px;stroke-linecap:butt;stroke-linejoin:miter;stroke-opacity:1;font-family:Bitstream Vera Sans" d="M 488.21317,179.08119 L 495.61356,179.08119 L 495.61356,180.07729 L 492.50809,180.07729 L 492.50809,187.82924 L 491.31863,187.82924 L 491.31863,180.07729 L 488.21317,180.07729 L 488.21317,179.08119 M 497.94559,180.05385 L 497.94559,186.85658 L 499.37527,186.85658 C 500.5823,186.85658 501.46511,186.58315 502.02371,186.03627 C 502.58621,185.4894 502.86745,184.62612 502.86746,183.44643 C 502.86745,182.27456 502.58621,181.41714 502.02371,180.87416 C 501.46511,180.32729 500.5823,180.05386 499.37527,180.05385 L 497.94559,180.05385 M 496.76199,179.08119 L 499.19363,179.08119 C 500.88894,179.0812 502.13308,179.43472 502.92606,180.14174 C 503.71902,180.84487 504.1155,181.94643 504.11551,183.44643 C 504.1155,184.95424 503.71706,186.06166 502.9202,186.76869 C 502.12331,187.47572 500.88113,187.82924 499.19363,187.82924 L 496.76199,187.82924 L 496.76199,179.08119 M 505.99637,179.08119 L 507.17996,179.08119 L 507.17996,187.82924 L 505.99637,187.82924 L 505.99637,179.08119" id="text2278"/>
  <path style="font-size:12px;font-style:normal;font-weight:normal;fill:#000000;fill-opacity:1;stroke:none;stroke-width:1px;stroke-linecap:butt;stroke-linejoin:miter;stroke-opacity:1;font-family:Bitstream Vera Sans" d="M 584.2132,179.08119 L 591.61359,179.08119 L 591.61359,180.07729 L 588.50812,180.07729 L 588.50812,187.82924 L 587.31866,187.82924 L 587.31866,180.07729 L 584.2132,180.07729 L 584.2132,179.08119 M 593.94562,180.05385 L 593.94562,186.85658 L 595.37531,186.85658 C 596.58233,186.85658 597.46514,186.58315 598.02374,186.03627 C 598.58624,185.4894 598.86749,184.62612 598.86749,183.44643 C 598.86749,182.27456 598.58624,181.41714 598.02374,180.87416 C 597.46514,180.32729 596.58233,180.05386 595.37531,180.05385 L 593.94562,180.05385 M 592.76202,179.08119 L 595.19366,179.08119 C 596.88897,179.0812 598.13311,179.43472 598.92609,180.14174 C 599.71905,180.84487 600.11553,181.94643 600.11554,183.44643 C 600.11553,184.95424 599.71709,186.06166 598.92023,186.76869 C 598.12335,187.47572 596.88116,187.82924 595.19366,187.82924 L 592.76202,187.82924 L 592.76202,179.08119 M 605.54718,179.88393 C 604.6878,179.88393 604.00421,180.20425 603.4964,180.84486 C 602.99249,181.4855 602.74054,182.35854 602.74054,183.464 C 602.74054,184.56557 602.99249,185.43666 603.4964,186.07729 C 604.00421,186.71791 604.6878,187.03822 605.54718,187.03822 C 606.40655,187.03822 607.08624,186.71791 607.58624,186.07729 C 608.09014,185.43666 608.34209,184.56557 608.3421,183.464 C 608.34209,182.35854 608.09014,181.4855 607.58624,180.84486 C 607.08624,180.20425 606.40655,179.88393 605.54718,179.88393 M 605.54718,178.92299 C 606.77374,178.923 607.7542,179.33511 608.48859,180.15932 C 609.22295,180.97964 609.59014,182.0812 609.59015,183.464 C 609.59014,184.84291 609.22295,185.94448 608.48859,186.76869 C 607.7542,187.589 606.77374,187.99916 605.54718,187.99916 C 604.31671,187.99916 603.33233,187.589 602.59406,186.76869 C 601.85968,185.94838 601.49249,184.84682 601.49249,183.464 C 601.49249,182.0812 601.85968,180.97964 602.59406,180.15932 C 603.33233,179.33511 604.31671,178.923 605.54718,178.92299" id="text2282"/>
  <path transform="scale(0.790762,1.264603)" style="font-size:18.35365677px;font-style:normal;font-variant:normal;font-weight:bold;font-stretch:normal;text-align:start;line-height:125%;writing-mode:lr-tb;text-anchor:start;fill:#000000;fill-opacity:1;stroke:none;stroke-width:1px;stroke-linecap:butt;stroke-linejoin:miter;stroke-opacity:1;font-family:Bitstream Vera Sans" d="M 674.10377,111.95874 L 674.10377,120.12289 L 675.34049,120.12289 C 676.75046,120.12289 677.82587,119.77339 678.56672,119.07437 C 679.31352,118.37535 679.68693,117.35969 679.68694,116.02737 C 679.68693,114.70104 679.31651,113.69135 678.57568,112.9983 C 677.83483,112.30527 676.75644,111.95875 675.34049,111.95874 L 674.10377,111.95874 M 670.6535,109.35087 L 674.29197,109.35087 C 676.32329,109.35088 677.83483,109.49726 678.82661,109.79 C 679.82434,110.07679 680.67869,110.56669 681.38967,111.25972 C 682.01698,111.86316 682.48299,112.55919 682.7877,113.34781 C 683.09239,114.13645 683.24474,115.02964 683.24475,116.02737 C 683.24474,117.03707 683.09239,117.93922 682.7877,118.73382 C 682.48299,119.52246 682.01698,120.21848 681.38967,120.82191 C 680.67272,121.51495 679.81239,122.00785 678.80869,122.30059 C 677.80496,122.58737 676.29939,122.73076 674.29197,122.73076 L 670.6535,122.73076 L 670.6535,109.35087 M 685.88847,109.35087 L 695.19972,109.35087 L 695.19972,111.95874 L 689.33874,111.95874 L 689.33874,114.4501 L 694.85021,114.4501 L 694.85021,117.05797 L 689.33874,117.05797 L 689.33874,120.12289 L 695.39688,120.12289 L 695.39688,122.73076 L 685.88847,122.73076 L 685.88847,109.35087 M 696.83972,109.35087 L 700.30792,109.35087 L 703.85677,119.22672 L 707.39666,109.35087 L 710.86485,109.35087 L 705.90901,122.73076 L 701.79557,122.73076 L 696.83972,109.35087 M 712.63032,109.35087 L 716.08059,109.35087 L 716.08059,122.73076 L 712.63032,122.73076 L 712.63032,109.35087 M 730.0878,121.9959 C 729.45449,122.32449 728.79431,122.57243 728.10725,122.73972 C 727.42018,122.90701 726.70324,122.99065 725.95643,122.99065 C 723.72794,122.99065 721.96248,122.3693 720.66004,121.12661 C 719.3576,119.87794 718.70638,118.18716 718.70638,116.05426 C 718.70638,113.9154 719.3576,112.22462 720.66004,110.98191 C 721.96248,109.73325 723.72794,109.10892 725.95643,109.1089 C 726.70324,109.10892 727.42018,109.19256 728.10725,109.35983 C 728.79431,109.52713 729.45449,109.77507 730.0878,110.10366 L 730.0878,112.87284 C 729.44852,112.43671 728.81821,112.11707 728.19687,111.91393 C 727.57551,111.71081 726.92131,111.60924 726.23425,111.60923 C 725.00349,111.60924 724.03563,112.00356 723.33064,112.79218 C 722.62565,113.58082 722.27315,114.66818 722.27316,116.05426 C 722.27315,117.43437 722.62565,118.51874 723.33064,119.30737 C 724.03563,120.09601 725.00349,120.49032 726.23425,120.49032 C 726.92131,120.49032 727.57551,120.38876 728.19687,120.18562 C 728.81821,119.98249 729.44852,119.66286 730.0878,119.22672 L 730.0878,121.9959 M 732.95556,109.35087 L 742.26681,109.35087 L 742.26681,111.95874 L 736.40583,111.95874 L 736.40583,114.4501 L 741.91731,114.4501 L 741.91731,117.05797 L 736.40583,117.05797 L 736.40583,120.12289 L 742.46397,120.12289 L 742.46397,122.73076 L 732.95556,122.73076 L 732.95556,109.35087 M 758.74747,115.51655 C 759.64961,115.74957 760.33369,116.15583 760.79971,116.73535 C 761.27168,117.30891 761.50767,118.04078 761.50768,118.93098 C 761.50767,120.25732 760.99984,121.26701 759.98419,121.96005 C 758.96851,122.64712 757.48684,122.99065 755.53916,122.99065 C 754.85209,122.99065 754.16204,122.93389 753.469,122.82038 C 752.78193,122.71284 752.10084,122.54854 751.42572,122.32748 L 751.42572,119.66584 C 752.07096,119.98847 752.71023,120.23342 753.34353,120.4007 C 753.9828,120.56202 754.61012,120.64267 755.2255,120.64267 C 756.13959,120.64267 756.83861,120.48435 757.32255,120.1677 C 757.81245,119.85105 758.0574,119.39699 758.05741,118.80551 C 758.0574,118.19612 757.80648,117.73608 757.30462,117.4254 C 756.80873,117.10876 756.07387,116.95044 755.10004,116.95043 L 753.71993,116.95043 L 753.71993,114.72792 L 755.17173,114.72792 C 756.03803,114.72793 756.68327,114.5935 757.10747,114.32464 C 757.53165,114.04982 757.74374,113.6346 757.74375,113.07896 C 757.74374,112.56516 757.53762,112.16786 757.12539,111.88705 C 756.71314,111.60626 756.13063,111.46585 755.37785,111.46584 C 754.82222,111.46585 754.26061,111.52859 753.69304,111.65404 C 753.12546,111.77952 752.56087,111.96472 751.99927,112.20967 L 751.99927,109.68246 C 752.68036,109.49129 753.35548,109.3479 754.02463,109.25229 C 754.69376,109.15671 755.35096,109.10892 755.99621,109.1089 C 757.73478,109.10892 759.03423,109.39569 759.89457,109.96923 C 760.76086,110.53682 761.19401,111.39416 761.19402,112.54125 C 761.19401,113.32392 760.98789,113.96618 760.57566,114.46803 C 760.16341,114.96392 759.55401,115.31343 758.74747,115.51655" id="text2286"/>
  <path style="color:#000000;fill:#ffffff;fill-opacity:1;fill-rule:evenodd;stroke:#000000;stroke-width:1.17534173;stroke-linecap:butt;stroke-linejoin:miter;stroke-miterlimit:4;stroke-dashoffset:0;stroke-opacity:1;marker:none;marker-start:none;marker-mid:none;marker-end:none;visibility:visible;display:inline;overflow:visible" d="M 5.5661516,235.03483 L 26.100619,235.03483 L 26.100619,245.76709 L 5.5661516,245.76709 L 2.7912236,240.40096 L 5.5661516,235.03483 z " id="rect2300"/>
  <path style="color:#000000;fill:#ffffff;fill-opacity:1;fill-rule:evenodd;stroke:#000000;stroke-width:1.17534173;stroke-linecap:butt;stroke-linejoin:miter;stroke-miterlimit:4;stroke-dashoffset:0;stroke-opacity:1;marker:none;marker-start:none;marker-mid:none;marker-end:none;visibility:visible;display:inline;overflow:visible" d="M 25.089032,187.76709 L 4.5545646,187.76709 L 4.5545646,177.03483 L 25.089032,177.03483 L 27.86396,182.40096 L 25.089032,187.76709 z " id="path2303"/>
  <path style="color:#000000;fill:#ffffff;fill-opacity:1;fill-rule:evenodd;stroke:#000000;stroke-width:1.17534173;stroke-linecap:butt;stroke-linejoin:miter;stroke-miterlimit:4;stroke-dashoffset:0;stroke-opacity:1;marker:none;marker-start:none;marker-mid:none;marker-end:none;visibility:visible;display:inline;overflow:visible" d="M 25.089032,67.767088 L 4.5545646,67.767088 L 4.5545646,57.034828 L 25.089032,57.034828 L 27.86396,62.400958 L 25.089032,67.767088 z " id="path2305"/>
  <path style="color:#000000;fill:#ffffff;fill-opacity:1;fill-rule:evenodd;stroke:#000000;stroke-width:1.17534173;stroke-linecap:butt;stroke-linejoin:miter;stroke-miterlimit:4;stroke-dashoffset:0;stroke-opacity:1;marker:none;marker-start:none;marker-mid:none;marker-end:none;visibility:visible;display:inline;overflow:visible" d="M 25.089032,27.767088 L 4.5545646,27.767088 L 4.5545646,17.034828 L 25.089032,17.034828 L 27.86396,22.400958 L 25.089032,27.767088 z " id="path2307"/>
  <path transform="translate(-40.89736,-82.29347)" style="color:#000000;fill:#000000;fill-opacity:1;fill-rule:evenodd;stroke:#000000;stroke-width:1.5;stroke-linecap:butt;stroke-linejoin:miter;stroke-miterlimit:4;stroke-dashoffset:0;stroke-opacity:1;marker:none;marker-start:none;marker-mid:none;marker-end:none;visibility:visible;display:inline;overflow:visible" d="M 309.72267,103.99232 C 309.72267,105.23121 308.71719,106.23668 307.4783,106.23668 C 306.23941,106.23668 305.23393,105.23121 305.23393,103.99232 C 305.23393,102.75343 306.23941,101.74795 307.4783,101.74795 C 308.71719,101.74795 309.72267,102.75343 309.72267,103.99232 z " id="path2313"/>
  <path transform="translate(-55.41111,-42.29347)" style="color:#000000;fill:#000000;fill-opacity:1;fill-rule:evenodd;stroke:#000000;stroke-width:1.5;stroke-linecap:butt;stroke-linejoin:miter;stroke-miterlimit:4;stroke-dashoffset:0;stroke-opacity:1;marker:none;marker-start:none;marker-mid:none;marker-end:none;visibility:visible;display:inline;overflow:visible" d="M 309.72267,103.99232 C 309.72267,105.23121 308.71719,106.23668 307.4783,106.23668 C 306.23941,106.23668 305.23393,105.23121 305.23393,103.99232 C 305.23393,102.75343 306.23941,101.74795 307.4783,101.74795 C 308.71719,101.74795 309.72267,102.75343 309.72267,103.99232 z " id="path2327"/>
  <path transform="translate(-255.4111,-42.29347)" style="color:#000000;fill:#000000;fill-opacity:1;fill-rule:evenodd;stroke:#000000;stroke-width:1.5;stroke-linecap:butt;stroke-linejoin:miter;stroke-miterlimit:4;stroke-dashoffset:0;stroke-opacity:1;marker:none;marker-start:none;marker-mid:none;marker-end:none;visibility:visible;display:inline;overflow:visible" d="M 309.72267,103.99232 C 309.72267,105.23121 308.71719,106.23668 307.4783,106.23668 C 306.23941,106.23668 305.23393,105.23121 305.23393,103.99232 C 305.23393,102.75343 306.23941,101.74795 307.4783,101.74795 C 308.71719,101.74795 309.72267,102.75343 309.72267,103.99232 z " id="path2331"/>
  <path style="font-size:12px;font-style:normal;font-weight:normal;fill:#000000;fill-opacity:1;stroke:none;stroke-width:1px;stroke-linecap:butt;stroke-linejoin:miter;stroke-opacity:1;font-family:Bitstream Vera Sans" d="M 2.5704343,221.90248 L 9.970825,221.90248 L 9.970825,222.89857 L 6.8653562,222.89857 L 6.8653562,230.65053 L 5.6759031,230.65053 L 5.6759031,222.89857 L 2.5704343,222.89857 L 2.5704343,221.90248 M 12.302856,222.87514 L 12.302856,229.67787 L 13.732544,229.67787 C 14.93957,229.67787 15.822382,229.40444 16.380981,228.85756 C 16.943474,228.31069 17.224724,227.44741 17.224731,226.26772 C 17.224724,225.09585 16.943474,224.23842 16.380981,223.69545 C 15.822382,223.14858 14.93957,222.87515 13.732544,222.87514 L 12.302856,222.87514 M 11.119262,221.90248 L 13.550903,221.90248 C 15.24621,221.90249 16.49035,222.25601 17.283325,222.96303 C 18.076286,223.66616 18.47277,224.76772 18.472778,226.26772 C 18.47277,227.77553 18.074332,228.88295 17.277466,229.58998 C 16.480584,230.29701 15.238398,230.65053 13.550903,230.65053 L 11.119262,230.65053 L 11.119262,221.90248 M 23.904419,222.70522 C 23.04504,222.70522 22.361447,223.02554 21.853637,223.66615 C 21.349729,224.30678 21.097776,225.17983 21.097778,226.28529 C 21.097776,227.38686 21.349729,228.25795 21.853637,228.89857 C 22.361447,229.5392 23.04504,229.85951 23.904419,229.85951 C 24.763788,229.85951 25.443475,229.5392 25.943481,228.89857 C 26.44738,228.25795 26.699333,227.38686 26.699341,226.28529 C 26.699333,225.17983 26.44738,224.30678 25.943481,223.66615 C 25.443475,223.02554 24.763788,222.70522 23.904419,222.70522 M 23.904419,221.74428 C 25.130975,221.74429 26.111443,222.1564 26.845825,222.98061 C 27.580192,223.80093 27.947379,224.90249 27.947387,226.28529 C 27.947379,227.6642 27.580192,228.76576 26.845825,229.58998 C 26.111443,230.41029 25.130975,230.82045 23.904419,230.82045 C 22.673946,230.82045 21.689572,230.41029 20.951294,229.58998 C 20.216918,228.76967 19.849731,227.66811 19.849731,226.28529 C 19.849731,224.90249 20.216918,223.80093 20.951294,222.98061 C 21.689572,222.1564 22.673946,221.74429 23.904419,221.74428" id="text2333"/>
  <path style="font-size:12px;font-style:normal;font-weight:normal;fill:#000000;fill-opacity:1;stroke:none;stroke-width:1px;stroke-linecap:butt;stroke-linejoin:miter;stroke-opacity:1;font-family:Bitstream Vera Sans" d="M 4.6864467,163.31316 L 12.086837,163.31316 L 12.086837,164.30925 L 8.9813685,164.30925 L 8.9813685,172.0612 L 7.7919154,172.0612 L 7.7919154,164.30925 L 4.6864467,164.30925 L 4.6864467,163.31316 M 14.418869,164.28581 L 14.418869,171.08855 L 15.848556,171.08855 C 17.055582,171.08855 17.938394,170.81511 18.496994,170.26823 C 19.059487,169.72136 19.340736,168.85808 19.340744,167.67839 C 19.340736,166.50652 19.059487,165.6491 18.496994,165.10612 C 17.938394,164.55926 17.055582,164.28582 15.848556,164.28581 L 14.418869,164.28581 M 13.235275,163.31316 L 15.666915,163.31316 C 17.362223,163.31316 18.606362,163.66668 19.399337,164.3737 C 20.192298,165.07683 20.588782,166.1784 20.58879,167.67839 C 20.588782,169.18621 20.190345,170.29363 19.393478,171.00066 C 18.596596,171.70769 17.35441,172.0612 15.666915,172.0612 L 13.235275,172.0612 L 13.235275,163.31316 M 22.46965,163.31316 L 23.653244,163.31316 L 23.653244,172.0612 L 22.46965,172.0612 L 22.46965,163.31316" id="text2337"/>
  <path style="font-size:12px;font-style:normal;font-weight:normal;fill:#000000;fill-opacity:1;stroke:none;stroke-width:1px;stroke-linecap:butt;stroke-linejoin:miter;stroke-opacity:1;font-family:Bitstream Vera Sans" d="M 3.2757719,43.31316 L 10.676162,43.31316 L 10.676162,44.309254 L 7.5706937,44.309254 L 7.5706937,52.061207 L 6.3812406,52.061207 L 6.3812406,44.309254 L 3.2757719,44.309254 L 3.2757719,43.31316 M 18.375381,43.986988 L 18.375381,45.235035 C 17.976936,44.863948 17.551156,44.586605 17.098037,44.403004 C 16.648813,44.219418 16.170298,44.127621 15.662491,44.127613 C 14.662487,44.127621 13.896862,44.434261 13.365616,45.047535 C 12.834363,45.656916 12.568739,46.539728 12.568741,47.695972 C 12.568739,48.848319 12.834363,49.731131 13.365616,50.34441 C 13.896862,50.953786 14.662487,51.258473 15.662491,51.258472 C 16.170298,51.258473 16.648813,51.166676 17.098037,50.983082 C 17.551156,50.799489 17.976936,50.522146 18.375381,50.151051 L 18.375381,51.387379 C 17.961311,51.668629 17.521859,51.879566 17.057022,52.020191 C 16.596078,52.160816 16.107798,52.231129 15.592178,52.231129 C 14.267956,52.231129 13.224988,51.826832 12.463272,51.018238 C 11.701552,50.20574 11.320693,49.098319 11.320694,47.695972 C 11.320693,46.289728 11.701552,45.182307 12.463272,44.373707 C 13.224988,43.561215 14.267956,43.154966 15.592178,43.154957 C 16.11561,43.154966 16.607797,43.225278 17.068741,43.365894 C 17.533577,43.502622 17.969124,43.709653 18.375381,43.986988 M 20.215225,43.31316 L 21.398819,43.31316 L 21.398819,47.010426 L 25.3246,43.31316 L 26.848037,43.31316 L 22.506241,47.391285 L 27.158584,52.061207 L 25.599991,52.061207 L 21.398819,47.848316 L 21.398819,52.061207 L 20.215225,52.061207 L 20.215225,43.31316" id="text2341"/>
  <path style="font-size:12px;font-style:normal;font-weight:normal;fill:#000000;fill-opacity:1;stroke:none;stroke-width:1px;stroke-linecap:butt;stroke-linejoin:miter;stroke-opacity:1;font-family:Bitstream Vera Sans" d="M 1.8650967,4.0184984 L 9.2654873,4.0184984 L 9.2654873,5.0145922 L 6.1600186,5.0145922 L 6.1600186,12.766545 L 4.9705654,12.766545 L 4.9705654,5.0145922 L 1.8650967,5.0145922 L 1.8650967,4.0184984 M 10.413925,4.0184984 L 12.177597,4.0184984 L 14.410019,9.9716234 L 16.654159,4.0184984 L 18.417831,4.0184984 L 18.417831,12.766545 L 17.263534,12.766545 L 17.263534,5.0849047 L 15.007675,11.084905 L 13.818222,11.084905 L 11.562362,5.0849047 L 11.562362,12.766545 L 10.413925,12.766545 L 10.413925,4.0184984 M 26.01744,4.3056078 L 26.01744,5.4599047 C 25.568216,5.2450684 25.144388,5.0849124 24.745956,4.9794359 C 24.347514,4.8739751 23.962749,4.8212407 23.591659,4.8212328 C 22.947125,4.8212407 22.449078,4.9462406 22.097519,5.1962328 C 21.74986,5.4462401 21.576032,5.8017085 21.576034,6.262639 C 21.576032,6.6493639 21.691266,6.9423324 21.921737,7.1415453 C 22.15611,7.3368632 22.597516,7.4950662 23.245956,7.6161547 L 23.9608,7.762639 C 24.843607,7.9306126 25.493997,8.2274873 25.911972,8.653264 C 26.33384,9.0751427 26.544777,9.6415484 26.544784,10.352483 C 26.544777,11.200141 26.259621,11.842718 25.689315,12.280217 C 25.122904,12.717717 24.290873,12.936467 23.193222,12.936467 C 22.779156,12.936467 22.33775,12.889592 21.869003,12.795842 C 21.404157,12.702092 20.921736,12.56342 20.421737,12.379827 L 20.421737,11.161077 C 20.902205,11.430609 21.372907,11.633734 21.833847,11.770452 C 22.294781,11.907171 22.747906,11.97553 23.193222,11.97553 C 23.868999,11.97553 24.390483,11.842718 24.757675,11.577092 C 25.124857,11.311469 25.30845,10.932563 25.308456,10.440373 C 25.30845,10.010689 25.175638,9.6747515 24.910019,9.4325609 C 24.648295,9.190377 24.216655,9.0087366 23.615097,8.887639 L 22.894394,8.747014 C 22.011579,8.571237 21.372907,8.2958466 20.978378,7.9208422 C 20.583846,7.5458474 20.38658,7.0243635 20.386581,6.356389 C 20.38658,5.5829587 20.658064,4.9735843 21.201034,4.528264 C 21.747907,4.0829602 22.499859,3.8603042 23.456894,3.8602953 C 23.867046,3.8603042 24.285014,3.8974135 24.7108,3.9716234 C 25.136576,4.0458509 25.572122,4.1571789 26.01744,4.3056078" id="text2345"/>
</svg>