<?xml version="1.0" encoding="UTF-8"?>
<!DOCTYPE svg PUBLIC "-//W3C//DTD SVG 1.1//EN" "http://www.w3.org/Graphics/SVG/1.1/DTD/svg11.dtd">
<svg version="1.1" xmlns="http://www.w3.org/2000/svg" xmlns:xlink="http://www.w3.org/1999/xlink" x="0" y="0" width="900.911" height="418.202" viewBox="0, 0, 900.911, 418.202">
  <g id="Layer_1">
    <g>
      <path d="M73.411,44.702 L462.411,44.702 L462.411,295.702 L73.411,295.702 L73.411,44.702 z" fill="#E6E6E6"/>
      <path d="M73.411,44.702 L462.411,44.702 L462.411,295.702 L73.411,295.702 L73.411,44.702 z" fill-opacity="0" stroke="#000000" stroke-width="2"/>
    </g>
    <g>
      <path d="M536.411,44.702 L896.411,44.702 L896.411,295.702 L536.411,295.702 L536.411,44.702 z" fill="#E6E6E6"/>
      <path d="M536.411,44.702 L896.411,44.702 L896.411,295.702 L536.411,295.702 L536.411,44.702 z" fill-opacity="0" stroke="#000000" stroke-width="2"/>
    </g>
    <text transform="matrix(1, 0, 0, 1, 283.899, 25.535)">
      <tspan x="-131.145" y="4.465" font-family="Avenir-Medium" font-size="30" fill="#656565">Oscilloscope Probe</tspan>
    </text>
    <text transform="matrix(1, 0, 0, 1, 699.428, 27.869)">
      <tspan x="-86.385" y="9" font-family="Avenir-Medium" font-size="30" fill="#656565">Oscilloscope</tspan>
    </text>
    <text transform="matrix(1, 0, 0, 1, 315.479, 101.035)">
      <tspan x="-31.56" y="5.333" font-family="Avenir-Medium" font-size="24" fill="#656565">Cable</tspan>
    </text>
    <text transform="matrix(1, 0, 0, 1, 474.718, 384.702)">
      <tspan x="-79.152" y="-9.5" font-family="Avenir-Medium" font-size="24" fill="#656565">Compensation </tspan>
      <tspan x="-60.888" y="23.5" font-family="Avenir-Medium" font-size="24" fill="#656565">adjustment</tspan>
    </text>
    <text transform="matrix(1, 0, 0, 1, 772.792, 200.376)">
      <tspan x="-28.452" y="-9.5" font-family="Avenir-Medium" font-size="24" fill="#656565">Input </tspan>
      <tspan x="-64.032" y="23.5" font-family="Avenir-Medium" font-size="24" fill="#656565">capacitance</tspan>
    </text>
    <text transform="matrix(1, 0, 0, 1, 569.093, 192.626)">
      <tspan x="-17.544" y="6.431" font-family="Avenir-Medium" font-size="24" fill="#656565">1M</tspan>
    </text>
    <text transform="matrix(1, 0, 0, 1, 177.066, 165.206)">
      <tspan x="-17.544" y="6.431" font-family="Avenir-Medium" font-size="24" fill="#656565">9M</tspan>
    </text>
    <g>
      <path d="M21.9,132.702 L280.693,132.702" fill-opacity="0" stroke="#000000" stroke-width="3"/>
      <path d="M21.9,132.702 L24.7,128.502 L13.5,132.702 L24.7,136.902 z" fill="#000000" fill-opacity="1" stroke="#000000" stroke-width="3" stroke-opacity="1"/>
    </g>
    <path d="M282.943,132.702 L385.443,132.702" fill-opacity="0" stroke="#000000" stroke-width="3" stroke-dasharray="9,6"/>
    <g>
      <path d="M691.943,132.702 L780.843,132.702" fill-opacity="0" stroke="#000000" stroke-width="3" stroke-dasharray="9,6"/>
      <path d="M780.843,136.902 L792.043,132.702 L780.843,128.502 z" fill="#000000" fill-opacity="1" stroke="#000000" stroke-width="3" stroke-opacity="1"/>
    </g>
    <g>
      <path d="M694.443,253.55 L783.343,253.55" fill-opacity="0" stroke="#000000" stroke-width="3" stroke-dasharray="9,6"/>
      <path d="M783.343,257.75 L794.543,253.55 L783.343,249.35 z" fill="#000000" fill-opacity="1" stroke="#000000" stroke-width="3" stroke-opacity="1"/>
    </g>
    <path d="M367.098,132.702 L462.065,132.702" fill-opacity="0" stroke="#000000" stroke-width="3"/>
    <path d="M537.24,132.702 L719.178,132.702" fill-opacity="0" stroke="#000000" stroke-width="3"/>
    <path d="M522.969,120.202 C540.892,120.202 540.892,144.517 522.969,145.202" fill-opacity="0" stroke="#000000" stroke-width="3"/>
    <path d="M522.969,241.05 C540.892,241.05 540.892,265.365 522.969,266.05" fill-opacity="0" stroke="#000000" stroke-width="3"/>
    <path d="M271.289,148.202 C266.661,148.202 262.91,141.262 262.91,132.702 C262.91,124.142 266.661,117.202 271.289,117.202 C275.916,117.202 279.667,124.142 279.667,132.702 C279.667,141.262 275.916,148.202 271.289,148.202 z" fill-opacity="0" stroke="#000000" stroke-width="3"/>
    <path d="M359.565,148.202 C358.847,148.168 359.275,148.208 358.289,148.023" fill-opacity="0" stroke="#000000" stroke-width="3"/>
    <path d="M358.289,117.222 L358.72,117.202 C363.347,117.202 367.098,124.142 367.098,132.702 C367.098,141.262 363.347,148.202 358.72,148.202" fill-opacity="0" stroke="#000000" stroke-width="3"/>
    <path d="M271.289,148.202 L358.289,148.202" fill-opacity="0" stroke="#000000" stroke-width="3"/>
    <path d="M271.289,117.202 L358.289,117.202" fill-opacity="0" stroke="#000000" stroke-width="3"/>
    <path d="M462.411,253.55 L380.801,253.55" fill-opacity="0" stroke="#000000" stroke-width="3"/>
    <path d="M719.178,253.55 L537.24,253.55" fill-opacity="0" stroke="#000000" stroke-width="3"/>
    <path d="M380.801,253.55 C364.134,252.301 359.564,148.202 359.564,148.202" fill-opacity="0" stroke="#000000" stroke-width="3"/>
    <path d="M410.07,253.55 L410.07,132.702" fill-opacity="0" stroke="#000000" stroke-width="3"/>
    <path d="M603.334,253.55 L603.334,132.702" fill-opacity="0" stroke="#000000" stroke-width="3"/>
    <path d="M683.566,253.55 L683.566,132.702" fill-opacity="0" stroke="#000000" stroke-width="3"/>
    <path d="M73.411,253.55 C225.278,251.634 269.517,194.272 271.289,148.202" fill-opacity="0" stroke="#000000" stroke-width="3"/>
    <g>
      <path d="M237.133,136.985 C235.07,136.985 233.399,135.313 233.399,133.251 C233.399,131.189 235.07,129.517 237.133,129.517 C239.195,129.517 240.867,131.189 240.867,133.251 C240.867,135.313 239.195,136.985 237.133,136.985 z" fill="#000000"/>
      <path d="M237.133,136.985 C235.07,136.985 233.399,135.313 233.399,133.251 C233.399,131.189 235.07,129.517 237.133,129.517 C239.195,129.517 240.867,131.189 240.867,133.251 C240.867,135.313 239.195,136.985 237.133,136.985 z" fill-opacity="0" stroke="#000000" stroke-width="3"/>
    </g>
    <g>
      <path d="M105.133,136.985 C103.07,136.985 101.399,135.313 101.399,133.251 C101.399,131.189 103.07,129.517 105.133,129.517 C107.195,129.517 108.867,131.189 108.867,133.251 C108.867,135.313 107.195,136.985 105.133,136.985 z" fill="#000000"/>
      <path d="M105.133,136.985 C103.07,136.985 101.399,135.313 101.399,133.251 C101.399,131.189 103.07,129.517 105.133,129.517 C107.195,129.517 108.867,131.189 108.867,133.251 C108.867,135.313 107.195,136.985 105.133,136.985 z" fill-opacity="0" stroke="#000000" stroke-width="3"/>
    </g>
    <g>
      <path d="M409.086,136.436 C407.024,136.436 405.352,134.764 405.352,132.702 C405.352,130.64 407.024,128.968 409.086,128.968 C411.148,128.968 412.82,130.64 412.82,132.702 C412.82,134.764 411.148,136.436 409.086,136.436 z" fill="#000000"/>
      <path d="M409.086,136.436 C407.024,136.436 405.352,134.764 405.352,132.702 C405.352,130.64 407.024,128.968 409.086,128.968 C411.148,128.968 412.82,130.64 412.82,132.702 C412.82,134.764 411.148,136.436 409.086,136.436 z" fill-opacity="0" stroke="#000000" stroke-width="3"/>
    </g>
    <g>
      <path d="M410.07,255.436 C408.008,255.436 406.336,253.764 406.336,251.702 C406.336,249.64 408.008,247.968 410.07,247.968 C412.133,247.968 413.804,249.64 413.804,251.702 C413.804,253.764 412.133,255.436 410.07,255.436 z" fill="#000000"/>
      <path d="M410.07,255.436 C408.008,255.436 406.336,253.764 406.336,251.702 C406.336,249.64 408.008,247.968 410.07,247.968 C412.133,247.968 413.804,249.64 413.804,251.702 C413.804,253.764 412.133,255.436 410.07,255.436 z" fill-opacity="0" stroke="#000000" stroke-width="3"/>
    </g>
    <g>
      <path d="M603.334,257.284 C601.271,257.284 599.599,255.612 599.599,253.55 C599.599,251.487 601.271,249.815 603.334,249.815 C605.396,249.815 607.068,251.487 607.068,253.55 C607.068,255.612 605.396,257.284 603.334,257.284 z" fill="#000000"/>
      <path d="M603.334,257.284 C601.271,257.284 599.599,255.612 599.599,253.55 C599.599,251.487 601.271,249.815 603.334,249.815 C605.396,249.815 607.068,251.487 607.068,253.55 C607.068,255.612 605.396,257.284 603.334,257.284 z" fill-opacity="0" stroke="#000000" stroke-width="3"/>
    </g>
    <g>
      <path d="M683.566,257.284 C681.504,257.284 679.832,255.612 679.832,253.55 C679.832,251.487 681.504,249.815 683.566,249.815 C685.628,249.815 687.3,251.487 687.3,253.55 C687.3,255.612 685.628,257.284 683.566,257.284 z" fill="#000000"/>
      <path d="M683.566,257.284 C681.504,257.284 679.832,255.612 679.832,253.55 C679.832,251.487 681.504,249.815 683.566,249.815 C685.628,249.815 687.3,251.487 687.3,253.55 C687.3,255.612 685.628,257.284 683.566,257.284 z" fill-opacity="0" stroke="#000000" stroke-width="3"/>
    </g>
    <g>
      <path d="M683.566,135.744 C681.504,135.744 679.832,134.072 679.832,132.01 C679.832,129.948 681.504,128.276 683.566,128.276 C685.628,128.276 687.3,129.948 687.3,132.01 C687.3,134.072 685.628,135.744 683.566,135.744 z" fill="#000000"/>
      <path d="M683.566,135.744 C681.504,135.744 679.832,134.072 679.832,132.01 C679.832,129.948 681.504,128.276 683.566,128.276 C685.628,128.276 687.3,129.948 687.3,132.01 C687.3,134.072 685.628,135.744 683.566,135.744 z" fill-opacity="0" stroke="#000000" stroke-width="3"/>
    </g>
    <g>
      <path d="M603.334,136.436 C601.271,136.436 599.599,134.764 599.599,132.702 C599.599,130.64 601.271,128.968 603.334,128.968 C605.396,128.968 607.068,130.64 607.068,132.702 C607.068,134.764 605.396,136.436 603.334,136.436 z" fill="#000000"/>
      <path d="M603.334,136.436 C601.271,136.436 599.599,134.764 599.599,132.702 C599.599,130.64 601.271,128.968 603.334,128.968 C605.396,128.968 607.068,130.64 607.068,132.702 C607.068,134.764 605.396,136.436 603.334,136.436 z" fill-opacity="0" stroke="#000000" stroke-width="3"/>
    </g>
    <g>
      <path d="M358.927,151.847 C356.864,151.847 355.192,150.175 355.192,148.113 C355.192,146.05 356.864,144.379 358.927,144.379 C360.989,144.379 362.661,146.05 362.661,148.113 C362.661,150.175 360.989,151.847 358.927,151.847 z" fill="#000000"/>
      <path d="M358.927,151.847 C356.864,151.847 355.192,150.175 355.192,148.113 C355.192,146.05 356.864,144.379 358.927,144.379 C360.989,144.379 362.661,146.05 362.661,148.113 C362.661,150.175 360.989,151.847 358.927,151.847 z" fill-opacity="0" stroke="#000000" stroke-width="3"/>
    </g>
    <g>
      <path d="M271.289,151.847 C269.226,151.847 267.554,150.175 267.554,148.113 C267.554,146.05 269.226,144.379 271.289,144.379 C273.351,144.379 275.023,146.05 275.023,148.113 C275.023,150.175 273.351,151.847 271.289,151.847 z" fill="#000000"/>
      <path d="M271.289,151.847 C269.226,151.847 267.554,150.175 267.554,148.113 C267.554,146.05 269.226,144.379 271.289,144.379 C273.351,144.379 275.023,146.05 275.023,148.113 C275.023,150.175 273.351,151.847 271.289,151.847 z" fill-opacity="0" stroke="#000000" stroke-width="3"/>
    </g>
    <g>
      <path d="M142.196,144.379 L142.196,122.124 L212.935,122.124 L212.935,144.379 L142.196,144.379 z" fill="#E6E6E6"/>
      <path d="M142.196,144.379 L142.196,122.124 L212.935,122.124 L212.935,144.379 L142.196,144.379 z" fill-opacity="0" stroke="#000000" stroke-width="2"/>
    </g>
    <g>
      <path d="M458.935,128.276 L491.5,128.276 L491.5,138.226 L458.935,138.226 L458.935,128.276 z" fill="#000000"/>
      <path d="M458.935,128.276 L491.5,128.276 L491.5,138.226 L458.935,138.226 L458.935,128.276 z" fill-opacity="0" stroke="#000000" stroke-width="3"/>
    </g>
    <g>
      <path d="M458.935,248.574 L491.5,248.574 L491.5,258.525 L458.935,258.525 L458.935,248.574 z" fill="#000000"/>
      <path d="M458.935,248.574 L491.5,248.574 L491.5,258.525 L458.935,258.525 L458.935,248.574 z" fill-opacity="0" stroke="#000000" stroke-width="3"/>
    </g>
    <path d="M105.133,132.702 L105.133,79.475" fill-opacity="0" stroke="#000000" stroke-width="3"/>
    <path d="M105.133,79.475 L237.133,79.475" fill-opacity="0" stroke="#000000" stroke-width="3"/>
    <path d="M237.133,79.475 L237.133,132.702" fill-opacity="0" stroke="#000000" stroke-width="3"/>
    <g>
      <path d="M168.169,100.555 L168.169,57.939 L185.169,57.939 L185.169,100.555 L168.169,100.555 z" fill="#E6E6E6"/>
      <g>
        <path d="M166.98,101.055 L166.98,58.439" fill="#E6E6E6"/>
        <path d="M166.98,101.055 L166.98,58.439" fill-opacity="0" stroke="#000000" stroke-width="12"/>
      </g>
      <g>
        <path d="M188.151,101.055 L188.151,58.439" fill="#E6E6E6"/>
        <path d="M188.151,101.055 L188.151,58.439" fill-opacity="0" stroke="#000000" stroke-width="12"/>
      </g>
    </g>
    <g>
      <path d="M661.758,183.728 L704.374,183.728 L704.374,200.728 L661.758,200.728 L661.758,183.728 z" fill="#E6E6E6"/>
      <g>
        <path d="M662.258,182.54 L704.874,182.54" fill="#E6E6E6"/>
        <path d="M662.258,182.54 L704.874,182.54" fill-opacity="0" stroke="#000000" stroke-width="12"/>
      </g>
      <g>
        <path d="M662.258,203.711 L704.874,203.711" fill="#E6E6E6"/>
        <path d="M662.258,203.711 L704.874,203.711" fill-opacity="0" stroke="#000000" stroke-width="12"/>
      </g>
    </g>
    <g>
      <g>
        <path d="M387.278,180.803 L429.894,180.803 L429.894,197.803 L387.278,197.803 L387.278,180.803 z" fill="#E6E6E6"/>
        <g>
          <path d="M387.778,179.614 L430.394,179.614" fill="#E6E6E6"/>
          <path d="M387.778,179.614 L430.394,179.614" fill-opacity="0" stroke="#000000" stroke-width="12"/>
        </g>
        <g>
          <path d="M387.778,200.785 L430.394,200.785" fill="#E6E6E6"/>
          <path d="M387.778,200.785 L430.394,200.785" fill-opacity="0" stroke="#000000" stroke-width="12"/>
        </g>
      </g>
      <g>
        <path d="M432.729,148.137 L385.443,226.267" fill="#E6E6E6"/>
        <g>
          <path d="M425.687,159.772 L385.443,226.267" fill-opacity="0" stroke="#000000" stroke-width="3"/>
          <path d="M429.28,161.947 L431.486,150.191 L422.094,157.598 z" fill="#000000" fill-opacity="1" stroke="#000000" stroke-width="3" stroke-opacity="1"/>
        </g>
      </g>
    </g>
    <g>
      <path d="M592.206,151.833 L614.461,151.833 L614.461,222.571 L592.206,222.571 L592.206,151.833 z" fill="#E6E6E6"/>
      <path d="M592.206,151.833 L614.461,151.833 L614.461,222.571 L592.206,222.571 L592.206,151.833 z" fill-opacity="0" stroke="#000000" stroke-width="2"/>
    </g>
    <g>
      <path d="M476.243,351.702 L428.672,222.704" fill-opacity="0" stroke="#DE787A" stroke-width="5"/>
      <path d="M428.672,222.704 L434.984,224.214 L424.935,212.571 L424.851,227.95 z" fill="#DE787A" fill-opacity="1" stroke="#DE787A" stroke-width="5" stroke-opacity="1"/>
    </g>
  </g>
</svg>