<?xml version="1.0" encoding="UTF-8"?>
<!-- Generator: Adobe Illustrator 16.0.0, SVG Export Plug-In . SVG Version: 6.00 Build 0)  -->
<!DOCTYPE svg PUBLIC "-//W3C//DTD SVG 1.1//EN" "http://www.w3.org/Graphics/SVG/1.1/DTD/svg11.dtd">
<svg version="1.1" id="spaceship" xmlns="http://www.w3.org/2000/svg" xmlns:xlink="http://www.w3.org/1999/xlink" x="0px" y="0px" width="326px" height="869px" viewBox="0 0 326 869" enable-background="new 0 0 326 869" xml:space="preserve">
<g id="shuttle">
	<path fill="#BC8039" stroke="#000000" stroke-width="2" stroke-linecap="round" stroke-linejoin="round" d="M64.148,162.945   c3.477-29.634,12.812-57.702,27.079-83.989c7.416-13.664,15-27.111,22.931-40.481c4.865-8.201,16.769-31.982,27.428-31.717   c10.302,0.256,22.354,23.567,27.128,31.771c7.971,13.697,16.997,26.932,24.716,40.744c14.059,25.156,24.817,54.467,24.828,83.69   c0.052,137.667,0.104,275.335,0.155,413.003c0.021,55.433,0.042,110.866,0.063,166.299c0.006,16.319-154.104,11.943-154.108,1.957   C64.314,604.9,64.262,465.579,64.21,326.257C64.189,271.82,64.169,217.382,64.148,162.945z"/>
	<path d="M92.914,161.195c-0.08,137.456-0.16,274.912-0.239,412.369c-0.025,44.183-0.051,88.366-0.077,132.55   c-0.004,6.917-0.008,13.834-0.012,20.75c-0.003,6.117,11.176,14.973,16.557,15.551c11.872,1.275,23.743,2.552,35.615,3.827   c-11.958,0-77.015,3.427-77-12.1c0.015-15.466,0.029-30.931,0.044-46.396c0.077-79.979,0.153-159.956,0.229-239.935   c0.076-79.978,0.152-159.956,0.229-239.934c0.015-15.465,0.029-30.93,0.044-46.396c0.027-28.291,11.785-55.408,24.063-80.35   c8.939-18.16,19.03-35.331,29.531-52.609c2.649,11.22-3.331,21.057-7.135,31.863c-3.919,11.134-6.669,22.606-9.736,34.003   C98.982,116.856,95.699,138.071,92.914,161.195z"/>
	<path fill="#FA002A" stroke="#000000" stroke-linecap="round" stroke-linejoin="round" d="M95.539,71.18   c12.447,7.229,35.908,3.938,49.819,3.938c8.061,0,41.532-5.399,43.806-1.859C178.861,75.796,93.065,79.468,95.539,71.18z"/>
	<path fill="#7F4A03" d="M71.477,125.867c22.984,5.078,47.476,3.938,70.931,3.938c11.281,0,22.517,0.144,33.777-0.482   c7.882-0.438,15.763-0.876,23.645-1.313c4.498-0.25,12.127-5.203,12.632,1.795c-24.856,4.498-50.328,3.938-75.515,3.938   c-10.948,0-21.798,0.032-32.725-0.571C99.267,132.897,69.563,134.328,71.477,125.867z"/>
	<path fill="#FFFFFF" stroke="#000000" stroke-width="2" stroke-linecap="round" stroke-linejoin="round" d="M15.914,839.867   c-3.373,7.647-12.084,16.889-2.078,21c7.805,3.207,18.619,3.033,26.909,3.717c17.169,1.416,33.194-0.847,48.45-8.967   c-3.462-6.272-7.547-11.006-7.547-18.06c0-7.616,0-15.232,0-22.848c0-30.462,0-60.924,0-91.386c0-88.991,0-177.982,0-266.974   c0-63.834,0-127.668,0-191.502c0-19.384-8.585-36.689-15.115-54.771c-2.05-5.677-9.666-40.914-17.807-41.008   c-8.163-0.094-15.892,35.4-17.917,41.008c-6.669,18.47-14.896,35.8-14.896,55.586c0,23.795,0,47.59,0,71.386   c0,85.723,0,171.445,0,257.167C15.914,676.101,15.914,757.983,15.914,839.867z"/>
	<path fill="#9B9B9B" d="M27.508,259.852c0,137.033,0,274.065,0,411.099c0,44.394,0,88.787,0,133.18c0,10.606,0,21.213,0,31.819   c0,13.187,9.588,18.354,19.359,25.684c-12.031-1.292-23.069-3.13-34.781-6.016c4.032-6.312,7.547-9.698,7.547-16.773   c0-7.884,0-15.768,0-23.651c0-30.891,0-61.782,0-92.673c0-89.194,0-178.388,0-267.581c0-57.587,0-115.173,0-172.759   c0-10.348-0.565-20.489,1.26-30.671c4.461-24.887,15.879-49.605,23.896-73.579c1.232,12.421-5.072,27.367-7.738,39.278   C33.87,231.423,30.689,245.637,27.508,259.852z"/>
	<path stroke="#000000" stroke-width="0.9853" stroke-linejoin="round" d="M35.055,239.18c1.084-4.847,0.979-19.442,7.875-17.609   C41.846,226.417,41.951,241.013,35.055,239.18z"/>
	<path stroke="#000000" stroke-width="0.9853" stroke-linejoin="round" d="M81.648,255.148c-6.745,10.448-59.429,10.978-65.734,0   C12.101,271.472,85.489,270.948,81.648,255.148z"/>
	<path stroke="#000000" stroke-width="0.9853" stroke-linejoin="round" d="M29.258,293.539c0-5.213,0-10.427,0-15.641   c3.423,0.73,7.133,2.078,10.64,2.078c6.142,0,4.891,0.579,4.891,6.659c0,4.404,2.081,9.31-2.898,9.31   C37.537,295.945,33.479,294.583,29.258,293.539z"/>
	<path stroke="#000000" stroke-width="0.9853" stroke-linejoin="round" d="M81.648,336.961c-6.23,10.337-59.957,10.812-65.734,0   C11.958,353.402,85.625,352.889,81.648,336.961z"/>
	<path stroke="#000000" stroke-width="0.9853" stroke-linejoin="round" d="M81.648,416.805c-8.542,10.037-57.561,10.671-65.734,0   C12.082,432.43,85.488,431.96,81.648,416.805z"/>
	<path stroke="#000000" stroke-width="0.9853" stroke-linejoin="round" d="M81.648,437.258c-8.625,10.172-57.479,10.814-65.734,0   C12.352,453.291,85.238,452.779,81.648,437.258z"/>
	<path fill="#FFFFFF" stroke="#000000" stroke-width="0.9853" stroke-linejoin="round" d="M27.508,448.414   C35.773,450.71,27.508,426.952,27.508,448.414L27.508,448.414z"/>
	<path fill="#FFFFFF" stroke="#000000" stroke-width="0.9853" stroke-linejoin="round" d="M38.992,450.602   C47.266,452.909,38.992,429.37,38.992,450.602L38.992,450.602z"/>
	<path fill="#FFFFFF" stroke="#000000" stroke-width="0.9853" stroke-linejoin="round" d="M54.414,450.602   C62.688,452.909,54.414,429.37,54.414,450.602L54.414,450.602z"/>
	<path fill="#FFFFFF" stroke="#000000" stroke-width="0.9853" stroke-linejoin="round" d="M75.633,446.336   C83.898,448.632,75.633,424.874,75.633,446.336L75.633,446.336z"/>
	<path fill="#FFFFFF" stroke="#000000" stroke-width="0.9853" stroke-linejoin="round" d="M66.227,448.414   C73.74,450.444,66.227,427.441,66.227,448.414L66.227,448.414z"/>
	<path stroke="#000000" stroke-width="0.9853" stroke-linejoin="round" d="M81.648,517.539c-8.697,10.219-57.407,10.872-65.734,0   C12.138,533.894,85.448,533.379,81.648,517.539z"/>
	<path fill="#FFFFFF" stroke="#000000" stroke-width="1.5" stroke-linecap="round" stroke-linejoin="round" d="M35.055,541.383   c-6.112,5.679-1.859,28.669-1.859,36.573c0,4.195-0.634,7.771,1.377,11.438c1.029,1.877,11.907,4.31,14.154,2.738   c6.227-4.353,2.078-28.905,2.078-35.949c0-3.042,1.404-9.606-1.039-11.793C47.619,542.47,38.27,542.231,35.055,541.383z"/>
	<path stroke="#000000" stroke-width="0.9853" stroke-linejoin="round" d="M81.648,609.633c-7.305,10.557-58.854,11.14-65.734,0   C12.234,625.869,85.363,625.34,81.648,609.633z"/>
	<path stroke="#000000" stroke-width="0.9853" stroke-linejoin="round" d="M81.648,757.945c-7.242,10.422-58.916,10.995-65.734,0   C11.901,774.088,85.677,773.594,81.648,757.945z"/>
	<path stroke="#000000" stroke-width="0.9853" stroke-linejoin="round" d="M81.648,818.43c-6.983,10.176-59.173,10.708-65.734,0   C12.181,834.597,85.404,834.084,81.648,818.43z"/>
	<path stroke="#000000" stroke-width="0.9853" stroke-linejoin="round" d="M81.648,795.133c-6.983,10.176-59.173,10.708-65.734,0   C12.209,811.176,85.375,810.668,81.648,795.133z"/>
	<path stroke="#000000" stroke-width="0.9853" stroke-linejoin="round" d="M81.648,835.93c-7.176,10.371-58.981,10.935-65.734,0   C11.958,852.371,85.625,851.857,81.648,835.93z"/>
	<path fill="#FFFFFF" stroke="#000000" stroke-width="2" stroke-linecap="round" stroke-linejoin="round" d="M218.477,828.164   c-3.47,7.711-12.229,16.785-2.078,20.891c7.822,3.164,18.542,3.054,26.841,3.785c17.037,1.5,33.459-0.777,48.519-9.035   c-3.621-6.236-7.875-10.851-7.875-17.949c0-7.615,0-15.229,0-22.844c0-30.456,0-60.912,0-91.369c0-88.975,0-177.949,0-266.924   c0-63.822,0-127.644,0-191.466c0-19.583-8.241-36.633-14.893-54.931c-2.058-5.662-9.762-40.881-17.811-41.064   c-8.087-0.184-15.878,35.544-17.859,41.064c-6.622,18.438-14.844,35.789-14.844,55.531c0,23.8,0,47.6,0,71.399   c0,85.738,0,171.477,0,257.215C218.477,664.367,218.477,746.266,218.477,828.164z"/>
	<path fill="#5E5957" d="M230.07,248.039c0,137.059,0,274.117,0,411.176c0,44.402,0,88.804,0,133.206c0,10.608,0,21.217,0,31.825   c0,12.882,9.544,18.188,19.031,25.355c-12.004-1.173-22.873-3.037-34.563-5.797c6.299-15.093,5.797-24.772,5.797-41.174   c0-30.498,0-60.995,0-91.493c0-88.927,0-177.854,0-266.78c0-57.974,0-115.949,0-173.923c0-7.521-2.114-18.553,0.343-25.814   c8.854-26.167,17.709-52.335,26.563-78.502c1.329,12.464-5.021,27.517-7.688,39.46C236.393,219.731,233.231,233.885,230.07,248.039   z"/>
	<path stroke="#000000" stroke-width="0.9853" stroke-linejoin="round" d="M237.836,227.367c1.026-4.829,0.762-19.34,7.656-17.5   C244.436,214.564,244.336,229.036,237.836,227.367z"/>
	<path stroke="#000000" stroke-width="0.9853" stroke-linejoin="round" d="M283.883,243.555c-7.721,10.673-57.48,10.348-65.406,0   C214.826,259.364,287.509,259.654,283.883,243.555z"/>
	<path stroke="#000000" stroke-width="0.9853" stroke-linejoin="round" d="M231.82,281.836c0-5.25,0-10.5,0-15.75   c3.377,0.835,7.136,2.406,10.623,2.406c6.021,0,4.799,0.561,4.799,6.522c0,4.32,2.038,9.118-2.844,9.118   C240.079,284.133,236.02,282.827,231.82,281.836z"/>
	<path stroke="#000000" stroke-width="0.9853" stroke-linejoin="round" d="M283.883,325.258c-6.938,11.009-58.242,10.697-65.406,0   C214.502,341.186,287.836,341.476,283.883,325.258z"/>
	<path stroke="#000000" stroke-width="0.9853" stroke-linejoin="round" d="M283.883,404.992c-7.576,10.474-57.625,10.159-65.406,0   C214.644,420.622,287.699,420.899,283.883,404.992z"/>
	<path stroke="#000000" stroke-width="0.9853" stroke-linejoin="round" d="M283.883,425.445c-6.752,10.878-58.429,10.581-65.406,0   c-2.413,11.5,23.94,11.266,31.536,11.266C257.999,436.711,286.337,437.486,283.883,425.445z"/>
	<path fill="#FFFFFF" stroke="#000000" stroke-width="0.9853" stroke-linejoin="round" d="M230.07,436.711   C238.095,438.928,230.07,415.545,230.07,436.711L230.07,436.711z"/>
	<path fill="#FFFFFF" stroke="#000000" stroke-width="0.9853" stroke-linejoin="round" d="M268.461,436.711   C276.734,439.019,268.461,415.479,268.461,436.711L268.461,436.711z"/>
	<path fill="#FFFFFF" stroke="#000000" stroke-width="0.9853" stroke-linejoin="round" d="M278.195,434.633   C286.452,436.917,278.195,412.941,278.195,434.633L278.195,434.633z"/>
	<path stroke="#000000" stroke-width="0.9853" stroke-linejoin="round" d="M283.883,505.727c-6.231,10.74-58.941,10.468-65.406,0   C214.607,521.807,287.729,522.101,283.883,505.727z"/>
	<path fill="#FFFFFF" stroke="#000000" stroke-width="0.9853" stroke-linejoin="round" d="M237.836,529.57   c-6.114,4.891-2.078,27-2.078,34.242c0,12.113,0.793,16.836,14.533,16.836c5.652,0,2.748-31.14,2.748-35.324   c0-3.315,1.422-10.009-0.93-12.637C250.467,530.852,240.719,530.353,237.836,529.57z"/>
	<path stroke="#000000" stroke-width="0.9853" stroke-linejoin="round" d="M283.883,598.148c-7.654,10.617-57.547,10.297-65.406,0   C215.002,613.788,287.331,614.078,283.883,598.148z"/>
	<path stroke="#000000" stroke-width="0.9853" stroke-linejoin="round" d="M283.883,746.242c-6.503,10.515-58.68,10.239-65.406,0   C214.92,762.251,287.412,762.545,283.883,746.242z"/>
	<path stroke="#000000" stroke-width="0.9853" stroke-linejoin="round" d="M283.883,783.43c-6.503,10.515-58.68,10.239-65.406,0   C214.934,799.376,287.398,799.67,283.883,783.43z"/>
	<path stroke="#000000" stroke-width="0.9853" stroke-linejoin="round" d="M283.883,806.617c-6.35,10.943-58.822,10.66-65.406,0   C214.819,822.752,287.51,823.055,283.883,806.617z"/>
	<path stroke="#000000" stroke-width="0.9853" stroke-linejoin="round" d="M283.883,824.445c-7.576,10.474-57.625,10.158-65.406,0   C214.613,840.199,287.729,840.478,283.883,824.445z"/>
	<path fill="#7F4A03" d="M80.477,243.117c46.143,0,92.087,1.272,138-3.938c1.855,7.196-23.404,6.191-29.15,6.554   c-10.299,0.65-20.415,1.211-30.72,1.211c-16.907,0-33.815,0-50.723,0C103.106,246.945,78.529,250.5,80.477,243.117z"/>
	<path fill="#7F4A03" d="M82.836,414.727c5.697,0,11.394,0,17.091,0c0.248,0,14.92-0.5,9.284,3.938c-2.438,1.92-13.99,0-17.091,0   C87.794,418.664,81.425,420.891,82.836,414.727z"/>
	<path fill="#665B57" stroke="#000000" stroke-width="0.9853" stroke-linejoin="round" d="M170.57,715.398   c-1.94,5.001-5.688,10.973-5.688,16.382c0,7.432,1.381,15.233-1.903,21.981c-6.913,14.204-4.112,30.431-4.112,46.091   c0,3.196-1.868,13.774,0,16.499c3.049,4.447,17.19,4.322,21.5,4.977c13.635,2.071,28.422,0.234,41.962-1.784   c4.1-0.611,9.491-1.081,9.491-5.823c0-9.048,0-18.095,0-27.143c0-7.893,0-15.785,0-23.678c0-5.113-5.688-9.428-5.688-14.693   c0-7.143,1.295-15.455-0.47-22.408c-2.241-8.835-0.413-12.999-9.639-12.373C200.82,714.457,185.806,715.163,170.57,715.398z"/>
	<path fill="#A89187" stroke="#000000" stroke-width="0.9853" stroke-linejoin="round" d="M158.867,762.211   c9.761,5.057,23.076,4.922,33.9,4.922c12.49,0,27.611,0.985,39.053-4.922C232.098,773.456,158.602,772.977,158.867,762.211z"/>
	<path fill="#A89187" stroke="#000000" stroke-width="0.9853" stroke-linejoin="round" d="M158.867,791.742   c9.316,5.657,23.237,5.031,33.9,5.031c12.767,0,27.408,0.95,39.053-5.031C232.696,802.885,158.028,802.41,158.867,791.742z"/>
	<path fill="#A89187" stroke="#000000" stroke-width="0.9853" stroke-linejoin="round" d="M158.867,816.352   c9.361,5.641,23.2,5.25,33.9,5.25c12.86,0,27.31,0.759,39.053-5.25C232.659,827.855,158.063,827.388,158.867,816.352z"/>
	<path fill="none" stroke="#000000" stroke-width="0.9853" stroke-linejoin="round" d="M164.555,818.977c0-18.695,0-37.392,0-56.087   c0-2.891,2.765-6.572,3.963-9.128c2.085-4.445,1.834-7.443,1.834-12.463c0-10.461,2.002-16.123,6.016-25.9"/>
	<path fill="none" stroke="#000000" stroke-width="0.9853" stroke-linejoin="round" d="M173.523,818.977c0-18.695,0-37.392,0-56.087   c0-2.895,2.706-6.559,3.888-9.128c2.043-4.439,1.8-7.469,1.8-12.463c0-10.365,1.947-16.168,5.797-25.9"/>
	<path fill="none" stroke="#000000" stroke-width="0.9853" stroke-linejoin="round" d="M185.008,821.602c0-19.308,0-38.615,0-57.923   c0-7.483,2.844-14.671,2.844-22.38c0-10.461,2.002-16.123,6.016-25.9"/>
	<path fill="none" stroke="#000000" stroke-width="0.9853" stroke-linejoin="round" d="M208.523,821.602c0-19.574,0-39.149,0-58.724   c0-2.885-2.709-6.555-3.888-9.116c-2.043-4.439-1.8-7.469-1.8-12.463c0-9.197-1.131-16.857-2.953-25.9"/>
	<path fill="none" stroke="#000000" stroke-width="0.9853" stroke-linejoin="round" d="M196.82,821.602   c0-35.353-1.907-70.918,0-106.203"/>
	<path fill="none" stroke="#000000" stroke-width="0.9853" stroke-linejoin="round" d="M226.133,818.977c0-18.864,0-37.729,0-56.592   c0-2.993-3.765-7.909-5.076-10.602c-1.883-3.87-0.939-8.805-0.939-13.033c0-9.427-1.389-16.575-3.719-25.758"/>
	<path fill="none" stroke="#000000" stroke-width="0.9853" stroke-linejoin="round" d="M217.492,818.977c0-18.864,0-37.729,0-56.592   c0-3.02-3.608-7.868-4.891-10.602c-1.843-3.929-0.906-8.909-0.906-13.176c0-9.209-2.242-16.687-4.703-25.615"/>
	<path fill="#A89187" stroke="#000000" stroke-width="0.9853" stroke-linejoin="round" d="M164.555,730.055   c16.483,7.917,45.041,7.621,61.578,0C226.625,740.554,163.945,740.525,164.555,730.055z"/>
	<path fill="#A89187" stroke="#000000" stroke-width="0.9853" stroke-linejoin="round" d="M164.555,747.227   c16.169,8.12,45.352,7.818,61.578,0C226.797,757.867,163.777,757.837,164.555,747.227z"/>
	<path fill="#6B6462" stroke="#000000" stroke-width="0.9853" stroke-linejoin="round" d="M120.914,718.461   c-1.186,4.36-3.719,9.673-3.719,14.184c0,5.411,1.564,13.278-0.218,18.378c-4.161,11.904-3.719,21.518-3.719,34.246   c0,8.868-4.883,26.846,6.236,29.153c11.288,2.343,22.332,2.803,33.673,0.471c13.07-2.688,8.325-15.513,8.325-26.849   c0-12.519,0.927-23.572-2.981-35.412c-3.267-9.896-0.792-22.882-2.7-33.528C155.418,716.911,125.047,718.461,120.914,718.461z"/>
	<path fill="none" stroke="#000000" stroke-width="0.9853" stroke-linejoin="round" d="M117.195,813.945c0-17.189,0-34.38,0-51.569   c0-6.124,3.719-11.819,3.719-18.33c0-9.584,1.312-16.32,3.938-25.585"/>
	<path fill="none" stroke="#000000" stroke-width="0.9853" stroke-linejoin="round" d="M122.992,813.945c0-17.189,0-34.38,0-51.569   c0-6.127,3.938-11.772,3.938-18.33c0-9.584,1.312-16.32,3.938-25.585"/>
	<path fill="none" stroke="#000000" stroke-width="0.9853" stroke-linejoin="round" d="M130.867,816.352   c0-31.979-2.845-66.929,5.688-97.891"/>
	<path fill="none" stroke="#000000" stroke-width="0.9853" stroke-linejoin="round" d="M138.414,816.352   c0-32.613-1.172-65.306,0-97.891"/>
	<path fill="none" stroke="#000000" stroke-width="0.9853" stroke-linejoin="round" d="M151.758,813.945c0-17.189,0-34.38,0-51.569   c0-6.127-3.938-11.772-3.938-18.33c0-8.77-0.652-16.876-1.75-25.585"/>
	<path fill="none" stroke="#000000" stroke-width="0.9853" stroke-linejoin="round" d="M146.07,816.352   c0-33.397-0.895-65.125-5.797-97.891"/>
	<path fill="none" stroke="#000000" stroke-width="0.9853" stroke-linejoin="round" d="M157.773,813.945c0-17.189,0-34.38,0-51.569   c0-6.056-3.938-11.619-3.938-18.092c0-9.096-0.477-16.891-2.078-25.823"/>
	<path fill="#A89187" stroke="#000000" stroke-width="0.9853" stroke-linejoin="round" d="M113.258,789.117   c10.781,7.209,37.495,7.394,48.234,0C161.482,799.186,113.36,798.685,113.258,789.117z"/>
	<path fill="#A89187" stroke="#000000" stroke-width="0.9853" stroke-linejoin="round" d="M113.258,761.664   c9.417,7.553,38.877,7.848,48.234,0C162.326,771.902,112.574,771.502,113.258,761.664z"/>
	<path fill="#A89187" stroke="#000000" stroke-width="0.9853" stroke-linejoin="round" d="M117.195,748.102   c8.69,7.295,31.753,6.89,40.578,0C158.451,757.849,116.4,757.862,117.195,748.102z"/>
	<path fill="#A89187" stroke="#000000" stroke-width="0.9853" stroke-linejoin="round" d="M117.195,732.352   c9.71,6.682,30.826,6.723,40.578,0C157.626,741.858,117.208,741.868,117.195,732.352z"/>
	<path fill="#A89187" stroke="#000000" stroke-width="0.9853" stroke-linejoin="round" d="M113.258,811.648   c9.417,7.553,38.877,7.848,48.234,0C162.326,821.887,112.574,821.486,113.258,811.648z"/>
	<path fill="#827875" stroke="#000000" stroke-width="0.9853" stroke-linejoin="round" d="M162.805,737.602   c-1.243,4.281-3.938,9.62-3.938,14.067c0,5.394,1.514,13.084-0.218,18.185c-4.09,12.041-3.72,21.724-3.72,34.556   c0,8.644-4.897,27.078,6.214,29.089c11.192,2.025,22.222,2.438,33.453,0.406c3.065-0.555,8.458-0.957,8.458-4.829   c0-7.297,0-14.594,0-21.891c0-12.704,0.909-23.702-3.157-35.675c-3.309-9.743-0.8-22.764-2.537-33.284   C197.018,736.145,166.862,737.602,162.805,737.602z"/>
	<path fill="none" stroke="#000000" stroke-width="0.9853" stroke-linejoin="round" d="M158.867,833.086c0-17.189,0-34.38,0-51.569   c0-6.161,3.938-11.847,3.938-18.445c0-9.454,1.171-16.308,3.609-25.47"/>
	<path fill="none" stroke="#000000" stroke-width="0.9853" stroke-linejoin="round" d="M164.555,833.086c0-17.189,0-34.38,0-51.569   c0-6.161,3.938-11.847,3.938-18.445c0-9.504,1.198-16.275,3.719-25.47"/>
	<path fill="none" stroke="#000000" stroke-width="0.9853" stroke-linejoin="round" d="M172.211,835.164   c0-31.612-3.298-67.171,6.016-97.563"/>
	<path fill="none" stroke="#000000" stroke-width="0.9853" stroke-linejoin="round" d="M187.633,835.164   c0-33.314-1.242-64.809-5.469-97.563"/>
	<path fill="none" stroke="#000000" stroke-width="0.9853" stroke-linejoin="round" d="M180.086,835.164   c0-32.503-1.168-65.087,0-97.563"/>
	<path fill="none" stroke="#000000" stroke-width="0.9853" stroke-linejoin="round" d="M199.117,833.086c0-17.189,0-34.38,0-51.569   c0-6.542-3.609-12.775-3.609-19.753c0-8.549-0.529-15.765-2.078-24.162"/>
	<path fill="none" stroke="#000000" stroke-width="0.9853" stroke-linejoin="round" d="M193.43,833.086   c0-32.55-0.904-63.552-5.797-95.484"/>
	<path fill="#A89187" stroke="#000000" stroke-width="0.9853" stroke-linejoin="round" d="M158.867,751.164   c9.66,6.642,30.68,6.799,40.25,0C199.181,760.954,159.017,760.9,158.867,751.164z"/>
	<path fill="#A89187" stroke="#000000" stroke-width="0.9853" stroke-linejoin="round" d="M158.867,767.133   c9.66,6.642,30.68,6.799,40.25,0C199.185,776.684,159.006,776.637,158.867,767.133z"/>
	<path fill="#A89187" stroke="#000000" stroke-width="0.9853" stroke-linejoin="round" d="M154.93,780.805   c9.413,7.23,38.734,7.489,48.125,0C203.901,790.935,154.121,790.484,154.93,780.805z"/>
	<path fill="#A89187" stroke="#000000" stroke-width="0.9853" stroke-linejoin="round" d="M154.93,808.258   c10.572,7.115,37.575,7.329,48.125,0C202.918,818.295,155,817.805,154.93,808.258z"/>
	<path fill="#A89187" stroke="#000000" stroke-width="0.9853" stroke-linejoin="round" d="M154.93,830.789   c9.413,7.23,38.734,7.489,48.125,0C203.901,840.919,154.121,840.469,154.93,830.789z"/>
	<path fill="#FFFFFF" stroke="#000000" stroke-width="1.5" stroke-linecap="round" stroke-linejoin="round" d="M177.461,799.07   c-1.296,8.625-35.935,3.938-43.52,3.938c-12.195,0-23.186-23.646-25.059-33.25c-1.493-7.658,0-17.043,0-24.842   c0-7.014,0.701-6.438-5.874-7.477c-19.948-3.152-39.896-6.305-59.844-9.456c-3.784-0.599-34.781-2.465-34.8-7.576   c-0.069-17.832-0.138-35.663-0.207-53.495c-0.022-5.929,2.482-11.84,4.014-17.522c1.516-5.627,6.541-8.194,10.213-12.558   c11.936-14.181,23.871-28.362,35.807-42.543c8.989-10.681,17.979-21.276,26.5-32.33c6.002-7.786,7.958-23.079,9.298-32.485   c5.278-37.072,10.556-74.144,15.833-111.215c2.099-14.744,4.198-29.488,6.297-44.232c1.332-9.354,1.013-18.137,3.87-27.348   c9.367-30.196,14.238-66.926,36.86-90.338c8.624-8.925,28.375-7.287,34.165,4.714c6.776,14.042,9.903,26.397,13.406,41.667   c3.581,15.612,5.551,32.447,12.582,46.914c5.413,11.139,7.27,25.775,7.27,38.115c0,30.703-1.859,61.278-1.859,91.978   c0,10.663,0,21.325,0,31.988c0,3.986-1.757,12.857,0.263,16.463c7.075,12.636,15.537,23.454,24.631,34.722   c19.936,24.701,39.871,49.402,59.807,74.104c7.901,9.79,13.409,22.146,13.409,34.691c0,10.152,0,20.305,0,30.457   c0,5.413,1.913,14.868-0.454,19.896c-2.079,4.42-6.646,3.726-11.341,4.578c-10.558,1.916-21.115,3.832-31.674,5.747   c-3.21,0.583-44.469,6.652-44.469,8.238c0,17.683,0,35.364,0,53.047c0,3.315,0.765,9.348-3.718,9.348c-10.3,0-20.6,0-30.899,0   c-6.009,0-8.83,0.284-14.029-2.552c-4.988-2.721-3.981-11.683-4.729-17.026C178.628,788.644,178.044,793.856,177.461,799.07z"/>
	<path fill="#827773" stroke="#000000" stroke-width="1.5" stroke-linecap="round" stroke-linejoin="round" d="M82.195,598.148   c5.027,42.288,4.716,84.449,1.723,126.861c-0.271,3.843-1.727,5.567,2.132,6.279c7.289,1.344,14.578,2.688,21.866,4.032   c0.875,0.161,9.854,3.046,5.414,3.046c-5.324,0-2.917,7.364-2.917,11.923c0,20.673,5.186,40.654,25.156,50.64   c0-17.217,0-34.434,0-51.65c0-15.037,4.421-27.039,8.912-41.533c5.941-19.174,2.572-46.434,2.572-66.771   c0-68.724,3.239-138.263-0.011-206.907c-1.077-22.727-2.78-44.866-0.053-67.485c1.24-10.289,2.297-20.183,4.374-30.329   c1.46-7.128,2.919-14.256,4.379-21.385c1.033-5.048-1.787-7.108-4.752-11.377c-8.903,21.689-20.547,43.597-26.313,66.343   c-5.44,21.459-8.726,42.044-11.77,63.99c-4.931,35.544-9.861,71.087-14.792,106.63c-1.415,10.199-2.83,20.397-4.244,30.597   C92.621,580.08,85.911,589.832,82.195,598.148z"/>
	<path fill="#FFFFFF" stroke="#000000" stroke-width="1.5" stroke-linecap="round" stroke-linejoin="round" d="M76.727,572.445   c-20.559,24.061-40.258,49.236-62.324,71.933c-8.487,8.729-6.254,30.654-6.254,41.518c0,10.412,0,20.824,0,31.236   c0,7.104,5.076,6.305,11.484,7.673c0-25.853-7.866-59.831,12.851-79.488c14.147-13.424,28.295-26.848,42.442-40.271   c4.28-4.061,6.981-6.032,8.819-11.547C86.981,583.791,82.452,580.899,76.727,572.445z"/>
	<path fill="none" stroke="#000000" stroke-width="1.5" stroke-linecap="round" stroke-linejoin="round" d="M108.883,738.367   c8.282,1.83,15.18,2.627,15.229-6.833c0.055-10.524,0.109-21.049,0.164-31.573c0.202-38.951,0.404-77.902,0.606-116.853   c0.318-61.378,0.636-122.755,0.955-184.132"/>
	<path fill="none" stroke="#000000" stroke-width="0.9853" stroke-linejoin="round" d="M222.414,527.711   c0,38.745,0,77.491,0,116.236c0,19.035,0,38.069,0,57.104c0,13.169,6.523,26.838,10.172,39.394"/>
	<path fill="#FFFFFF" stroke="#000000" stroke-width="1.5" stroke-linecap="round" stroke-linejoin="round" d="M167.945,250.664   c-29.486,12.732-33.575,49.87-42.048,77.449c-3.451,11.233-9.467,24.286-9.467,36.217c0,10.546-1.598,20.479-3.089,30.939   c-5.716,40.098-11.433,80.196-17.149,120.293c-1.44,10.106-3.111,19.824-5.294,29.806c-3.257,14.892-12.722,25.306-21.827,37.03   c6.268-1.166,7.857-3.046,11.266,1.859c2.286,3.289,2.31,10.04,2.078,13.891c11.212-11.733,25.071-22.595,26.951-39.719   c2.827-25.748,5.654-51.497,8.481-77.246c4.143-37.732,4.754-78,11.927-115.129c14.121,8.792,11.48-3.874,13.565-15.083   c2.349-12.631,4.331-25.331,7.653-37.745c11.033,3.038,21.166,5.584,32.703,6.016c5.331,0.2,11.094,0.617,16.285-0.681   c9.225-2.306,7.768-1.984,5.693-10.884C200.505,285.495,197.272,250.664,167.945,250.664z"/>
	<path fill="none" stroke="#000000" stroke-width="1.5" stroke-linecap="round" stroke-linejoin="round" d="M79.789,582.398   c-19.673,21.748-39.346,43.495-59.019,65.243c-6.906,7.634-6.934,18.417-6.934,28.074c0,15.671,0,31.341,0,47.011"/>
	<path stroke="#000000" stroke-width="0.9853" stroke-linejoin="round" d="M13.836,695.492c24.552,0,49.103,0,73.655,0   c10.602,0,21.204,0,31.805,0c7.532,0,5.139,19.578,3.991,19.578c-26.129,0-52.258,0-78.388,0c-10.088,0-20.176,0-30.264,0   c-9.14,0-9.428-18.927-3.424-22.531C12.027,693.457,13.295,694.402,13.836,695.492z"/>
	<path fill="none" stroke="#000000" stroke-width="1.5" stroke-linecap="round" stroke-linejoin="round" d="M79.789,582.398   c11.939-14.841,20.34-25.51,23.058-44.674c1.78-12.55,3.51-25.107,5.259-37.661c5.327-38.217,10.653-76.433,15.98-114.649"/>
	<path stroke="#000000" stroke-width="0.9853" stroke-linejoin="round" d="M187.086,284.898c7.178-1.809,8.141,9.953-0.354,9.953   c-3.601,0-8.977,1.5-11.131-2.078c-2.499-4.152,1.142-7.875,4.776-7.875c2.324,0,0.768-20.344-1.745-20.344   c-7.003,0-17.843-1.646-20.094-9.734c14.37-6.35,20.594-3.932,32.484,5.797c-4,3.891-6.031,2.46-5.065,8.544   C186.816,274.564,187.086,279.416,187.086,284.898z"/>
	<path fill="none" stroke="#000000" stroke-width="0.9853" stroke-linejoin="round" d="M150.992,313.227   c-7.322-1.715-11.328-5.567-15.422-11.594"/>
	<path fill="none" stroke="#000000" stroke-width="1.5" stroke-linecap="round" stroke-linejoin="round" d="M162.477,297.695   c-10.695-3.499-14.872-6.296-21.219-15.641"/>
	<g>
		<path d="M131.633,360.039c0,0,1.19-6.241,3.357-15.498c1.067-4.633,2.366-10.021,3.903-15.765c0.772-2.87,1.529-5.847,2.374-8.852    c0.834-3.005,1.682-6.058,2.529-9.111c0.896-3.035,1.793-6.069,2.675-9.056c0.867-3,1.822-5.928,2.752-8.765    c0.943-2.833,1.929-5.552,2.969-8.094c0.999-2.556,2.104-4.914,3.156-7.066c0.553-1.066,1.079-2.087,1.601-3.047    c0.555-0.941,1.081-1.834,1.575-2.674c0.531-0.815,1.029-1.579,1.489-2.284c0.466-0.7,0.947-1.309,1.353-1.875    c0.798-1.143,1.553-1.946,2.019-2.525c0.479-0.569,0.733-0.873,0.733-0.873s-0.21,0.337-0.603,0.97    c-0.387,0.636-0.986,1.542-1.65,2.755c-0.706,1.186-1.459,2.685-2.336,4.386c-0.403,0.869-0.832,1.794-1.284,2.769    c-0.421,0.987-0.864,2.024-1.327,3.107c-0.862,2.193-1.764,4.576-2.626,7.135c-0.883,2.55-1.686,5.287-2.549,8.108    c-0.846,2.829-1.625,5.785-2.488,8.775c-0.852,3.001-1.717,6.049-2.582,9.098c-0.88,3.04-1.76,6.079-2.626,9.071    c-0.854,2.994-1.771,5.919-2.617,8.762c-0.871,2.836-1.713,5.579-2.511,8.179c-0.781,2.607-1.559,5.062-2.275,7.327    C133.79,354.065,131.632,360.039,131.633,360.039z"/>
	</g>
	<g>
		<path d="M122.227,360.039c0,0,1.493-6.483,4.11-16.09c0.65-2.403,1.355-5.006,2.141-7.747c0.777-2.744,1.582-5.641,2.472-8.621    c0.887-2.98,1.761-6.074,2.726-9.193c0.954-3.123,1.923-6.295,2.893-9.467c2.014-6.318,3.929-12.669,6.06-18.555    c0.988-2.961,2.179-5.757,3.222-8.426c0.585-1.313,1.154-2.59,1.705-3.825c0.281-0.614,0.558-1.218,0.828-1.811    c0.301-0.58,0.596-1.149,0.885-1.707c0.583-1.11,1.142-2.174,1.673-3.187c0.512-1.02,1.155-1.908,1.673-2.782    c1.084-1.726,1.986-3.249,2.917-4.385c1.768-2.328,2.791-3.627,2.791-3.627s-0.832,1.436-2.289,3.949    c-0.786,1.212-1.497,2.832-2.414,4.618c-0.95,1.769-1.803,3.875-2.787,6.138c-0.243,0.567-0.491,1.146-0.744,1.735    c-0.224,0.603-0.452,1.217-0.684,1.842c-0.474,1.244-0.963,2.529-1.466,3.851c-0.891,2.694-1.895,5.499-2.806,8.461    c-0.969,2.936-1.831,6.028-2.814,9.132c-0.952,3.123-1.919,6.296-2.887,9.469c-1.002,3.162-2.005,6.324-2.991,9.437    c-0.977,3.116-2.012,6.159-2.974,9.116c-0.958,2.958-1.94,5.801-2.857,8.501c-0.908,2.703-1.806,5.246-2.634,7.593    C124.677,353.854,122.226,360.039,122.227,360.039z"/>
	</g>
	<path fill="none" stroke="#FFFFFF" stroke-width="0.9853" stroke-linejoin="round" d="M124.086,709.055c-20.21,0-40.419,0-60.629,0   c-16.081,0-41.269,5.3-55.308-3.609"/>
	<path stroke="#000000" stroke-width="0.9853" stroke-linejoin="round" d="M114.57,562.82c6.369,0,7.656,1.611,7.656-4.815   c0-7.43,0-14.858,0-22.288c0-0.444-5.26-0.844-5.797-0.35c-0.781,0.72-0.416,6.146-0.482,7.117   C115.488,549.264,115.029,556.042,114.57,562.82z"/>
	
		<line fill="none" stroke="#000000" stroke-width="0.9853" stroke-linejoin="round" x1="19.633" y1="682.148" x2="85.258" y2="682.148"/>
	
		<line fill="none" stroke="#000000" stroke-width="1.5" stroke-linecap="round" stroke-linejoin="round" x1="222.195" y1="682.148" x2="320.852" y2="682.148"/>
	
		<line fill="none" stroke="#000000" stroke-width="0.9853" stroke-linejoin="round" x1="19.633" y1="664.32" x2="85.258" y2="664.32"/>
	
		<line fill="none" stroke="#000000" stroke-width="1.5" stroke-linecap="round" stroke-linejoin="round" x1="222.195" y1="664.32" x2="320.523" y2="664.32"/>
	
		<line fill="none" stroke="#000000" stroke-width="1.5" stroke-linecap="round" stroke-linejoin="round" x1="85.258" y1="664.32" x2="124.086" y2="664.32"/>
	
		<line fill="none" stroke="#000000" stroke-width="1.5" stroke-linecap="round" stroke-linejoin="round" x1="85.258" y1="682.148" x2="124.086" y2="682.148"/>
	
		<line fill="none" stroke="#000000" stroke-width="1.5" stroke-linecap="round" stroke-linejoin="round" x1="42.383" y1="664.32" x2="85.258" y2="631.398"/>
	
		<line fill="none" stroke="#000000" stroke-width="1.5" stroke-linecap="round" stroke-linejoin="round" x1="124.086" y1="600.008" x2="85.258" y2="631.398"/>
	<path stroke="#000000" stroke-width="0.9853" stroke-linejoin="round" d="M131.633,371.852c1.404,0.882,7.547,2.018,7.547,2.487   c0,2.855,1.156,7.987-0.875,10.146C132.904,390.223,131.633,373.622,131.633,371.852z"/>
	<path stroke="#000000" stroke-width="0.9853" stroke-linejoin="round" d="M131.633,385.414c1.334,1.014,7.547,2.517,7.547,2.799   c0,2.945,1.085,7.724-0.875,10.052C133.249,404.269,131.633,387.06,131.633,385.414z"/>
	<path fill="#FFFFFF" stroke="#000000" stroke-width="0.9853" stroke-linejoin="round" d="M133.711,389.352   c3.102,0.551,4.573,2.647,3.719,5.688C134.267,394.549,132.829,392.433,133.711,389.352z"/>
	<path fill="#FFFFFF" stroke="#000000" stroke-width="0.9853" stroke-linejoin="round" d="M133.711,375.68   c2.929,0.815,4.517,2.788,3.719,5.797C134.284,380.911,132.837,378.76,133.711,375.68z"/>
	<path fill="none" stroke="#000000" stroke-width="1.5" stroke-linecap="round" stroke-linejoin="round" d="M146.836,453.664   c-1.859-1.896-3.719-3.792-5.578-5.688c0,37.922,0,75.843,0,113.765c0,24.948,0,49.896,0,74.846   c0,10.986-4.134,25.117,5.578,31.452"/>
	<path fill="none" stroke="#000000" stroke-width="1.5" stroke-linecap="round" stroke-linejoin="round" d="M147.055,453.664   c12.05,1.989,23.433,1.859,35.682,1.859c13.534,0,27.249,1.3,40.443-1.859"/>
	<path fill="none" stroke="#000000" stroke-width="0.9853" stroke-linejoin="round" d="M147.055,668.258   c12.085,2.229,23.349,2.078,35.682,2.078c13.555,0,27.312,1.437,40.443-2.078"/>
	
		<line fill="none" stroke="#000000" stroke-width="1.5" stroke-linecap="round" stroke-linejoin="round" x1="192.883" y1="455.523" x2="192.883" y2="670.336"/>
	
		<line fill="none" stroke="#000000" stroke-width="1.5" stroke-linecap="round" stroke-linejoin="round" x1="131.633" y1="658.523" x2="131.633" y2="672.195"/>
	
		<line fill="none" stroke="#000000" stroke-width="1.5" stroke-linecap="round" stroke-linejoin="round" x1="131.633" y1="686.086" x2="131.633" y2="699.648"/>
	
		<line fill="none" stroke="#000000" stroke-width="1.5" stroke-linecap="round" stroke-linejoin="round" x1="127.914" y1="627.133" x2="127.914" y2="728.742"/>
	<path fill="#FFFFFF" stroke="#000000" stroke-width="1.5" stroke-linecap="round" stroke-linejoin="round" d="M223.18,371.852   c-12.078-5.504-23.651-3.938-36.947-3.938c-3.422,0-10.883-1.678-13.15,1.296c-4.118,5.401-8.237,10.802-12.355,16.204   c-2.23-11.612-5.18-17.068,1.092-26.904c6.897-10.818,7.016-16.299,19.55-16.299c3.853,0,31.087-2.432,32.431,0.541   C218.231,352.553,220.755,361.346,223.18,371.852z"/>
	<path fill="#FFFFFF" stroke="#000000" stroke-width="1.5" stroke-linecap="round" stroke-linejoin="round" d="M174.07,367.914   c-0.809,15.222-0.076,30.146-5.344,44.484c-4.989,13.583-8.299,30.827-21.672,37.328c0-28.231,4.111-56.023,9.734-83.672   c1.313,6.453,2.625,12.906,3.938,19.359C165.175,379.581,169.622,373.748,174.07,367.914z"/>
	
		<line fill="none" stroke="#000000" stroke-width="1.5" stroke-linecap="round" stroke-linejoin="round" x1="197.258" y1="455.523" x2="197.258" y2="670.336"/>
	
		<line fill="none" stroke="#000000" stroke-width="1.5" stroke-linecap="round" stroke-linejoin="round" x1="187.633" y1="455.523" x2="187.633" y2="670.336"/>
	<path fill="none" stroke="#000000" stroke-width="1.5" stroke-linecap="round" stroke-linejoin="round" d="M154.93,444.039   c0,66.709,0,133.419,0,200.128c0,9.729,0,19.457,0,29.186c0,10.424,1.012,25.397-2.437,35.188   c-4.507,12.799-11.235,25.586-11.235,39.252c0,16.399,0,32.8,0,49.199"/>
	
		<line fill="none" stroke="#000000" stroke-width="0.9853" stroke-linejoin="round" x1="204.586" y1="317.93" x2="209.836" y2="341.664"/>
	<path fill="#FFFFFF" stroke="#000000" stroke-width="1.5" stroke-linecap="round" stroke-linejoin="round" d="M222.414,562.82   c20.67,25.984,44.199,48.823,67.502,72.505c7.295,7.414,20.735,17.29,23.254,27.955c3.765,15.943,1.666,33.451,1.666,49.759   c0,2.252-2.217,15.565,3.938,11.766c3.784-2.337,1.75-14.552,1.75-17.629c0-15.752,3.14-34.342-2.372-49.286   c-11.092-30.078-39.047-55.591-58.824-80.096c-13.089-16.218-26.724-31.887-36.913-50.083   C222.414,539.414,222.414,551.117,222.414,562.82z"/>
	<path stroke="#000000" stroke-width="0.9853" stroke-linejoin="round" d="M320.523,697.57c-20.477,0-40.953,0-61.43,0   c-11.064,0-22.128,0-33.192,0c-7.336,0-2.759,11.645-1.766,16.787c0.597,3.087,54.142,0.713,59.281,0.713   c11.186,0,22.372,0,33.558,0C324.171,715.07,320.523,703.45,320.523,697.57z"/>
	
		<line fill="none" stroke="#FFFFFF" stroke-width="0.9853" stroke-linejoin="round" x1="320.523" y1="709.055" x2="222.414" y2="709.055"/>
	<path fill="none" stroke="#000000" stroke-width="1.5" stroke-linecap="round" stroke-linejoin="round" d="M224.273,543.461   c12.853,17.46,27.144,33.958,41.083,50.564c17.194,20.485,41.339,41.377,51.558,66.357"/>
	
		<line fill="none" stroke="#000000" stroke-width="1.5" stroke-linecap="round" stroke-linejoin="round" x1="287.82" y1="664.32" x2="222.414" y2="607.773"/>
	<path stroke="#000000" stroke-width="0.9853" stroke-linejoin="round" d="M222.414,703.586c0-2.698,0-5.396,0-8.094   c-8.121,4.286-12.235,4.156-21.513,4.156c-10.261,0-17.162-2.803-23.003,5.797c-8.74-8.908-14.66-2.978-25.843-6.013   c-9.916-2.691-18.947-7.351-28.298-11.597c0,4.638-1.346,7.031,2.898,9.002c5.725,2.657,11.449,5.315,17.173,7.974   c8.712,4.044,18.61,2.712,27.931,2.712c4.546,0,3.57,8.207,8.179,3.686c4.037-3.961,4.561-3.686,10.191-3.686   C202.04,707.523,211.786,708.899,222.414,703.586z"/>
	<path fill="none" stroke="#FFFFFF" stroke-width="0.9853" stroke-linejoin="round" d="M222.414,699.648   c-8.072,4.036-12.392,3.938-21.513,3.938c-9.965,0-17.101-2.729-23.003,5.469c-3.413-3.281-4.568-5.469-9.222-5.469   c-5.021,0-11.805,1.264-16.621-0.25c-9.791-3.077-18.938-7.579-28.298-11.781"/>
	<path fill="#FFFFFF" stroke="#000000" stroke-width="0.9853" stroke-linejoin="round" d="M48.727,715.07   c0,11.872-2.108,13.217,9.625,15.75c0-4.588,0-9.175,0-13.763C58.352,713.215,51.955,715.07,48.727,715.07z"/>
	<path fill="#FFFFFF" stroke="#000000" stroke-width="0.9853" stroke-linejoin="round" d="M297.555,715.07   c0,11.948,2.085,13.227-9.734,15.75c0-4.588,0-9.175,0-13.763C287.82,713.203,294.318,715.07,297.555,715.07z"/>
	<path stroke="#000000" stroke-width="0.9853" stroke-linejoin="round" d="M162.477,297.695c2.401,0.815,10.224,1.975,11.594,3.938   c1.341,1.921,0.405,8.484-1.859,9.734C163.412,316.226,162.477,301.944,162.477,297.695z"/>
	<path stroke="#000000" stroke-width="0.9853" stroke-linejoin="round" d="M203.055,297.695c-3.695,1.848-14.66,9.258-5.797,13.672   C207.439,316.438,203.942,301.454,203.055,297.695z"/>
	<path fill="none" stroke="#000000" stroke-width="1.5" stroke-linecap="round" stroke-linejoin="round" d="M222.414,441.961   c-2.604-24.445-3.938-47.717-3.938-72.297"/>
	<path fill="none" stroke="#000000" stroke-width="0.9853" stroke-linejoin="round" d="M231.82,740.445   c-8.206,4.281-13.64,3.938-22.969,3.938"/>
	<path fill="none" stroke="#000000" stroke-width="1.5" stroke-linecap="round" stroke-linejoin="round" d="M135.57,736.508   c6.688,9.261,8.245,7.875,19.8,7.875c10.831,0,15.186,1.751,22.528-6.016"/>
	
		<line fill="none" stroke="#000000" stroke-width="1.5" stroke-linecap="round" stroke-linejoin="round" x1="174.07" y1="301.633" x2="195.18" y2="301.633"/>
	
		<line fill="none" stroke="#000000" stroke-width="0.9853" stroke-linejoin="round" x1="203.055" y1="310.273" x2="199.883" y2="299.555"/>
	<path fill="none" stroke="#000000" stroke-width="0.9853" stroke-linejoin="round" d="M160.727,315.305   c-3.612,16.908-7.484,33.56-9.517,50.725c-2.2,18.573-1.432,35.655-0.437,54.384"/>
	<path fill="none" stroke="#000000" stroke-width="0.9853" stroke-linejoin="round" d="M187.633,262.477   c-9.453-6.958-19.231-11.997-29.094-1.859"/>
	<path fill="#96D7E8" stroke="#000000" stroke-width="0.9853" stroke-linejoin="round" d="M172.211,363.977   c-0.692-3.938-1.386-7.875-2.078-11.813c-4.73,8.583-8.125,11.987-5.797,21.438C166.961,370.393,169.586,367.185,172.211,363.977z"/>
	<path fill="#5FC8FF" stroke="#000000" stroke-width="0.9853" stroke-linejoin="round" d="M174.07,348.555   c0.239,1.853,0.983,13.563,2.243,13.563c5.705,0,11.411,0,17.116,0c-0.254-1.854-1.081-13.563-2.35-13.563   C185.41,348.555,179.74,348.555,174.07,348.555z"/>
	<path fill="#3F9BAA" stroke="#000000" stroke-width="0.9853" stroke-linejoin="round" d="M195.18,348.555   c0.284,1.854,1.277,13.563,2.563,13.563c5.599,0,11.197,0,16.797,0c-0.239-1.853-0.983-13.563-2.243-13.563   C206.591,348.555,200.885,348.555,195.18,348.555z"/>
	<path fill="#FFFFFF" stroke="#FFFFFF" stroke-width="0.9853" stroke-linejoin="round" d="M189.492,360.258   C198.421,352.908,180.482,353.147,189.492,360.258L189.492,360.258z"/>
	<path fill="#FFFFFF" stroke="#FFFFFF" stroke-width="0.9853" stroke-linejoin="round" d="M210.602,360.258   C219.234,353.444,202.189,352.448,210.602,360.258L210.602,360.258z"/>
	<path fill="#A89187" stroke="#000000" stroke-width="0.9853" stroke-linejoin="round" d="M189.492,406.852   c3.747-1.78,6.02-13.61,0-13.563C183.683,393.335,185.809,405.141,189.492,406.852z"/>
	<path fill="#A89187" stroke="#000000" stroke-width="0.9853" stroke-linejoin="round" d="M203.055,406.852   c3.712-1.724,5.835-13.365,0-13.563C197.108,393.088,198.952,405.199,203.055,406.852z"/>
	
		<line fill="none" stroke="#000000" stroke-width="1.5" stroke-linecap="round" stroke-linejoin="round" x1="131.633" y1="422.273" x2="131.633" y2="435.945"/>
	
		<line fill="none" stroke="#000000" stroke-width="1.5" stroke-linecap="round" stroke-linejoin="round" x1="131.633" y1="449.727" x2="131.633" y2="463.398"/>
	
		<line fill="none" stroke="#000000" stroke-width="1.5" stroke-linecap="round" stroke-linejoin="round" x1="131.633" y1="504.195" x2="131.633" y2="518.086"/>
	
		<line fill="none" stroke="#000000" stroke-width="1.5" stroke-linecap="round" stroke-linejoin="round" x1="131.633" y1="531.648" x2="131.633" y2="545.32"/>
	
		<line fill="none" stroke="#000000" stroke-width="1.5" stroke-linecap="round" stroke-linejoin="round" x1="131.633" y1="578.461" x2="131.633" y2="592.133"/>
	
		<line fill="none" stroke="#000000" stroke-width="1.5" stroke-linecap="round" stroke-linejoin="round" x1="131.633" y1="606.023" x2="131.633" y2="619.367"/>
	<path fill="#FFFFFF" stroke="#000000" stroke-width="1.5" stroke-linecap="round" stroke-linejoin="round" d="M178.227,783.43   c0-14.656,0-29.313,0-43.969c0-10.076,0-20.152,0-30.229c0-4.04-1.358-10.777,0.375-14.56c5.788-12.627,18.219-15.354,21.146,0.239   c3.528,18.795,7.057,37.59,10.584,56.385c2.412,12.849,5.028,25.678,7.232,38.563c2.953,17.271,3.3,32.275,2.938,49.85   c-0.07,3.426-0.57,13.115-5.083,6.192c-4.998-7.667-9.996-15.335-14.994-23.003C192.312,810.455,181.13,798.152,178.227,783.43z"/>
	<path fill="#706A69" d="M181.836,697.57c14.54,14.956,16.224,39.742,21.548,59.543c5.239,19.488,8.685,37.312,11.155,57.379   c-6.697-11.39-12.449-25.005-21.109-35c-4.87,4.687-1.859,18.906-1.859,25.375c-2.981-5.393-9.734-13.058-9.734-19.305   c0-9.434,0-18.868,0-28.302C181.836,737.364,181.836,717.467,181.836,697.57z"/>
	<path fill="#5E5653" d="M216.398,839.867c-0.356-8.139,0.61-15.285-3.692-22.21c-5.842-9.404-11.685-18.808-17.526-28.212   c0,8.534-1.831,16.68,3.036,23.804C204.276,822.122,210.338,830.994,216.398,839.867z"/>
</g>
</svg>